<svg id="Layer_1" data-name="Layer 1" xmlns="http://www.w3.org/2000/svg" viewBox="0 0 296 239"><defs><style>.cls-1,.cls-4{fill:#02c0d7}.cls-11,.cls-2,.cls-23,.cls-3{fill:none}.cls-11,.cls-2,.cls-8{stroke:#02c0d7}.cls-11,.cls-19,.cls-2,.cls-23,.cls-3,.cls-4,.cls-7,.cls-8{stroke-miterlimit:10}.cls-11,.cls-19,.cls-2,.cls-23,.cls-7,.cls-8{stroke-width:.5px}.cls-3,.cls-4{stroke:#fff}.cls-19,.cls-5,.cls-7,.cls-8{fill:#fff}.cls-7{stroke:#ffc04f}.cls-11{stroke-linecap:round}.cls-19,.cls-23{stroke:#25b8d0}.cls-20{fill:#d7d7db}</style></defs><circle class="cls-1" cx="143.62" cy="114.74" r="95.79"/><circle class="cls-2" cx="143.62" cy="114.74" r="102.26"/><path class="cls-3" d="M97.87 89.11h90.81v51.3H97.87z"/><path class="cls-3" d="M152.79 144.38h41.6V87.55a2.7 2.7 0 0 0-2.76-2.65H96a2.7 2.7 0 0 0-2.76 2.65v56.83h41.72m65.35 0h-47.52c-.07.5-.7.88-1.47.88h-14.91c-.77 0-1.4-.39-1.47-.88H87c-1.4 0-2.54.75-2.54 1.67v1.84c0 .92 1.13 1.67 2.54 1.67h113.3c1.4 0 2.54-.75 2.54-1.67v-1.84c.01-.92-1.13-1.67-2.53-1.67z"/><path class="cls-3" d="M84.47 147.44v.56c0 .88 1.09 1.6 2.43 1.6h113.52c1.34 0 2.43-.72 2.43-1.6v-.53z"/><path class="cls-4" d="M141.73 112.69h23.13a.52.52 0 0 1 .52.52v13.24a.52.52 0 0 1-.52.52h-2.77l-3.3 3.3V127h-17.06a.52.52 0 0 1-.52-.52v-13.26a.52.52 0 0 1 .52-.53z"/><path class="cls-4" d="M147.64 103.26h-29.93a.68.68 0 0 0-.68.68v17.13a.68.68 0 0 0 .68.68h3.59l4.27 4.27v-4.27h22.07a.68.68 0 0 0 .68-.68v-17.13a.68.68 0 0 0-.68-.68z"/><rect class="cls-5" x="58.42" y="23.81" width="2.89" height="8.67" rx=".74" ry=".74"/><rect class="cls-5" x="79.14" y="23.33" width="2.89" height="9.63" rx=".74" ry=".74"/><rect class="cls-5" x="51.68" y="29.59" width="36.61" height="29.87" rx=".92" ry=".92"/><path class="cls-1" d="M86.35 29.46h-4.72v.38h4.72a2.05 2.05 0 0 1 2 2v25.63a2.05 2.05 0 0 1-2 2H53.62a2.05 2.05 0 0 1-2-2V31.88a2.05 2.05 0 0 1 2-2h4.72v-.38h-4.72a2.42 2.42 0 0 0-2.42 2.42v25.55a2.42 2.42 0 0 0 2.42 2.42h32.73a2.42 2.42 0 0 0 2.42-2.42V31.88a2.42 2.42 0 0 0-2.42-2.42zm-7.35.38v-.38H61v.38z"/><path class="cls-1" d="M86.35 59.89H53.62a2.43 2.43 0 0 1-2.42-2.42V36.22h37.57v21.25a2.43 2.43 0 0 1-2.42 2.42zM51.57 36.6v20.87a2.05 2.05 0 0 0 2 2h32.78a2.05 2.05 0 0 0 2-2V36.6zm8.08-13.15A1.69 1.69 0 0 0 58 25.14v4.7h.38v-4.7a1.32 1.32 0 1 1 2.63 0v4.7h.38v-4.7a1.69 1.69 0 0 0-1.74-1.69zm1.69 6.39v1.32a1.69 1.69 0 1 1-3.38 0v-1.32h.38v1.32a1.32 1.32 0 1 0 2.63 0v-1.32zm18.98-6.39a1.69 1.69 0 0 0-1.69 1.69v6a1.69 1.69 0 0 0 3.38 0v-6a1.69 1.69 0 0 0-1.69-1.69zm1.32 7.7a1.32 1.32 0 1 1-2.63 0v-6a1.32 1.32 0 1 1 2.63 0z"/><rect class="cls-2" x="64.14" y="39.04" width="4.76" height="4.76" rx=".51" ry=".51"/><rect class="cls-2" x="70.88" y="39.04" width="4.76" height="4.76" rx=".51" ry=".51"/><rect class="cls-2" x="77.62" y="39.04" width="4.76" height="4.76" rx=".51" ry=".51"/><rect class="cls-2" x="57.4" y="51.73" width="4.76" height="4.76" rx=".51" ry=".51"/><rect class="cls-2" x="64.14" y="51.73" width="4.76" height="4.76" rx=".51" ry=".51"/><rect class="cls-2" x="70.88" y="51.73" width="4.76" height="4.76" rx=".51" ry=".51"/><rect class="cls-2" x="57.4" y="45.39" width="4.76" height="4.76" rx=".51" ry=".51"/><rect class="cls-2" x="64.14" y="45.39" width="4.76" height="4.76" rx=".51" ry=".51"/><rect x="70.88" y="45.39" width="4.76" height="4.76" rx=".51" ry=".51" stroke="#f16550" stroke-width=".5" stroke-miterlimit="10" fill="none"/><rect class="cls-2" x="77.62" y="45.39" width="4.76" height="4.76" rx=".51" ry=".51"/><path class="cls-7" d="M53.41 155.74l-5-1.69-3.47 3.96-4.17-15.54 8.48-2.27 4.16 15.54zm-25.8 0l4.99-1.69 3.48 3.96 4.17-15.54-8.48-2.27-4.16 15.54z"/><circle class="cls-8" cx="40.51" cy="131.56" r="15.36"/><circle class="cls-8" cx="40.51" cy="131.56" r="13.16"/><rect class="cls-7" x="168.48" y="12.61" width="25.59" height="35.58" rx="1.56" ry="1.56"/><path class="cls-7" d="M180.96 18.23h9.99m-9.99 2.5h9.99m-9.99 2.49h9.99m-19.97 4.37h9.98m-9.98 2.5h9.98m-9.98 2.5h9.98m0 5.3h9.99m-9.99 2.5h9.99m-9.99 2.5h9.99"/><path d="M173.16 21.35l1.87 1.88 3.75-5m4.68 12.49l1.87 1.87 3.75-5m-16.23 13.43l1.87 1.87 3.75-5" stroke-linecap="round" stroke="#ffc04f" fill="#fff" stroke-width=".5" stroke-miterlimit="10"/><path stroke-linecap="round" stroke="#ffc04f" stroke-width=".5" stroke-miterlimit="10" fill="none" d="M35.37 132.83l3.66 3.66 7.33-9.77"/><rect class="cls-8" x="198.61" y="171.52" width="28.59" height="39.75" rx="1.32" ry="1.32"/><path class="cls-2" d="M223.02 191.74v13.25m-2.44-10.29v10.29m-2.44-10.64v10.64m-2.44-8.89v8.89m-2.45-8.2v8.2"/><path class="cls-11" d="M201.58 177.1h16.03m1.22 0h5.41m-22.66 8.01h16.03m1.22 0h5.41m-22.84-5.22h5.41m1.56 0h16.04m-22.83 2.78h11.5m-11.33 4.89h11.5m1.57-4.89h9.59"/><path d="M224.78 209.78a1.17 1.17 0 0 1-1-1.75l2.34-4.06a1.17 1.17 0 0 1 2 0l2.34 4.06a1.17 1.17 0 0 1-1 1.75z" stroke-linecap="round" fill="#fff" stroke="#fff" stroke-width=".5" stroke-miterlimit="10"/><path d="M226.65 203.65l-2.9 5a.55.55 0 0 0 .48.82H230a.55.55 0 0 0 .48-.82l-2.9-5a.55.55 0 0 0-.93 0z" opacity=".5" stroke-linecap="round" stroke="#f16550" fill="#fff" stroke-width=".5" stroke-miterlimit="10"/><path d="M226.92 208.62a.2.2 0 0 1 .05-.14.19.19 0 0 1 .15-.06.2.2 0 0 1 .15.06.2.2 0 0 1 .06.14.19.19 0 0 1-.06.14.2.2 0 0 1-.15.06.2.2 0 0 1-.15-.06.19.19 0 0 1-.05-.14zm.32-.83H227v-2.6h.31z" fill="#f16550" opacity=".5"/><circle class="cls-11" cx="205.76" cy="200.28" r="4.53"/><path class="cls-11" d="M210.29 200.28a4.53 4.53 0 1 1-4.53-4.53v4.65a.05.05 0 0 0 .05.05z"/><path class="cls-11" d="M209.2 203.23a4.53 4.53 0 1 1-.5-6.39l-2.86 3.34a.29.29 0 0 0 0 .42z"/><circle class="cls-1" cx="213.25" cy="194.88" r=".52"/><circle class="cls-1" cx="215.7" cy="193.83" r=".52" transform="rotate(-45 215.695 193.826)"/><circle class="cls-1" cx="218.14" cy="191.74" r=".52" transform="rotate(-45 218.13 191.737)"/><circle class="cls-1" cx="220.58" cy="192.79" r=".52" transform="rotate(-45 220.583 192.782)"/><circle class="cls-1" cx="223.02" cy="189.65" r=".52" transform="rotate(-45 223.013 189.645)"/><path class="cls-2" d="M213.25 194.88l2.44-1.05 2.45-2.09 2.44 1.04 2.26-2.96"/><circle cx="197.11" cy="181.03" r="3.26" fill="#fff" stroke="#fff" stroke-width=".5" stroke-miterlimit="10"/><circle cx="197.11" cy="181.03" r="2.96" stroke="#4cb975" opacity=".5" fill="#fff" stroke-width=".5" stroke-miterlimit="10"/><path d="M195.89 181.43l.79 1.12a.17.17 0 0 0 .3 0l1.36-3.07" stroke="#4cb975" opacity=".5" stroke-linecap="round" fill="#fff" stroke-width=".5" stroke-miterlimit="10"/><path class="cls-19" d="M223.68 104.67l1.36 6.22a4.31 4.31 0 0 0 4.21 3.39h26.61a4 4 0 0 0 3.86-3l1.64-6.79"/><path class="cls-19" d="M223.73 103l3.53-14.61a4.23 4.23 0 0 1 4.11-3.23h22.44a4.22 4.22 0 0 1 4.12 3.29l3.31 14.67a3.86 3.86 0 0 1-3.74 4.71l-29.86.13a4 4 0 0 1-3.91-4.96zm8.24 1.99H237m-2.57-.56v.39"/><rect class="cls-19" x="233.8" y="103.53" width="1.34" height=".9" rx=".15" ry=".15"/><rect class="cls-19" x="232.39" y="105.63" width="1.34" height=".9" rx=".11" ry=".11"/><rect class="cls-19" x="235.07" y="105.63" width="1.34" height=".9" rx=".18" ry=".18"/><path class="cls-19" d="M233.06 105.63v-.5m2.68.5v-.5"/><path class="cls-20" d="M249.62 104.53a1.08 1.08 0 0 0 .94 1.26v.71a.27.27 0 0 0 .22.27.27.27 0 0 0 .29-.27v-.72a1.13 1.13 0 0 0 .9-1.31h-.48v-.67a.17.17 0 0 0-.35 0v.66h-.67v-.66a.18.18 0 0 0-.36 0v.66h-.47z"/><path class="cls-19" d="M231.6 114.28l-.76-4.2h7.27l.34 4.2h-6.85z"/><path class="cls-20" d="M232.14 110.81l.36 2.29h4.73l-.23-2.29h-4.86z"/><path class="cls-19" d="M251.79 114.1l.68-5.21h-3.74l-.49 5.37"/><path class="cls-20" d="M249.09 109.35H252l-.55.48h-1.95l-.42-.48h.01z"/><path stroke="#6b6c6f" opacity=".1" stroke-width=".5" stroke-miterlimit="10" fill="none" d="M93.44 197.65l-.15 4.27"/><path class="cls-19" d="M131.18 203.31v5.27a2.44 2.44 0 0 1-1.16 2l-15.74 9.83a8.61 8.61 0 0 1-9 .09L90 211.29a2.43 2.43 0 0 1-1.2-2.19V201l13.61-.17L104 200h11.92l1.35.6z"/><path class="cls-19" d="M131.18 208.33v.25a2.44 2.44 0 0 1-1.16 2l-15.74 9.83a8.61 8.61 0 0 1-9 .09L90 211.29a2.43 2.43 0 0 1-1.2-2.19"/><path class="cls-19" d="M88.78 209.1h-.01v-8.12l13.62-.17 14.84-.18 13.95.29v7.66"/><path fill="#6b6c6f" stroke="#e8e8e8" opacity=".4" stroke-width=".5" stroke-miterlimit="10" d="M109.64 213.62v7.82"/><path class="cls-19" d="M90.15 198.67l15.79-7.91a8.59 8.59 0 0 1 7.34-.17l16.44 8.33a2.48 2.48 0 0 1 .31 4.38l-15.74 8.81a8.59 8.59 0 0 1-9 .09L90 203a2.48 2.48 0 0 1 .15-4.33z"/><path class="cls-20" d="M106.91 215.36a14.76 14.76 0 0 0 5.56 0v3.71a14.07 14.07 0 0 1-5.56 0z"/><path class="cls-23" d="M106.65 214.8a12.62 12.62 0 0 0 6 0v4.95s-3.61.93-6 0zm17.05-.16l-.05-6.54-2.39 1.22.24 6.5"/><path class="cls-20" d="M121.67 209.68l1.63-.87-.05.58-1.34.69-.24-.4z"/><circle class="cls-20" cx="120.44" cy="206.77" r=".28" transform="rotate(-30 120.436 206.77)"/><circle class="cls-20" cx="121.62" cy="206.24" r=".28" transform="rotate(-23.79 121.61 206.238)"/><circle class="cls-20" cx="122.76" cy="205.74" r=".28" transform="rotate(-23.79 122.758 205.735)"/><circle class="cls-20" cx="101.15" cy="195.28" r=".28" transform="rotate(-43.15 101.165 195.286)"/><circle class="cls-20" cx="99.08" cy="206.24" r=".28" transform="rotate(-43.15 99.082 206.248)"/><circle class="cls-20" cx="102.3" cy="194.78" r=".28" transform="rotate(-23.79 102.283 194.779)"/><path class="cls-23" d="M95.74 214.87l.05-6.54 2.39 1.22-.23 6.49"/><path class="cls-20" d="M97.77 209.9l-1.62-.87.05.58 1.34.7.23-.41z"/></svg>