<svg id="Layer_1" data-name="Layer 1" xmlns="http://www.w3.org/2000/svg" viewBox="0 0 577 461"><defs><style>.cls-2{font-size:8.64px;font-family:MyriadPro-Regular,Myriad Pro;fill:#5f6062}.cls-7{fill:#5f6062;font-family:ProximaNova-Semibold,Proxima Nova;font-weight:700}.cls-5{fill:#41a629}.cls-6{fill:#a2a3a3}.cls-7{font-size:9.85px}</style></defs><path d="M150.5 100v265.5H376M187.39 101.46v263.38m-78.32-166l266.88.1m-266.89 55.79l266.88.11m-266.87 56.87l266.88.1M226.29 101.83v263.38m37.44-263.38v263.38m35.91-263.38v263.38m35.91-263.05v263.38m-226.49-220.4l266.89.1" stroke="#e1dede" fill="none" stroke-miterlimit="10"/><text class="cls-2" transform="translate(120.69 323.12)">$1K</text><text class="cls-2" transform="translate(120.69 266.98)">$2K</text><text class="cls-2" transform="translate(120.69 209.52)">$3K</text><text class="cls-2" transform="translate(120.69 155.76)">$4K</text><path d="M109.11 145.15l41.07.01m-41.07 53.73h41.07m-41.09 55.89l41.08.01m-41.04 56.92l41.07.01" stroke="#5f6062" fill="none" stroke-miterlimit="10"/><text class="cls-2" transform="translate(198.36 378.03)">.05%</text><text class="cls-2" transform="translate(272.81 376.32)">1.25%</text><text class="cls-2" transform="translate(123.03 367.16)">$0</text><text transform="rotate(.01 -2302710.714 1389623.61)" font-family="ProximaNova-Semibold,Proxima Nova" font-weight="700" font-size="11.52" fill="#5f6062">Fee</text><path class="cls-5" d="M187.39 151.29h38.9v214.34h-38.9z"/><path class="cls-6" d="M187.39 358.48h38.9v7.09h-38.9z"/><path class="cls-5" d="M263.73 190.18h35.91v175.46h-35.91z"/><path class="cls-6" d="M263.73 317.89h35.91v48.22h-35.91zm155.82-95.4h5.89v5.89h-5.89z"/><path class="cls-5" d="M419.52 236.45h5.89v5.89h-5.89z"/><text class="cls-7" transform="translate(430.14 228.53)"><tspan letter-spacing="-.1em">T</tspan><tspan x="4.65" y="0">otal fees over 20 years</tspan></text><text class="cls-7" transform="translate(430.11 241.89)"><tspan letter-spacing="-.07em">V</tspan><tspan x="5.99" y="0">alue after 20 years with fees</tspan></text><text transform="translate(219.79 82.29)" font-size="25.18" fill="#434547" font-family="ProximaNova-Semibold,Proxima Nova" font-weight="700"><tspan letter-spacing="-.02em">L</tspan><tspan x="12.64" y="0">ow Fees</tspan></text></svg>