<svg id="Layer_1" data-name="Layer 1" xmlns="http://www.w3.org/2000/svg" viewBox="0 0 724.77 663.94"><defs><style>.cls-2{font-size:12px;font-family:MyriadPro-Regular,Myriad Pro}.cls-12,.cls-2{fill:#5f6062}.cls-8{fill:#fff}.cls-12{font-size:16px;font-family:ProximaNova-Semibold,Proxima Nova;font-weight:700}</style></defs><path d="M153.31 108.32l-.1 433.5h457.72M204.48 107.56v433.96M95.72 311.19l514.99.15m-515 77.47l514.99.14M95.72 467.92l514.99.15M258.49 108.18v433.95m51.99-433.95v433.95m49.86-433.95v433.95m49.86-433.41v433.95m54.01-434.88v433.96m51.99-433.96v433.96m49.86-433.96v433.96M95.7 161.52l514.99.14M95.71 236.63l515 .14" stroke-miterlimit="10" stroke="#e1dede" fill="none"/><text class="cls-2" transform="translate(105.7 483.76)">$500K</text><text class="cls-2" transform="translate(105.7 405.81)">$600K</text><text class="cls-2" transform="translate(105.7 326.03)">$700K</text><text class="cls-2" transform="translate(105.7 251.38)">$800K</text><text class="cls-2" transform="translate(105.7 175.58)">$900K</text><path d="M95.7 161.52l57.04.01m-56.97 75.12l57.04.01m-57.04 74.6l57.04.01m-57.05 77.61l57.03.01m-56.98 79.03l57.03.01m105.65 74.2v6.08m101.85.54v-6.08m103.87 0v6.08m101.85-6.08v6.08" stroke="#5f6062" stroke-miterlimit="10" fill="none"/><text class="cls-2" transform="translate(252.33 561.5)">10</text><text class="cls-2" transform="translate(354.18 561.5)">20</text><text class="cls-2" transform="translate(559.9 561.5)">40</text><text class="cls-2" transform="translate(458.05 561.5)">30</text><text class="cls-2" transform="translate(115.11 544.92)">$0</text><path d="M153.21 542.32a423.17 423.17 0 0 0 207.13-57.47" stroke-width="2" stroke="#003d67" stroke-miterlimit="10" fill="none"/><path d="M153.21 542.32c25.56.44 118.07-1.07 202.84-69.28 78.34-63 101.75-144.18 108.16-170.28" stroke="#e8a300" stroke-width="2" stroke-miterlimit="10" fill="none"/><path d="M153.21 542.32c46.76-5.9 143.87-24.89 236.34-98.46 147.26-117.15 171.9-284.49 176.51-322.24" stroke="#41a629" stroke-width="2" stroke-miterlimit="10" fill="none"/><circle cx="153.21" cy="542.36" r="3.54" fill="#41a629"/><path class="cls-8" d="M566.06 126.16a4.54 4.54 0 1 1 4.54-4.54 4.51 4.51 0 0 1-4.54 4.54z"/><circle cx="566.06" cy="121.62" r="3.54" stroke="#000" fill="#41a629" stroke-miterlimit="10"/><path class="cls-8" d="M464.21 307.3a4.54 4.54 0 1 1 4.54-4.54 4.51 4.51 0 0 1-4.54 4.54z"/><circle cx="464.21" cy="302.76" r="3.54" fill="#e8a300" stroke="#000" stroke-miterlimit="10"/><path class="cls-8" d="M360.34 489.39a4.54 4.54 0 1 1 4.54-4.54 4.51 4.51 0 0 1-4.54 4.54z"/><circle cx="360.34" cy="484.85" r="3.54" fill="#003d67" stroke="#000" stroke-miterlimit="10"/><text class="cls-12" transform="rotate(.01 -3431553.145 2034987.192)"><tspan letter-spacing="-.13em">Y</tspan><tspan x="8.19" y="0">ears</tspan></text><text class="cls-12" transform="rotate(-89.99 234.55 166.88)"><tspan letter-spacing="-.11em">T</tspan><tspan x="7.55" y="0">otal Savings</tspan></text><text transform="translate(207.87 76.82)" font-size="25.18" font-family="ProximaNova-Semibold,Proxima Nova" font-weight="700" fill="#5f6062">Compound Savings Growth</text></svg>