<svg id="Layer_1" data-name="Layer 1" xmlns="http://www.w3.org/2000/svg" viewBox="0 0 296 239"><defs><style>.cls-1,.cls-4{fill:#02c0d7;}.cls-10,.cls-11,.cls-2,.cls-21,.cls-23,.cls-3,.cls-6{fill:none;}.cls-11,.cls-2,.cls-8{stroke:#02c0d7;}.cls-10,.cls-11,.cls-12,.cls-13,.cls-16,.cls-17,.cls-18,.cls-19,.cls-2,.cls-21,.cls-22,.cls-23,.cls-3,.cls-4,.cls-6,.cls-7,.cls-8,.cls-9{stroke-miterlimit:10;}.cls-10,.cls-11,.cls-12,.cls-13,.cls-16,.cls-17,.cls-18,.cls-19,.cls-2,.cls-21,.cls-22,.cls-23,.cls-6,.cls-7,.cls-8,.cls-9{stroke-width:0.5px;}.cls-12,.cls-16,.cls-3,.cls-4{stroke:#fff;}.cls-12,.cls-13,.cls-16,.cls-17,.cls-18,.cls-19,.cls-5,.cls-7,.cls-8,.cls-9{fill:#fff;}.cls-13,.cls-6{stroke:#f16550;}.cls-10,.cls-7,.cls-9{stroke:#ffc04f;}.cls-10,.cls-11,.cls-12,.cls-13,.cls-18,.cls-9{stroke-linecap:round;}.cls-13,.cls-14,.cls-17,.cls-18{opacity:0.5;}.cls-15{fill:#f16550;}.cls-17,.cls-18{stroke:#4cb975;}.cls-19,.cls-23{stroke:#25b8d0;}.cls-20{fill:#d7d7db;}.cls-21{stroke:#6b6c6f;opacity:0.1;}.cls-22{fill:#6b6c6f;stroke:#e8e8e8;opacity:0.4;}</style></defs><title>Artboard 54</title><circle class="cls-1" cx="143.62" cy="114.74" r="95.79"/><circle class="cls-2" cx="143.62" cy="114.74" r="102.26"/><rect class="cls-3" x="97.87" y="89.11" width="90.81" height="51.3"/><path class="cls-3" d="M152.79,144.38h41.6V87.55a2.7,2.7,0,0,0-2.76-2.65H96a2.7,2.7,0,0,0-2.76,2.65v56.83h41.72"/><path class="cls-3" d="M200.31,144.38H152.79c-.07.5-.7.88-1.47.88H136.41c-.77,0-1.4-.39-1.47-.88H87c-1.4,0-2.54.75-2.54,1.67v1.84c0,.92,1.13,1.67,2.54,1.67h113.3c1.4,0,2.54-.75,2.54-1.67v-1.84C202.85,145.13,201.71,144.38,200.31,144.38Z"/><path class="cls-3" d="M84.47,147.44V148c0,.88,1.09,1.6,2.43,1.6H200.42c1.34,0,2.43-.72,2.43-1.6v-.53Z"/><path class="cls-4" d="M141.73,112.69h23.13a.52.52,0,0,1,.52.52v13.24a.52.52,0,0,1-.52.52h-2.77l-3.3,3.3V127H141.73a.52.52,0,0,1-.52-.52V113.22A.52.52,0,0,1,141.73,112.69Z"/><path class="cls-4" d="M147.64,103.26H117.71a.68.68,0,0,0-.68.68v17.13a.68.68,0,0,0,.68.68h3.59l4.27,4.27v-4.27h22.07a.68.68,0,0,0,.68-.68V103.94A.68.68,0,0,0,147.64,103.26Z"/><rect class="cls-5" x="58.42" y="23.81" width="2.89" height="8.67" rx="0.74" ry="0.74"/><rect class="cls-5" x="79.14" y="23.33" width="2.89" height="9.63" rx="0.74" ry="0.74"/><rect class="cls-5" x="51.68" y="29.59" width="36.61" height="29.87" rx="0.92" ry="0.92"/><path class="cls-1" d="M86.35,29.46H81.63v.38h4.72a2.05,2.05,0,0,1,2,2V57.47a2.05,2.05,0,0,1-2,2H53.62a2.05,2.05,0,0,1-2-2V31.88a2.05,2.05,0,0,1,2-2h4.72v-.38H53.62a2.42,2.42,0,0,0-2.42,2.42V57.47a2.42,2.42,0,0,0,2.42,2.42H86.35a2.42,2.42,0,0,0,2.42-2.42V31.88A2.42,2.42,0,0,0,86.35,29.46ZM79,29.84v-.38H61v.38Z"/><path class="cls-1" d="M86.35,59.89H53.62a2.43,2.43,0,0,1-2.42-2.42V36.22H88.77V57.47A2.43,2.43,0,0,1,86.35,59.89ZM51.57,36.6V57.47a2.05,2.05,0,0,0,2,2H86.35a2.05,2.05,0,0,0,2-2V36.6Z"/><path class="cls-1" d="M59.65,23.45A1.69,1.69,0,0,0,58,25.14v4.7h.38v-4.7a1.32,1.32,0,1,1,2.63,0v4.7h.38v-4.7A1.69,1.69,0,0,0,59.65,23.45Z"/><path class="cls-1" d="M61.34,29.84v1.32a1.69,1.69,0,1,1-3.38,0V29.84h.38v1.32a1.32,1.32,0,1,0,2.63,0V29.84Z"/><path class="cls-1" d="M80.32,23.45a1.69,1.69,0,0,0-1.69,1.69v6a1.69,1.69,0,0,0,3.38,0v-6A1.69,1.69,0,0,0,80.32,23.45Zm1.32,7.7a1.32,1.32,0,1,1-2.63,0v-6a1.32,1.32,0,1,1,2.63,0Z"/><rect class="cls-2" x="64.14" y="39.04" width="4.76" height="4.76" rx="0.51" ry="0.51"/><rect class="cls-2" x="70.88" y="39.04" width="4.76" height="4.76" rx="0.51" ry="0.51"/><rect class="cls-2" x="77.62" y="39.04" width="4.76" height="4.76" rx="0.51" ry="0.51"/><rect class="cls-2" x="57.4" y="51.73" width="4.76" height="4.76" rx="0.51" ry="0.51"/><rect class="cls-2" x="64.14" y="51.73" width="4.76" height="4.76" rx="0.51" ry="0.51"/><rect class="cls-2" x="70.88" y="51.73" width="4.76" height="4.76" rx="0.51" ry="0.51"/><rect class="cls-2" x="57.4" y="45.39" width="4.76" height="4.76" rx="0.51" ry="0.51"/><rect class="cls-2" x="64.14" y="45.39" width="4.76" height="4.76" rx="0.51" ry="0.51"/><rect class="cls-6" x="70.88" y="45.39" width="4.76" height="4.76" rx="0.51" ry="0.51"/><rect class="cls-2" x="77.62" y="45.39" width="4.76" height="4.76" rx="0.51" ry="0.51"/><polygon class="cls-7" points="53.41 155.74 48.41 154.05 44.94 158.01 40.77 142.47 49.25 140.2 53.41 155.74"/><polygon class="cls-7" points="27.61 155.74 32.6 154.05 36.08 158.01 40.25 142.47 31.77 140.2 27.61 155.74"/><circle class="cls-8" cx="40.51" cy="131.56" r="15.36"/><circle class="cls-8" cx="40.51" cy="131.56" r="13.16"/><rect class="cls-7" x="168.48" y="12.61" width="25.59" height="35.58" rx="1.56" ry="1.56"/><line class="cls-7" x1="180.96" y1="18.23" x2="190.95" y2="18.23"/><line class="cls-7" x1="180.96" y1="20.73" x2="190.95" y2="20.73"/><line class="cls-7" x1="180.96" y1="23.22" x2="190.95" y2="23.22"/><line class="cls-7" x1="170.98" y1="27.59" x2="180.96" y2="27.59"/><line class="cls-7" x1="170.98" y1="30.09" x2="180.96" y2="30.09"/><line class="cls-7" x1="170.98" y1="32.59" x2="180.96" y2="32.59"/><line class="cls-7" x1="180.96" y1="37.89" x2="190.95" y2="37.89"/><line class="cls-7" x1="180.96" y1="40.39" x2="190.95" y2="40.39"/><line class="cls-7" x1="180.96" y1="42.89" x2="190.95" y2="42.89"/><polyline class="cls-9" points="173.16 21.35 175.03 23.23 178.78 18.23"/><polyline class="cls-9" points="183.46 30.72 185.33 32.59 189.08 27.59"/><polyline class="cls-9" points="172.85 41.02 174.72 42.89 178.47 37.89"/><polyline class="cls-10" points="35.37 132.83 39.03 136.49 46.36 126.72"/><rect class="cls-8" x="198.61" y="171.52" width="28.59" height="39.75" rx="1.32" ry="1.32"/><line class="cls-2" x1="223.02" y1="191.74" x2="223.02" y2="204.99"/><line class="cls-2" x1="220.58" y1="194.7" x2="220.58" y2="204.99"/><line class="cls-2" x1="218.14" y1="194.35" x2="218.14" y2="204.99"/><line class="cls-2" x1="215.7" y1="196.1" x2="215.7" y2="204.99"/><line class="cls-2" x1="213.25" y1="196.79" x2="213.25" y2="204.99"/><line class="cls-11" x1="201.58" y1="177.1" x2="217.61" y2="177.1"/><line class="cls-11" x1="218.83" y1="177.1" x2="224.24" y2="177.1"/><line class="cls-11" x1="201.58" y1="185.11" x2="217.61" y2="185.11"/><line class="cls-11" x1="218.83" y1="185.11" x2="224.24" y2="185.11"/><line class="cls-11" x1="201.4" y1="179.89" x2="206.81" y2="179.89"/><line class="cls-11" x1="208.37" y1="179.89" x2="224.41" y2="179.89"/><line class="cls-11" x1="201.58" y1="182.67" x2="213.08" y2="182.67"/><line class="cls-11" x1="201.75" y1="187.56" x2="213.25" y2="187.56"/><line class="cls-11" x1="214.82" y1="182.67" x2="224.41" y2="182.67"/><path class="cls-12" d="M224.78,209.78a1.17,1.17,0,0,1-1-1.75l2.34-4.06a1.17,1.17,0,0,1,2,0l2.34,4.06a1.17,1.17,0,0,1-1,1.75Z"/><path class="cls-13" d="M226.65,203.65l-2.9,5a.55.55,0,0,0,.48.82H230a.55.55,0,0,0,.48-.82l-2.9-5A.55.55,0,0,0,226.65,203.65Z"/><g class="cls-14"><path class="cls-15" d="M226.92,208.62a.2.2,0,0,1,.05-.14.19.19,0,0,1,.15-.06.2.2,0,0,1,.15.06.2.2,0,0,1,.06.14.19.19,0,0,1-.06.14.2.2,0,0,1-.15.06.2.2,0,0,1-.15-.06A.19.19,0,0,1,226.92,208.62Zm.32-.83H227v-2.6h.31Z"/></g><circle class="cls-11" cx="205.76" cy="200.28" r="4.53"/><path class="cls-11" d="M210.29,200.28a4.53,4.53,0,1,1-4.53-4.53v4.65a.05.05,0,0,0,.05.05Z"/><path class="cls-11" d="M209.2,203.23a4.53,4.53,0,1,1-.5-6.39l-2.86,3.34a.29.29,0,0,0,0,.42Z"/><circle class="cls-1" cx="213.25" cy="194.88" r="0.52"/><circle class="cls-1" cx="215.7" cy="193.83" r="0.52" transform="translate(-73.88 209.29) rotate(-45)"/><circle class="cls-1" cx="218.14" cy="191.74" r="0.52" transform="translate(-71.69 210.4) rotate(-45)"/><circle class="cls-1" cx="220.58" cy="192.79" r="0.52" transform="translate(-71.71 212.44) rotate(-45)"/><circle class="cls-1" cx="223.02" cy="189.65" r="0.52" transform="translate(-68.78 213.24) rotate(-45)"/><polyline class="cls-2" points="213.25 194.88 215.69 193.83 218.14 191.74 220.58 192.78 222.84 189.82"/><circle class="cls-16" cx="197.11" cy="181.03" r="3.26"/><circle class="cls-17" cx="197.11" cy="181.03" r="2.96"/><path class="cls-18" d="M195.89,181.43l.79,1.12a.17.17,0,0,0,.3,0l1.36-3.07"/><path class="cls-19" d="M223.68,104.67l1.36,6.22a4.31,4.31,0,0,0,4.21,3.39l26.61,0a4,4,0,0,0,3.86-3l1.64-6.79"/><path class="cls-19" d="M223.73,103l3.53-14.61a4.23,4.23,0,0,1,4.11-3.23h22.44a4.22,4.22,0,0,1,4.12,3.29l3.31,14.67a3.86,3.86,0,0,1-3.74,4.71l-29.86.13A4,4,0,0,1,223.73,103Z"/><polyline class="cls-19" points="231.97 104.99 234.49 104.99 237 104.99"/><line class="cls-19" x1="234.43" y1="104.43" x2="234.43" y2="104.82"/><rect class="cls-19" x="233.8" y="103.53" width="1.34" height="0.9" rx="0.15" ry="0.15"/><rect class="cls-19" x="232.39" y="105.63" width="1.34" height="0.9" rx="0.11" ry="0.11"/><rect class="cls-19" x="235.07" y="105.63" width="1.34" height="0.9" rx="0.18" ry="0.18"/><line class="cls-19" x1="233.06" y1="105.63" x2="233.06" y2="105.13"/><line class="cls-19" x1="235.74" y1="105.63" x2="235.74" y2="105.13"/><path class="cls-20" d="M249.62,104.53a1.08,1.08,0,0,0,.94,1.26v.71a.27.27,0,0,0,.22.27.27.27,0,0,0,.29-.27c0-.23,0-.5,0-.72a1.13,1.13,0,0,0,.9-1.31h-.48v-.67a.17.17,0,0,0-.35,0v.66h-.67v-.66a.18.18,0,0,0-.36,0c0,.2,0,.46,0,.66h-.47Z"/><polygon class="cls-19" points="231.6 114.28 230.84 110.08 238.11 110.08 238.45 114.28 231.6 114.28"/><polygon class="cls-20" points="232.14 110.81 232.5 113.1 237.23 113.1 237 110.81 232.14 110.81"/><polyline class="cls-19" points="251.79 114.1 252.47 108.89 248.73 108.89 248.24 114.26"/><path class="cls-20" d="M249.09,109.35H252s0,0,0,0l-.55.48H249.5l-.42-.48S249.07,109.35,249.09,109.35Z"/><line class="cls-21" x1="93.44" y1="197.65" x2="93.29" y2="201.92"/><path class="cls-19" d="M131.18,203.31v5.27a2.44,2.44,0,0,1-1.16,2l-15.74,9.83a8.61,8.61,0,0,1-9,.09L90,211.29a2.43,2.43,0,0,1-1.2-2.19h0V201l13.61-.17L104,200h11.92l1.35.6Z"/><path class="cls-19" d="M131.18,208.33v.25a2.44,2.44,0,0,1-1.16,2l-15.74,9.83a8.61,8.61,0,0,1-9,.09L90,211.29a2.43,2.43,0,0,1-1.2-2.19"/><polyline class="cls-19" points="88.78 209.1 88.77 209.1 88.77 200.98 102.39 200.81 117.23 200.63 131.18 200.92 131.18 208.58"/><line class="cls-22" x1="109.64" y1="213.62" x2="109.64" y2="221.44"/><path class="cls-19" d="M90.15,198.67l15.79-7.91a8.59,8.59,0,0,1,7.34-.17l16.44,8.33a2.48,2.48,0,0,1,.31,4.38l-15.74,8.81a8.59,8.59,0,0,1-9,.09L90,203A2.48,2.48,0,0,1,90.15,198.67Z"/><path class="cls-20" d="M106.91,215.36a14.76,14.76,0,0,0,5.56,0v3.71a14.07,14.07,0,0,1-5.56,0Z"/><path class="cls-23" d="M106.65,214.8a12.62,12.62,0,0,0,6,0v4.95s-3.61.93-6,0Z"/><polyline class="cls-23" points="123.7 214.64 123.65 208.1 121.26 209.32 121.5 215.82"/><polygon class="cls-20" points="121.67 209.68 123.3 208.81 123.25 209.39 121.91 210.08 121.67 209.68"/><circle class="cls-20" cx="120.44" cy="206.77" r="0.28" transform="translate(-87.25 87.92) rotate(-30)"/><circle class="cls-20" cx="121.62" cy="206.24" r="0.28" transform="translate(-72.86 66.58) rotate(-23.79)"/><circle class="cls-20" cx="122.76" cy="205.74" r="0.28" transform="translate(-72.56 67) rotate(-23.79)"/><circle class="cls-20" cx="101.15" cy="195.28" r="0.28" transform="translate(-106.2 122) rotate(-43.15)"/><circle class="cls-20" cx="99.08" cy="206.24" r="0.28" transform="translate(-114.26 123.54) rotate(-43.15)"/><circle class="cls-20" cx="102.3" cy="194.78" r="0.28" transform="translate(-69.88 57.81) rotate(-23.79)"/><polyline class="cls-23" points="95.74 214.87 95.79 208.33 98.18 209.55 97.95 216.04"/><polygon class="cls-20" points="97.77 209.9 96.15 209.03 96.2 209.61 97.54 210.31 97.77 209.9"/></svg>