<svg id="Layer_1" data-name="Layer 1" xmlns="http://www.w3.org/2000/svg" xmlns:xlink="http://www.w3.org/1999/xlink" viewBox="0 0 1726 621"><defs><style>.cls-1,.cls-10,.cls-11,.cls-2,.cls-20,.cls-25,.cls-26,.cls-35,.cls-36,.cls-8,.cls-9{fill:#fff;}.cls-1,.cls-10,.cls-12,.cls-35,.cls-36,.cls-4,.cls-9{stroke:#02c0d7;}.cls-1,.cls-10,.cls-12,.cls-20,.cls-21,.cls-22,.cls-23,.cls-26,.cls-27,.cls-28,.cls-29,.cls-30,.cls-31,.cls-35,.cls-36,.cls-4,.cls-8,.cls-9{stroke-miterlimit:10;}.cls-2{opacity:0.19;}.cls-17,.cls-18,.cls-19,.cls-3,.cls-5,.cls-6,.cls-7{opacity:0.8;}.cls-3{fill:url(#linear-gradient);}.cls-12,.cls-21,.cls-27,.cls-28,.cls-4{fill:none;}.cls-4{stroke-width:2px;}.cls-5{fill:url(#linear-gradient-2);}.cls-6{fill:url(#linear-gradient-3);}.cls-7{fill:url(#linear-gradient-4);}.cls-20,.cls-21,.cls-23,.cls-26,.cls-28,.cls-30,.cls-31,.cls-8{stroke:#2dbad1;}.cls-12,.cls-9{stroke-width:1.66px;}.cls-10{stroke-width:1.36px;}.cls-11,.cls-12{opacity:0.49;}.cls-13{fill:#4cb975;}.cls-14{fill:#f5f7f8;}.cls-15{fill:#f16550;}.cls-16{fill:#ffc04f;}.cls-17{fill:url(#linear-gradient-5);}.cls-18{fill:url(#linear-gradient-6);}.cls-19{fill:url(#linear-gradient-7);}.cls-20,.cls-21,.cls-22,.cls-23{stroke-width:1.35px;}.cls-22,.cls-29{fill:#6b6c6f;stroke:#e8e8e8;opacity:0.4;}.cls-23,.cls-30{fill:#50b574;}.cls-24{fill:#4aa66b;}.cls-26,.cls-27,.cls-28,.cls-29,.cls-30,.cls-31{stroke-width:1.14px;}.cls-27{stroke:#6b6c6f;opacity:0.1;}.cls-31{fill:#949595;}.cls-32{fill:#62656d;}.cls-33{fill:#95989c;}.cls-34{fill:#cfd3d8;}.cls-35{stroke-width:1.67px;}.cls-36{stroke-width:0.83px;}.cls-37{fill:#d7d7db;}</style><linearGradient id="linear-gradient" x1="7.99" y1="440.57" x2="1635.86" y2="385.7" gradientUnits="userSpaceOnUse"><stop offset="0" stop-color="#dbeff6"/><stop offset="1" stop-color="#2dbad1"/></linearGradient><linearGradient id="linear-gradient-2" x1="111.52" y1="427.75" x2="1739.4" y2="372.87" xlink:href="#linear-gradient"/><linearGradient id="linear-gradient-3" x1="111.06" y1="414.2" x2="1738.94" y2="359.33" xlink:href="#linear-gradient"/><linearGradient id="linear-gradient-4" x1="110.71" y1="403.62" x2="1738.58" y2="348.74" xlink:href="#linear-gradient"/><linearGradient id="linear-gradient-5" x1="103.3" y1="183.73" x2="1731.17" y2="128.86" xlink:href="#linear-gradient"/><linearGradient id="linear-gradient-6" x1="110.03" y1="383.36" x2="1737.9" y2="328.49" xlink:href="#linear-gradient"/><linearGradient id="linear-gradient-7" x1="358.71" y1="135.25" x2="1986.58" y2="80.37" xlink:href="#linear-gradient"/></defs><title>Artboard 59</title><circle class="cls-1" cx="1494.5" cy="390.5" r="138.5"/><circle class="cls-2" cx="1494.5" cy="390.5" r="138.5"/><circle class="cls-3" cx="1493.5" cy="390.5" r="138.5"/><circle class="cls-4" cx="1494.5" cy="390.5" r="138.5"/><circle class="cls-4" cx="1127.5" cy="393.5" r="138.5"/><circle class="cls-4" cx="784.5" cy="391.5" r="138.5"/><circle class="cls-4" cx="440.5" cy="392.5" r="138.5"/><circle class="cls-4" cx="258.5" cy="178.5" r="70.5"/><circle class="cls-4" cx="135.5" cy="382.5" r="70.5"/><circle class="cls-4" cx="499.5" cy="130.5" r="70.5"/><circle class="cls-4" cx="1494.5" cy="390.5" r="138.5"/><circle class="cls-4" cx="1127.5" cy="393.5" r="138.5"/><circle class="cls-4" cx="784.5" cy="391.5" r="138.5"/><circle class="cls-4" cx="440.5" cy="392.5" r="138.5"/><circle class="cls-4" cx="258.5" cy="178.5" r="70.5"/><circle class="cls-4" cx="135.5" cy="382.5" r="70.5"/><circle class="cls-4" cx="499.5" cy="130.5" r="70.5"/><path class="cls-1" d="M1513.77,446.24h80.82V335.85a5.25,5.25,0,0,0-5.36-5.14h-185.8a5.25,5.25,0,0,0-5.36,5.14V446.24h81"/><path class="cls-1" d="M1606.08,446.24h-92.3c-.13,1-1.36,1.72-2.85,1.72h-29c-1.49,0-2.72-.75-2.85-1.72H1386c-2.72,0-4.92,1.45-4.92,3.25v3.58c0,1.79,2.2,3.25,4.92,3.25h220.09c2.72,0,4.92-1.45,4.92-3.25v-3.58C1611,447.69,1608.8,446.24,1606.08,446.24Z"/><path class="cls-1" d="M1381.06,452.18v1c0,1.72,2.11,3.11,4.72,3.11h220.51c2.6,0,4.72-1.39,4.72-3.11v-1Z"/><circle class="cls-2" cx="1127.5" cy="393.5" r="138.5"/><circle class="cls-5" cx="1127.5" cy="393.5" r="138.5"/><circle class="cls-4" cx="1127.5" cy="393.5" r="138.5"/><circle class="cls-2" cx="784.5" cy="391.5" r="138.5"/><circle class="cls-6" cx="784.5" cy="391.5" r="138.5"/><circle class="cls-4" cx="784.5" cy="391.5" r="138.5"/><circle class="cls-2" cx="440.5" cy="392.5" r="138.5"/><circle class="cls-7" cx="440.5" cy="392.5" r="138.5"/><circle class="cls-4" cx="440.5" cy="392.5" r="138.5"/><rect class="cls-8" x="361.15" y="329" width="77.27" height="136.5" rx="4.03" ry="4.03"/><rect class="cls-8" x="461.27" y="399.06" width="64.69" height="51.48" rx="4.03" ry="4.03"/><rect class="cls-8" x="403.64" y="356.04" width="24.47" height="10.3" rx="0.9" ry="0.9"/><rect class="cls-8" x="371.45" y="354.75" width="24.47" height="14.17" rx="1.05" ry="1.05"/><rect class="cls-8" x="376.6" y="359.9" width="14.17" height="3.86" rx="0.35" ry="0.35"/><rect class="cls-8" x="379.18" y="357.33" width="3.86" height="9.01" rx="1.2" ry="1.2"/><rect class="cls-8" x="403.64" y="372.78" width="24.47" height="10.3" rx="0.9" ry="0.9"/><rect class="cls-8" x="371.45" y="371.49" width="24.47" height="14.17" rx="1.05" ry="1.05"/><rect class="cls-8" x="376.6" y="376.64" width="14.17" height="3.86" rx="0.35" ry="0.35"/><rect class="cls-8" x="379.18" y="374.07" width="3.86" height="9.01" rx="1.2" ry="1.2"/><rect class="cls-8" x="403.64" y="389.52" width="24.47" height="10.3" rx="0.9" ry="0.9"/><rect class="cls-8" x="371.45" y="388.23" width="24.47" height="14.17" rx="1.05" ry="1.05"/><rect class="cls-8" x="376.6" y="393.38" width="14.17" height="3.86" rx="0.35" ry="0.35"/><rect class="cls-8" x="379.18" y="390.81" width="3.86" height="9.01" rx="1.2" ry="1.2"/><rect class="cls-8" x="403.64" y="406.26" width="24.47" height="10.3" rx="0.9" ry="0.9"/><rect class="cls-8" x="371.45" y="404.97" width="24.47" height="14.17" rx="1.05" ry="1.05"/><rect class="cls-8" x="376.6" y="410.13" width="14.17" height="3.86" rx="0.35" ry="0.35"/><rect class="cls-8" x="385.13" y="407.55" width="3.86" height="9.01" rx="1.2" ry="1.2"/><rect class="cls-8" x="403.64" y="423" width="24.47" height="10.3" rx="0.9" ry="0.9"/><rect class="cls-8" x="371.45" y="421.71" width="24.47" height="14.17" rx="1.05" ry="1.05"/><rect class="cls-8" x="376.6" y="426.87" width="14.17" height="3.86" rx="0.35" ry="0.35"/><rect class="cls-8" x="379.18" y="424.29" width="3.86" height="9.01" rx="1.2" ry="1.2"/><rect class="cls-8" x="403.64" y="439.74" width="24.47" height="10.3" rx="0.9" ry="0.9"/><rect class="cls-8" x="371.45" y="438.46" width="24.47" height="14.17" rx="1.05" ry="1.05"/><rect class="cls-8" x="376.6" y="443.61" width="14.17" height="3.86" rx="0.35" ry="0.35"/><rect class="cls-8" x="385.13" y="441.03" width="3.86" height="9.01" rx="1.2" ry="1.2"/><circle class="cls-8" cx="366.3" cy="335.44" r="1.29"/><circle class="cls-8" cx="433.26" cy="335.44" r="1.29"/><circle class="cls-8" cx="476.04" cy="365.92" r="1.08"/><circle class="cls-8" cx="511.11" cy="365.92" r="1.08"/><circle class="cls-8" cx="476.04" cy="383.54" r="1.08"/><circle class="cls-8" cx="511.11" cy="383.54" r="1.08"/><circle class="cls-8" cx="366.3" cy="460.35" r="1.29"/><circle class="cls-8" cx="433.26" cy="460.35" r="1.29"/><path class="cls-8" d="M397.62,336.91l-1.45,7.25a.12.12,0,0,0,.15.14l3.14-.9a.12.12,0,0,1,.15.14l-1.31,6.56a.12.12,0,0,0,.23.08L404,340.1a.12.12,0,0,0-.14-.17l-4,1.33a.12.12,0,0,1-.15-.15L401.1,337a.12.12,0,0,0-.12-.16h-3.25A.12.12,0,0,0,397.62,336.91Z"/><path class="cls-8" d="M508.31,343.4a14.9,14.9,0,1,1-14.9-14.9A14.79,14.79,0,0,1,508.31,343.4Z"/><rect class="cls-8" x="515.08" y="368.47" width="18.29" height="11.52"/><rect class="cls-8" x="453.44" y="367.79" width="18.29" height="11.52"/><rect class="cls-8" x="448.02" y="366.44" width="5.42" height="13.55" rx="0.61" ry="0.61"/><rect class="cls-8" x="533.37" y="367.11" width="5.42" height="13.55" rx="0.61" ry="0.61"/><path class="cls-8" d="M515.08,365.18v18.1a3.48,3.48,0,0,1-3.48,3.48h-9.39v2.12a.59.59,0,0,1-.59.59H483.83a.59.59,0,0,1-.59-.59v-2.12h-8a3.48,3.48,0,0,1-3.48-3.48v-18.1a3.48,3.48,0,0,1,3.48-3.48h8v-2.12a.59.59,0,0,1,.59-.59h17.79a.59.59,0,0,1,.59.59v2.12h9.39A3.48,3.48,0,0,1,515.08,365.18Z"/><path class="cls-8" d="M506.68,350.18a14.91,14.91,0,0,1-26.56,0Z"/><path class="cls-8" d="M497.63,335.42l-6,7.06h0a1.82,1.82,0,1,0,3.21,1.6l3-8.56A.1.1,0,0,0,497.63,335.42Z"/><path class="cls-8" d="M496.46,376.68a2.83,2.83,0,1,1-5.66,0c0-1.56,2.83-7.78,2.83-7.78S496.46,375.12,496.46,376.68Z"/><rect class="cls-8" x="472.11" y="407.87" width="44.03" height="6.77" rx="1.16" ry="1.16"/><line class="cls-8" x1="477.53" y1="407.87" x2="477.53" y2="414.64"/><line class="cls-8" x1="482.95" y1="408.21" x2="482.95" y2="414.98"/><line class="cls-8" x1="488.37" y1="408.21" x2="488.37" y2="414.98"/><line class="cls-8" x1="493.79" y1="408.21" x2="493.79" y2="414.98"/><line class="cls-8" x1="499.21" y1="408.21" x2="499.21" y2="414.98"/><line class="cls-8" x1="504.62" y1="408.21" x2="504.62" y2="414.98"/><line class="cls-8" x1="510.72" y1="408.21" x2="510.72" y2="414.98"/><line class="cls-8" x1="467.37" y1="424.81" x2="520.88" y2="424.81"/><rect class="cls-8" x="472.11" y="450.55" width="44.03" height="4.06" rx="1.07" ry="1.07"/><rect class="cls-8" x="475.5" y="454.61" width="3.39" height="12.53"/><rect class="cls-8" x="492.43" y="454.61" width="3.39" height="12.53"/><rect class="cls-8" x="509.37" y="454.61" width="3.39" height="12.53"/><path class="cls-8" d="M491.8,431l-1.21,6.07a.1.1,0,0,0,.13.12l2.63-.75a.1.1,0,0,1,.13.12l-1.1,5.5a.1.1,0,0,0,.19.07l4.61-8.45a.1.1,0,0,0-.12-.15l-3.35,1.12a.1.1,0,0,1-.13-.13l1.15-3.46a.1.1,0,0,0-.1-.13H491.9A.1.1,0,0,0,491.8,431Z"/><path class="cls-9" d="M1157.13,400.24a14.82,14.82,0,0,0-6.8.57,1,1,0,0,1-1.22-1.38,14.11,14.11,0,0,0-18.68-18.86,34.2,34.2,0,0,0-64.54,22.61,11.82,11.82,0,0,0-13.53,12.56,12.17,12.17,0,0,0,12.28,11.1h88.81c8.74,0,17.21-4.57,16.27-13.51A14.94,14.94,0,0,0,1157.13,400.24Z"/><path class="cls-9" d="M1111.59,395.35l-.19-2.79a.93.93,0,0,0-1-.86L1106,392a11.2,11.2,0,0,0-1.67-3.55l3-3.41a.93.93,0,0,0-.09-1.31l-2.11-1.84a.93.93,0,0,0-1.31.09l-2.88,3.29a11.24,11.24,0,0,0-4.26-1.52l-.29-4.32a.93.93,0,0,0-1-.86l-2.79.19a.93.93,0,0,0-.86,1l.29,4.32a11.22,11.22,0,0,0-4.17,2.2l-3.41-3a.93.93,0,0,0-1.31.09l-1.84,2.11a.93.93,0,0,0,.09,1.31l3.58,3.14a11.2,11.2,0,0,0-1.07,3.44l-4.68.31a.93.93,0,0,0-.86,1l.19,2.79a.93.93,0,0,0,1,.86l4.68-.31a11.23,11.23,0,0,0,1.63,3.42l-3.23,3.69a.93.93,0,0,0,.09,1.31l2.11,1.84a.93.93,0,0,0,1.31-.09l3.12-3.57a11.22,11.22,0,0,0,4,1.49l.28,4.21a.93.93,0,0,0,1,.86l2.79-.19a.93.93,0,0,0,.86-1l-.27-4.12a11.24,11.24,0,0,0,4.09-2l3.45,3a.93.93,0,0,0,1.31-.09l1.84-2.11a.93.93,0,0,0-.09-1.31l-3.51-3.07a11.23,11.23,0,0,0,1.23-3.64l4.45-.3A.93.93,0,0,0,1111.59,395.35Zm-14.92,5.33a6,6,0,1,1,4.37-5A6,6,0,0,1,1096.66,400.68Z"/><path class="cls-10" d="M1134.81,406.56l.39-1.78a.6.6,0,0,0-.46-.72l-2.79-.62a7.28,7.28,0,0,0-.39-2.52l2.48-1.58a.6.6,0,0,0,.18-.83l-1-1.53a.6.6,0,0,0-.83-.18l-2.4,1.53a7.31,7.31,0,0,0-2.38-1.73l.61-2.75a.6.6,0,0,0-.46-.72l-1.78-.39a.6.6,0,0,0-.72.46l-.61,2.75a7.3,7.3,0,0,0-3,.62l-1.59-2.48a.6.6,0,0,0-.83-.18l-1.53,1a.6.6,0,0,0-.18.83l1.67,2.61a7.29,7.29,0,0,0-1.3,2l-3-.66a.6.6,0,0,0-.72.46l-.39,1.78a.6.6,0,0,0,.46.72l3,.66a7.31,7.31,0,0,0,.39,2.43l-2.69,1.72a.6.6,0,0,0-.18.83l1,1.53a.6.6,0,0,0,.83.18l2.6-1.66a7.3,7.3,0,0,0,2.26,1.67l-.59,2.68a.6.6,0,0,0,.46.72l1.78.39a.6.6,0,0,0,.72-.46l.58-2.63a7.32,7.32,0,0,0,2.92-.51l1.6,2.51a.6.6,0,0,0,.83.18l1.53-1a.6.6,0,0,0,.18-.83l-1.63-2.56a7.3,7.3,0,0,0,1.43-2.05l2.83.63A.6.6,0,0,0,1134.81,406.56Zm-10.28,0a3.3,3.3,0,1,1,3.09-2A3.3,3.3,0,0,1,1124.53,406.57Z"/><path class="cls-11" d="M1164,397h35.57c7.19,0,14.16-3.76,13.38-11.11a12.22,12.22,0,0,0-15.95-10.3.82.82,0,0,1-1-1.14,11.61,11.61,0,0,0-15.36-15.51A28.14,28.14,0,0,0,1127,362c2.93.49,7,1.66,9,5,1.57,2.57.53,4.14,2,6,3.26,4.13,10.68-.68,15,3,3.94,3.35.28,9.48,5,16A16.61,16.61,0,0,0,1164,397Z"/><path class="cls-12" d="M1164,396.92h35.57c7.19,0,14.16-3.76,13.38-11.11a12.22,12.22,0,0,0-15.95-10.3.82.82,0,0,1-1-1.14,11.61,11.61,0,0,0-15.36-15.51A28.14,28.14,0,0,0,1127,362"/><rect class="cls-1" x="1407.09" y="338.88" width="176.4" height="99.65"/><rect class="cls-1" x="1362.62" y="289.37" width="109" height="152.75" rx="5" ry="5" transform="translate(1051.37 1782.87) rotate(-90)"/><rect class="cls-13" x="1353.5" y="323.5" width="6" height="9.89" rx="1.01" ry="1.01"/><rect class="cls-14" x="1361.5" y="323.5" width="25" height="9.89" rx="1.01" ry="1.01"/><rect class="cls-13" x="1353.5" y="335.04" width="6" height="9.89" rx="1.01" ry="1.01"/><rect class="cls-14" x="1361.5" y="335.04" width="25" height="9.89" rx="1.01" ry="1.01"/><rect class="cls-13" x="1353.5" y="346.57" width="6" height="9.89" rx="1.01" ry="1.01"/><rect class="cls-14" x="1361.5" y="346.57" width="25" height="9.89" rx="1.01" ry="1.01"/><rect class="cls-15" x="1353.5" y="358.11" width="6" height="9.89" rx="1.01" ry="1.01"/><rect class="cls-14" x="1361.5" y="358.11" width="25" height="9.89" rx="1.01" ry="1.01"/><rect class="cls-13" x="1353.5" y="370.11" width="6" height="9.89" rx="1.01" ry="1.01"/><rect class="cls-14" x="1361.5" y="370.11" width="25" height="9.89" rx="1.01" ry="1.01"/><rect class="cls-13" x="1428.5" y="370.11" width="6" height="9.89" rx="1.01" ry="1.01"/><rect class="cls-14" x="1436.5" y="370.11" width="25" height="9.89" rx="1.01" ry="1.01"/><rect class="cls-13" x="1428.5" y="382.11" width="6" height="9.89" rx="1.01" ry="1.01"/><rect class="cls-14" x="1436.5" y="382.11" width="25" height="9.89" rx="1.01" ry="1.01"/><rect class="cls-13" x="1391.5" y="323.57" width="6" height="9.89" rx="1.01" ry="1.01"/><rect class="cls-14" x="1399.5" y="323.57" width="25" height="9.89" rx="1.01" ry="1.01"/><rect class="cls-13" x="1391.5" y="335.11" width="6" height="9.89" rx="1.01" ry="1.01"/><rect class="cls-14" x="1399.5" y="335.11" width="25" height="9.89" rx="1.01" ry="1.01"/><rect class="cls-16" x="1391.5" y="347.11" width="6" height="9.89" rx="1.01" ry="1.01"/><rect class="cls-14" x="1399.5" y="347.11" width="25" height="9.89" rx="1.01" ry="1.01"/><rect class="cls-16" x="1353.5" y="396.11" width="6" height="9.89" rx="1.01" ry="1.01"/><rect class="cls-14" x="1361.5" y="396.11" width="25" height="9.89" rx="1.01" ry="1.01"/><rect class="cls-15" x="1391.5" y="370.11" width="6" height="9.89" rx="1.01" ry="1.01"/><rect class="cls-14" x="1399.5" y="370.11" width="25" height="9.89" rx="1.01" ry="1.01"/><rect class="cls-15" x="1391.5" y="382.11" width="6" height="9.89" rx="1.01" ry="1.01"/><rect class="cls-14" x="1399.5" y="382.11" width="25" height="9.89" rx="1.01" ry="1.01"/><circle class="cls-2" cx="258.5" cy="178.5" r="70.5"/><circle class="cls-17" cx="258.5" cy="178.5" r="70.5"/><circle class="cls-4" cx="258.5" cy="178.5" r="70.5"/><circle class="cls-2" cx="135.5" cy="382.5" r="70.5"/><circle class="cls-18" cx="135.5" cy="382.5" r="70.5"/><circle class="cls-4" cx="135.5" cy="382.5" r="70.5"/><circle class="cls-2" cx="499.5" cy="130.5" r="70.5"/><circle class="cls-19" cx="499.5" cy="130.5" r="70.5"/><circle class="cls-4" cx="499.5" cy="130.5" r="70.5"/><path class="cls-20" d="M537.53,122.82v14.61a4.39,4.39,0,0,1-2.1,3.55l-28.31,17.68a15.48,15.48,0,0,1-16.12.16l-27.58-16.5a4.37,4.37,0,0,1-2.16-3.94h0V123.76l24.49-.3,2.83-1.41H510l2.44,1.09Z"/><path class="cls-21" d="M537.53,137v.45a4.39,4.39,0,0,1-2.1,3.55l-28.31,17.68a15.48,15.48,0,0,1-16.12.16l-27.58-16.5a4.37,4.37,0,0,1-2.16-3.94"/><polyline class="cls-21" points="461.27 138.37 461.26 138.37 461.26 123.76 485.75 123.46 512.45 123.13 537.53 122.82 537.53 137.43"/><line class="cls-22" x1="498.79" y1="146.38" x2="498.79" y2="161"/><path class="cls-20" d="M463.73,119.62l28.39-14.22a15.46,15.46,0,0,1,13.2-.3l29.57,13.14a4.47,4.47,0,0,1,.55,7.87l-28.3,17.67a15.46,15.46,0,0,1-16.12.16l-27.58-16.49A4.47,4.47,0,0,1,463.73,119.62Z"/><path class="cls-23" d="M496.42,132.27l4.52-3.2a.12.12,0,0,0,0-.21l-15.63-8.34-4.47,2.87a.12.12,0,0,0,0,.21Z"/><path class="cls-24" d="M492.59,126.31c0,1.13-1.72,1.53-2.93,1.16-.74-.22-1.16-.71-1.16-1.16s.42-.94,1.16-1.16C490.87,124.78,492.59,125.18,492.59,126.31Z"/><path class="cls-24" d="M498,129.25c0,1.13-1.72,1.53-2.93,1.16-.74-.22-1.16-.71-1.16-1.16s.42-.94,1.16-1.16C496.26,127.72,498,128.12,498,129.25Z"/><path class="cls-24" d="M487.67,123.5c0,1.13-1.72,1.53-2.93,1.16-.74-.22-1.16-.71-1.16-1.16s.42-.94,1.16-1.16C486,122,487.67,122.37,487.67,123.5Z"/><polygon class="cls-20" points="480.09 128.4 473.4 133.41 488.5 142.43 496.95 134.91 480.09 128.4"/><polygon class="cls-20" points="516.93 122.42 528.12 115.23 514.98 109.93 516.93 122.42"/><path class="cls-23" d="M501.16,115.61l2.39-6.86a.12.12,0,0,1,.16-.07l14.73,7.1-2.24,7.46a.22.22,0,0,1-.31.13l-14.63-7.5A.22.22,0,0,1,501.16,115.61Z"/><path class="cls-23" d="M522.45,113.58l-4,2.21-14.74-7.11a.06.06,0,0,1,0-.11l3.9-2.26Z"/><path class="cls-23" d="M516.4,123.32l4.88-3.16a.12.12,0,0,0,.05-.08l1.07-6.26a.12.12,0,0,0-.18-.12l-3.74,2.07a.12.12,0,0,0-.06.07l-2.21,7.35A.12.12,0,0,0,516.4,123.32Z"/><path class="cls-24" d="M509.77,108.63c0,1.13-1.72,1.53-2.93,1.16-.74-.22-1.16-.71-1.16-1.16s.42-.94,1.16-1.16C508,107.1,509.77,107.5,509.77,108.63Z"/><path class="cls-24" d="M515.07,111.05c0,1.13-1.72,1.53-2.93,1.16-.74-.22-1.16-.71-1.16-1.16s.42-.94,1.16-1.16C513.35,109.53,515.07,109.92,515.07,111.05Z"/><path class="cls-24" d="M520.06,113.58c0,1.13-1.72,1.53-2.93,1.16-.74-.22-1.16-.71-1.16-1.16s.42-.94,1.16-1.16C518.33,112.05,520.06,112.45,520.06,113.58Z"/><path class="cls-23" d="M495.58,136.78l.84-4.51-15.58-8.66a.15.15,0,0,0-.22.11l-.53,4.68,15.28,8.49A.15.15,0,0,0,495.58,136.78Z"/><path class="cls-23" d="M501.3,129.52l-.2,3.23-5.75,3.79a.12.12,0,0,1-.2-.12l1.25-4.06.12-.16,4.6-2.79A.12.12,0,0,1,501.3,129.52Z"/><path class="cls-20" d="M296.53,169.82v14.61a4.39,4.39,0,0,1-2.1,3.55l-28.31,17.68a15.48,15.48,0,0,1-16.12.16l-27.58-16.5a4.37,4.37,0,0,1-2.16-3.94h0V170.76l24.49-.3,2.83-1.41H269l2.44,1.09Z"/><path class="cls-21" d="M296.53,184v.45a4.39,4.39,0,0,1-2.1,3.55l-28.31,17.68a15.48,15.48,0,0,1-16.12.16l-27.58-16.5a4.37,4.37,0,0,1-2.16-3.94"/><polyline class="cls-21" points="220.27 185.37 220.26 185.37 220.26 170.76 244.75 170.46 271.44 170.13 296.53 169.82 296.53 184.43"/><line class="cls-22" x1="257.79" y1="193.38" x2="257.79" y2="208"/><path class="cls-20" d="M222.73,166.62l28.39-14.22a15.46,15.46,0,0,1,13.2-.3l29.57,13.14a4.47,4.47,0,0,1,.55,7.87l-28.3,17.67a15.46,15.46,0,0,1-16.12.16l-27.58-16.49A4.47,4.47,0,0,1,222.73,166.62Z"/><path class="cls-23" d="M255.42,179.27l4.52-3.2a.12.12,0,0,0,0-.21l-15.63-8.34-4.47,2.87a.12.12,0,0,0,0,.21Z"/><path class="cls-24" d="M251.59,173.31c0,1.13-1.72,1.53-2.93,1.16-.74-.22-1.16-.71-1.16-1.16s.42-.94,1.16-1.16C249.87,171.78,251.59,172.18,251.59,173.31Z"/><path class="cls-24" d="M257,176.25c0,1.13-1.72,1.53-2.93,1.16-.74-.22-1.16-.71-1.16-1.16s.42-.94,1.16-1.16C255.26,174.72,257,175.12,257,176.25Z"/><path class="cls-24" d="M246.67,170.5c0,1.13-1.72,1.53-2.93,1.16-.74-.22-1.16-.71-1.16-1.16s.42-.94,1.16-1.16C245,169,246.67,169.37,246.67,170.5Z"/><polygon class="cls-20" points="239.09 175.4 232.4 180.41 247.5 189.43 255.95 181.91 239.09 175.4"/><polygon class="cls-20" points="275.93 169.42 287.12 162.23 273.98 156.93 275.93 169.42"/><path class="cls-23" d="M260.16,162.61l2.39-6.86a.12.12,0,0,1,.16-.07l14.73,7.1-2.24,7.46a.22.22,0,0,1-.31.13l-14.63-7.5A.22.22,0,0,1,260.16,162.61Z"/><path class="cls-23" d="M281.45,160.58l-4,2.21-14.74-7.11a.06.06,0,0,1,0-.11l3.9-2.26Z"/><path class="cls-23" d="M275.4,170.32l4.88-3.16a.12.12,0,0,0,.05-.08l1.07-6.26a.12.12,0,0,0-.18-.12l-3.74,2.07a.12.12,0,0,0-.06.07l-2.21,7.35A.12.12,0,0,0,275.4,170.32Z"/><path class="cls-24" d="M268.77,155.63c0,1.13-1.72,1.53-2.93,1.16-.74-.22-1.16-.71-1.16-1.16s.42-.94,1.16-1.16C267,154.1,268.77,154.5,268.77,155.63Z"/><path class="cls-24" d="M274.07,158.05c0,1.13-1.72,1.53-2.93,1.16-.74-.22-1.16-.71-1.16-1.16s.42-.94,1.16-1.16C272.35,156.53,274.07,156.92,274.07,158.05Z"/><path class="cls-24" d="M279.06,160.58c0,1.13-1.72,1.53-2.93,1.16-.74-.22-1.16-.71-1.16-1.16s.42-.94,1.16-1.16C277.33,159.05,279.06,159.45,279.06,160.58Z"/><path class="cls-23" d="M254.58,183.78l.84-4.51-15.58-8.66a.15.15,0,0,0-.22.11l-.53,4.68,15.28,8.49A.15.15,0,0,0,254.58,183.78Z"/><path class="cls-23" d="M260.3,176.52l-.2,3.23-5.75,3.79a.12.12,0,0,1-.2-.12l1.25-4.06.12-.16,4.6-2.79A.12.12,0,0,1,260.3,176.52Z"/><path class="cls-20" d="M516,142.77l9.39-5.87,5.87,4.69a5,5,0,0,1,1.69,6.46,4.68,4.68,0,0,1-3.33,2,10.4,10.4,0,0,1-6.31-1.64Z"/><ellipse class="cls-20" cx="528.12" cy="145.26" rx="2.72" ry="1.63"/><polygon class="cls-25" points="76.59 403.02 97.3 417.59 94 424 75.39 411.98 76.59 403.02"/><path class="cls-26" d="M137.88,351.78l-.08,9.74a2.93,2.93,0,0,1-1.42,2.35l-19,11.63a10.32,10.32,0,0,1-10.74,0L88.38,364.37A2.91,2.91,0,0,1,87,361.73h0L87,352l16.32-.07,1.89-.93,14.29.12,1.62.74Z"/><line class="cls-27" x1="112.02" y1="363.49" x2="111.68" y2="373.22"/><path class="cls-26" d="M88.8,348l19.47-8.29a10.3,10.3,0,0,1,8.79.34l20.51,9.21c2.12,1.1.76,4.87-1.34,6l-19.56,7.48a10.3,10.3,0,0,1-10.73-.56l-17.67-9A3,3,0,0,1,88.8,348Z"/><path class="cls-26" d="M198,374.09v14.28a5.57,5.57,0,0,1-2.65,4.49l-35.86,22.39a19.61,19.61,0,0,1-20.42.2l-34.93-20.9a5.54,5.54,0,0,1-2.74-5h0V371.06l31-.38,3.58-1.79h27.15l3.08,1.38Z"/><path class="cls-28" d="M198,387.81v.56a5.57,5.57,0,0,1-2.65,4.49l-35.86,22.39a19.61,19.61,0,0,1-20.42.2l-34.93-20.9a5.54,5.54,0,0,1-2.74-5"/><polyline class="cls-28" points="101.41 389.57 101.39 389.57 101.39 371.06 132.4 370.68 166.22 370.27 197.99 374.09 197.99 381.42"/><line class="cls-29" x1="148.92" y1="399.86" x2="148.92" y2="417.67"/><line class="cls-26" x1="76.16" y1="401.85" x2="75.39" y2="411.98"/><polygon class="cls-25" points="134.1 406.98 133.45 416.36 129.4 417.59 127.61 413.4 127.42 411.1 134.1 406.98"/><path class="cls-26" d="M75.42,411a3.94,3.94,0,0,0,1.7,3.72L78.89,416a10.11,10.11,0,0,1,4-.76c6.32,0,10.31,5.12,11.28,11.11l4.67,3.17a11.13,11.13,0,0,0,12.38.31l21.07-12.59a4.45,4.45,0,0,0,1.61-3.71"/><path class="cls-26" d="M78.17,397.9l22.35-10.58a11.07,11.07,0,0,1,10.07.37l22,13.46c2.39,1.29,2.64,4.94.43,6.36l-21.07,12a11.11,11.11,0,0,1-12.38-.3L77.88,404.5A3.85,3.85,0,0,1,78.17,397.9Z"/><line class="cls-26" x1="134.52" y1="404.38" x2="133.76" y2="414.87"/><path class="cls-28" d="M93.52,423.81l-13.22-8.3a6.61,6.61,0,0,1,2.9-.28C88.93,415.45,91.87,419,93.52,423.81Z"/><path class="cls-30" d="M111.51,356.61l2.75-2a.08.08,0,0,0,0-.13l-9.73-5-2.72,1.82a.08.08,0,0,0,0,.13Z"/><path class="cls-30" d="M111,359.41l.46-2.79-9.7-5.15a.09.09,0,0,0-.13.07l-.27,2.89,9.51,5A.09.09,0,0,0,111,359.41Z"/><path class="cls-30" d="M114.23,354.75l.17,2.11L111,359.53l.47-2.84a.19.19,0,0,1,.08-.12Z"/><path class="cls-24" d="M109.08,353c0,.7-1,1-1.79.75-.46-.13-.72-.43-.73-.7s.25-.58.7-.73C108,352.07,109.07,352.29,109.08,353Z"/><path class="cls-24" d="M112.44,354.74c0,.7-1,1-1.79.75-.46-.13-.72-.43-.73-.7s.25-.58.7-.73C111.36,353.82,112.42,354,112.44,354.74Z"/><path class="cls-24" d="M106,351.32c0,.7-1,1-1.79.75-.46-.13-.72-.43-.73-.7s.25-.58.7-.73C104.94,350.39,106,350.62,106,351.32Z"/><polygon class="cls-26" points="101.4 354.42 97.3 357.36 107.86 362.64 111.03 359.47 101.4 354.42"/><polygon class="cls-26" points="125.28 351.55 133.03 347.22 123.5 342.95 125.28 351.55"/><path class="cls-30" d="M115.6,347.34l1.51-4.21a.07.07,0,0,1,.1,0l9,4.45-1.42,4.58a.13.13,0,0,1-.19.08l-9-4.7A.13.13,0,0,1,115.6,347.34Z"/><path class="cls-30" d="M128.59,346.27l-2.34,1.27-9-4.45a0,0,0,0,1,0-.07l2.41-1.37Z"/><path class="cls-30" d="M125,352.17l3-1.92a.07.07,0,0,0,0,0l1-3.6a1,1,0,0,0-.47-.33l-2.32,1.25a.07.07,0,0,0,0,0l-1.4,4.52A.07.07,0,0,0,125,352.17Z"/><path class="cls-24" d="M121.67,343.09c0,.79-1.22,1.06-2.06.8-.52-.16-.81-.51-.81-.82s.3-.65.82-.81C120.47,342,121.68,342.3,121.67,343.09Z"/><path class="cls-24" d="M124.2,344.6c0,.7-1.07.93-1.81.7-.46-.14-.71-.45-.71-.72s.26-.58.72-.71C123.14,343.65,124.2,343.91,124.2,344.6Z"/><path class="cls-24" d="M127.25,346.19c0,.7-1.07.93-1.81.7-.46-.14-.71-.45-.71-.72s.26-.58.72-.71C126.2,345.24,127.26,345.49,127.25,346.19Z"/><path class="cls-26" d="M104.52,365.82l36-18a19.58,19.58,0,0,1,16.71-.38l37.45,21.31c4.14,1.84,4.55,5.54.7,7.95l-35.85,19.74a19.58,19.58,0,0,1-20.42.2l-34.93-20.89A5.66,5.66,0,0,1,104.52,365.82Z"/><path class="cls-26" d="M142.11,402.54a28.74,28.74,0,0,0,13.62,0v11.27s-8.22,2.11-13.62,0Z"/><path class="cls-31" d="M142.11,402.71a39.75,39.75,0,0,0,13.62,0v8.08s-8.22,1.52-13.62,0Z"/><line class="cls-29" x1="107.05" y1="421.78" x2="107.05" y2="431.08"/><polyline class="cls-28" points="177.91 404.01 177.84 393.85 172.65 396.4 173.01 406.62"/><polygon class="cls-32" points="173.47 397.21 177.09 395.28 176.97 396.58 173.99 398.12 173.47 397.21"/><circle class="cls-33" cx="170.86" cy="387.08" r="0.6" transform="translate(-170.65 137.29) rotate(-30)"/><circle class="cls-33" cx="173.41" cy="385.95" r="0.6" transform="translate(-140.94 102.74) rotate(-23.79)"/><circle class="cls-33" cx="175.88" cy="384.86" r="0.6" transform="translate(-140.3 103.64) rotate(-23.79)"/><path class="cls-34" d="M141.85,367a3.41,3.41,0,0,0-2.78-.21l-1.94.73.69.43,2-.73a1.63,1.63,0,0,1,1.27.08c.32.19.25.46-.15.61l-2,.73.7.44,2-.72c.9-.33,1-.88.24-1.34"/><path class="cls-34" d="M134.38,363.73c-.17-.19-.36-.39-.23-.44s.16-.06.36.07l1.31.8.78-.3-1.24-.75a2.17,2.17,0,0,0-1.93-.23c-.69.27-.28.73,0,1.07s.37.41.22.47-.17.07-.38-.06l-1.41-.87-.75.3,1.4.87a2.13,2.13,0,0,0,1.86.18c.73-.28.3-.76,0-1.11"/><path class="cls-34" d="M136,366.06c-.45-.27-.37-.61.18-.83a2.08,2.08,0,0,1,1.72.1c.21.13.27.22.28.32l-1-.2-.37.43,2.13.46.06-.07c.41-.45.29-.87-.34-1.25a4.06,4.06,0,0,0-3.21-.23c-1,.37-1.07,1.05-.25,1.56a4,4,0,0,0,2.61.43l-.61-.49a1.78,1.78,0,0,1-1.22-.23"/><path class="cls-34" d="M143.55,369.33c-.19-.2-.38-.41-.25-.46s.17-.05.39.08l1.41.86.83-.3-1.33-.8a2.41,2.41,0,0,0-2.07-.28c-.74.27-.29.76,0,1.12s.4.44.24.49-.18.07-.41-.07l-1.52-.93-.8.29,1.51.93a2.37,2.37,0,0,0,2,.23c.78-.28.32-.78,0-1.15"/><path class="cls-34" d="M145.24,371.78c-.48-.3-.4-.65.19-.86a2.31,2.31,0,0,1,1.84.15c.22.14.29.23.3.34l-1-.23-.4.44,2.29.52.06-.07c.43-.46.31-.9-.37-1.31a4.52,4.52,0,0,0-3.45-.32c-1,.36-1.14,1.07-.26,1.61a4.44,4.44,0,0,0,2.8.51l-.66-.53a2,2,0,0,1-1.31-.27"/><path class="cls-34" d="M161.19,380.74a3.48,3.48,0,0,1-2.45-.36c-.68-.42-.57-.9.26-1.16a3.51,3.51,0,0,1,2.62.28c.41.25.46.4.43.63v0l-.08,0-.89-.22-.28.29,1.87.47c.45-.46.31-.93-.43-1.38a5.25,5.25,0,0,0-3.81-.44c-1.13.35-1.25,1.09-.28,1.69a5.18,5.18,0,0,0,3.54.55l-.49-.38"/><path class="cls-34" d="M149.92,374.94c-.31-.19-.51-.47.26-.73l2.25-.75-.52-.31-2.24.75a1.88,1.88,0,0,1-1.59-.1c-.37-.23-.29-.48.21-.65l2.33-.79-.51-.31-2.47.85c-.68.23-.73.71-.12,1.09a2.89,2.89,0,0,0,1.4.38H149l0,0c-.13.23,0,.49.4.73a3.14,3.14,0,0,0,2.36.28l2.55-.84-.53-.32-2.38.79a1.81,1.81,0,0,1-1.46-.11"/><path class="cls-34" d="M156.49,375.84a4.66,4.66,0,0,0-3.61-.4c-1.13.37-1.3,1.06-.4,1.61a3.26,3.26,0,0,0,1.2.42l.68-.22a3,3,0,0,1-1.24-.35c-.63-.39-.52-.88.23-1.13a3.33,3.33,0,0,1,2.54.24c.55.33.78.81,0,1.06l-2.13.68.53.33,2.07-.66c1.1-.35,1.16-1,.14-1.59"/><path class="cls-34" d="M158.8,377.72h0l-.08,0,.46-.14-.52-.31-3.83,1.21.53.33,1.78-.56a3,3,0,0,1,2.56.13l.05,0,.6-.19-.1-.06a2.63,2.63,0,0,0-1.42-.38"/><path class="cls-35" d="M725.95,415.33l4.22,19.32a13.38,13.38,0,0,0,13.09,10.53l82.68-.08a12.34,12.34,0,0,0,12-9.45L843,414.54"/><path class="cls-35" d="M726.12,410.27l11-45.4a13.13,13.13,0,0,1,12.77-10h69.73a13.12,13.12,0,0,1,12.8,10.23l10.29,45.57a12,12,0,0,1-11.64,14.62l-92.78.41A12.46,12.46,0,0,1,726.12,410.27Z"/><polyline class="cls-36" points="751.72 416.32 759.54 416.32 767.36 416.32"/><line class="cls-36" x1="759.35" y1="414.59" x2="759.35" y2="415.8"/><rect class="cls-36" x="757.4" y="411.79" width="4.16" height="2.8" rx="0.25" ry="0.25"/><rect class="cls-36" x="753.01" y="418.3" width="4.16" height="2.8" rx="0.18" ry="0.18"/><rect class="cls-36" x="761.36" y="418.3" width="4.16" height="2.8" rx="0.29" ry="0.29"/><line class="cls-36" x1="755.09" y1="418.3" x2="755.09" y2="416.77"/><line class="cls-36" x1="763.44" y1="418.3" x2="763.44" y2="416.77"/><path class="cls-37" d="M806.57,414.89s-.49,3.45,2.91,3.9V421a.84.84,0,0,0,.68.85.85.85,0,0,0,.91-.85c0-.7,0-1.54,0-2.24a3.5,3.5,0,0,0,2.78-4.06h-1.49l0-2.07a.54.54,0,0,0-1.08,0v2h-2.07v-2a.56.56,0,0,0-1.12,0c0,.64,0,1.42,0,2.06l-1.46,0Z"/><polygon class="cls-35" points="750.56 445.18 748.2 432.16 770.81 432.16 771.86 445.18 750.56 445.18"/><polygon class="cls-37" points="752.25 434.41 753.35 441.51 768.08 441.51 767.34 434.41 752.25 434.41"/><polyline class="cls-35" points="813.32 444.63 815.41 428.43 803.8 428.43 802.27 445.12"/><path class="cls-37" d="M804.9,429.86h8.92c.05,0,.07.08,0,.12l-1.69,1.48h-5.93l0,0L804.87,430S804.85,429.86,804.9,429.86Z"/></svg>