<svg id="Layer_1" data-name="Layer 1" xmlns="http://www.w3.org/2000/svg" viewBox="0 0 577 461"><defs><style>.cls-1,.cls-3{fill:none;stroke-miterlimit:10;}.cls-1{stroke:#e1dede;}.cls-2{font-size:8.64px;font-family:MyriadPro-Regular, Myriad Pro;}.cls-2,.cls-4,.cls-7{fill:#5f6062;}.cls-3{stroke:#5f6062;}.cls-4{font-size:11.52px;}.cls-10,.cls-4,.cls-7{font-family:ProximaNova-Semibold, Proxima Nova;font-weight:700;}.cls-5{fill:#41a629;}.cls-6{fill:#a2a3a3;}.cls-7{font-size:9.85px;}.cls-8{letter-spacing:-0.1em;}.cls-9{letter-spacing:-0.07em;}.cls-10{font-size:25.18px;fill:#434547;}.cls-11{letter-spacing:-0.02em;}</style></defs><title>Artboard 14</title><polyline class="cls-1" points="150.5 100 150.5 365.5 376 365.5"/><line class="cls-1" x1="187.39" y1="101.46" x2="187.39" y2="364.84"/><line class="cls-1" x1="109.07" y1="198.84" x2="375.95" y2="198.94"/><line class="cls-1" x1="109.06" y1="254.73" x2="375.94" y2="254.84"/><line class="cls-1" x1="109.07" y1="311.71" x2="375.95" y2="311.81"/><line class="cls-1" x1="226.29" y1="101.83" x2="226.29" y2="365.21"/><line class="cls-1" x1="263.73" y1="101.83" x2="263.73" y2="365.21"/><line class="cls-1" x1="299.64" y1="101.83" x2="299.64" y2="365.21"/><line class="cls-1" x1="335.55" y1="102.16" x2="335.55" y2="365.54"/><line class="cls-1" x1="109.06" y1="145.14" x2="375.95" y2="145.24"/><text class="cls-2" transform="translate(120.69 323.12)">$1K</text><text class="cls-2" transform="translate(120.69 266.98)">$2K</text><text class="cls-2" transform="translate(120.69 209.52)">$3K</text><text class="cls-2" transform="translate(120.69 155.76)">$4K</text><line class="cls-3" x1="109.11" y1="145.15" x2="150.18" y2="145.16"/><line class="cls-3" x1="109.11" y1="198.89" x2="150.18" y2="198.89"/><line class="cls-3" x1="109.09" y1="254.78" x2="150.17" y2="254.79"/><line class="cls-3" x1="109.13" y1="311.71" x2="150.2" y2="311.72"/><text class="cls-2" transform="translate(198.36 378.03)">.05%</text><text class="cls-2" transform="translate(272.81 376.32)">1.25%</text><text class="cls-2" transform="translate(123.03 367.16)">$0</text><text class="cls-4" transform="translate(242.5 401.92) rotate(0.01)">Fee</text><rect class="cls-5" x="187.39" y="151.29" width="38.9" height="214.34"/><rect class="cls-6" x="187.39" y="358.48" width="38.9" height="7.09"/><rect class="cls-5" x="263.73" y="190.18" width="35.91" height="175.46"/><rect class="cls-6" x="263.73" y="317.89" width="35.91" height="48.22"/><rect class="cls-6" x="419.55" y="222.49" width="5.89" height="5.89"/><rect class="cls-5" x="419.52" y="236.45" width="5.89" height="5.89"/><text class="cls-7" transform="translate(430.14 228.53)"><tspan class="cls-8">T</tspan><tspan x="4.65" y="0">otal fees over 20 years</tspan></text><text class="cls-7" transform="translate(430.11 241.89)"><tspan class="cls-9">V</tspan><tspan x="5.99" y="0">alue after 20 years with fees</tspan></text><text class="cls-10" transform="translate(219.79 82.29)"><tspan class="cls-11">L</tspan><tspan x="12.64" y="0">ow Fees</tspan></text></svg>