<svg id="Layer_1" data-name="Layer 1" xmlns="http://www.w3.org/2000/svg" xmlns:xlink="http://www.w3.org/1999/xlink" viewBox="0 0 1324.01 499.02"><defs><style>.cls-1,.cls-16,.cls-20,.cls-26,.cls-5,.cls-6{fill:none;}.cls-2{fill:#0068ac;}.cls-2,.cls-3{opacity:0.39;}.cls-15,.cls-17,.cls-3{fill:#41a629;}.cls-10,.cls-11,.cls-14,.cls-4,.cls-7,.cls-9{fill:#fff;}.cls-4,.cls-5,.cls-7{fill-rule:evenodd;}.cls-10,.cls-20,.cls-26,.cls-5,.cls-6,.cls-7{stroke:#e8a300;}.cls-10,.cls-11,.cls-13,.cls-16,.cls-20,.cls-5,.cls-6,.cls-7,.cls-8,.cls-9{stroke-miterlimit:10;}.cls-10,.cls-20,.cls-26,.cls-5,.cls-6,.cls-7,.cls-9{stroke-width:2px;}.cls-12,.cls-8{fill:#e1dede;}.cls-11,.cls-16,.cls-8{stroke:#a2a3a3;}.cls-9{stroke:#41a629;}.cls-13{fill:url(#New_Pattern_7);stroke:url(#New_Pattern_7);}.cls-17,.cls-18{font-size:18px;font-family:ProximaNova-Semibold, Proxima Nova;font-weight:700;}.cls-18,.cls-23{fill:#e8a300;}.cls-19{letter-spacing:-0.02em;}.cls-20{stroke-dasharray:4.06 4.06;}.cls-21{letter-spacing:-0.04em;}.cls-22{letter-spacing:-0.03em;}.cls-24{fill:#f6f6f6;}.cls-25{fill:#a2a3a3;}.cls-26{stroke-linecap:round;stroke-linejoin:round;}</style><pattern id="New_Pattern_7" data-name="New Pattern 7" width="197.44" height="200" patternTransform="translate(3104.6 -765.33) scale(0.44)" patternUnits="userSpaceOnUse" viewBox="0 0 197.44 200"><rect class="cls-1" width="197.44" height="200"/><path id="_39" data-name="39" class="cls-2" d="M141.57,1.93a5.35,5.35,0,0,1-2.8-7l.27-.62c.4-.93.39-1.88-.05-2.08h0c-.45-.19-1.15.46-1.55,1.39l-.27.62a5.35,5.35,0,0,1-7,2.8l-.62-.27c-.93-.4-1.88-.39-2.08.05v0c-.19.45.46,1.15,1.39,1.55l.62.27a5.35,5.35,0,0,1,2.79,7l-.27.62c-.4.93-.39,1.88.05,2.08h0c.45.19,1.15-.46,1.55-1.39l.27-.62a5.35,5.35,0,0,1,7-2.8l.62.27c.93.4,1.88.39,2.08-.05v0c.19-.45-.46-1.15-1.39-1.55Z"/><path id="_10" data-name="10" class="cls-2" d="M154.11,9.84h0a22.65,22.65,0,0,0-2.76,2.77,22.64,22.64,0,0,0-3-2.51h0a22.64,22.64,0,0,0,2.77,2.76,22.64,22.64,0,0,0-2.51,3h0a22.64,22.64,0,0,0,2.76-2.77,22.64,22.64,0,0,0,3,2.51h0a22.64,22.64,0,0,0-2.77-2.76A22.63,22.63,0,0,0,154.11,9.84Z"/><path id="_39-2" data-name="39" class="cls-3" d="M178.87,18.38A2.54,2.54,0,0,1,176.19,16l0-.32c0-.48-.23-.88-.47-.87h0c-.23,0-.39.44-.36.92l0,.32A2.54,2.54,0,0,1,173,18.71l-.32,0c-.48,0-.88.23-.87.47h0c0,.23.44.39.92.36l.32,0a2.54,2.54,0,0,1,2.68,2.39l0,.32c0,.48.23.88.47.87h0c.23,0,.39-.44.36-.92l0-.32a2.54,2.54,0,0,1,2.39-2.68l.32,0c.48,0,.88-.23.87-.47h0c0-.23-.44-.39-.92-.36Z"/><path id="_10-2" data-name="10" class="cls-2" d="M173.19,1.56v0c-.06-.2-3.67.61-7.35,1.54-.95-3.68-2-7.24-2.18-7.19h0c-.2.06.61,3.67,1.54,7.35-3.68.95-7.24,2-7.19,2.18v0c.06.2,3.67-.61,7.35-1.54.95,3.68,2,7.24,2.18,7.19h0c.2-.06-.61-3.67-1.54-7.35C169.69,2.79,173.24,1.76,173.19,1.56Z"/><path id="_10-3" data-name="10" class="cls-3" d="M165.85,28.22h0A22.65,22.65,0,0,0,164,31.67a22.64,22.64,0,0,0-3.6-1.51h0A22.64,22.64,0,0,0,163.87,32a22.64,22.64,0,0,0-1.51,3.6h0a22.64,22.64,0,0,0,1.82-3.46,22.64,22.64,0,0,0,3.6,1.51h0a22.64,22.64,0,0,0-3.46-1.82A22.63,22.63,0,0,0,165.85,28.22Z"/><path id="_39-3" data-name="39" class="cls-2" d="M159.31,33.84A2.54,2.54,0,0,1,157,31.06l0-.32c0-.48-.09-.91-.33-.93h0c-.23,0-.45.38-.5.85l0,.32a2.54,2.54,0,0,1-2.78,2.28l-.32,0c-.48,0-.91.09-.93.33h0c0,.23.38.45.85.5l.32,0a2.54,2.54,0,0,1,2.28,2.78l0,.32c0,.48.09.91.33.93h0c.23,0,.45-.38.5-.85l0-.32a2.54,2.54,0,0,1,2.78-2.28l.32,0c.48,0,.91-.09.93-.33h0c0-.23-.38-.45-.85-.5Z"/><path id="_39-4" data-name="39" class="cls-3" d="M205.57-.3a5.35,5.35,0,0,1,4.37-6.18l.67-.11c1-.17,1.79-.7,1.72-1.18v0c-.09-.48-1-.71-2-.54l-.67.11a5.35,5.35,0,0,1-6.18-4.37l-.11-.67c-.17-1-.7-1.79-1.18-1.72h0c-.48.09-.71,1-.54,2l.11.67a5.35,5.35,0,0,1-4.37,6.18l-.67.11c-1,.17-1.79.7-1.72,1.18v0c.09.48,1,.71,2,.54l.67-.11A5.35,5.35,0,0,1,203.83,0l.11.67c.17,1,.7,1.79,1.18,1.72h0c.48-.09.71-1,.54-2Z"/><path id="_10-4" data-name="10" class="cls-2" d="M200.13,7.37h0a22.65,22.65,0,0,0-3.83-.81,22.64,22.64,0,0,0,.47-3.88h0A22.64,22.64,0,0,0,196,6.5,22.64,22.64,0,0,0,192.08,6h0a22.64,22.64,0,0,0,3.83.81,22.64,22.64,0,0,0-.47,3.88h0a22.64,22.64,0,0,0,.81-3.83A22.63,22.63,0,0,0,200.13,7.37Z"/><path id="_39-5" data-name="39" class="cls-2" d="M207.07,24a6.11,6.11,0,0,1-3.19-8l.31-.71c.46-1.06.45-2.15-.06-2.38h0c-.52-.21-1.32.53-1.77,1.59l-.31.71a6.11,6.11,0,0,1-8,3.19l-.71-.31c-1.06-.46-2.15-.45-2.38.06v0c-.21.52.53,1.32,1.59,1.77l.71.31a6.11,6.11,0,0,1,3.19,8l-.31.71c-.46,1.06-.45,2.15.06,2.38h0c.52.21,1.32-.53,1.77-1.59l.31-.71a6.11,6.11,0,0,1,8-3.19l.71.31c1.06.46,2.15.45,2.38-.06v0c.21-.52-.53-1.32-1.59-1.77Z"/><path id="_10-5" data-name="10" class="cls-2" d="M147.86,21.47h0c-.13-.17-3.17,1.94-6.24,4.18-2.26-3.06-4.54-6-4.71-5.85h0c-.17.13,1.94,3.17,4.18,6.24-3.06,2.26-6,4.54-5.85,4.71h0c.13.17,3.17-1.94,6.24-4.18,2.26,3.06,4.54,6,4.71,5.85h0c.17-.13-1.94-3.17-4.19-6.24C145.07,23.92,148,21.64,147.86,21.47Z"/><path id="_10-6" data-name="10" class="cls-2" d="M115.64,5.43h0a19.52,19.52,0,0,0,2.31,2.45,19.51,19.51,0,0,0-2.24,2.51h0a19.51,19.51,0,0,0,2.45-2.31,19.51,19.51,0,0,0,2.51,2.24h0a19.51,19.51,0,0,0-2.31-2.45,19.5,19.5,0,0,0,2.24-2.51h0a19.51,19.51,0,0,0-2.45,2.31A19.5,19.5,0,0,0,115.64,5.43Z"/><path id="_39-6" data-name="39" class="cls-2" d="M132.07,21.76a2.54,2.54,0,0,1,1.08-3.43l.29-.15c.43-.22.71-.57.61-.78h0c-.11-.21-.56-.18-1,0l-.29.15a2.54,2.54,0,0,1-3.43-1.08l-.15-.29c-.22-.43-.57-.71-.78-.61h0c-.2.11-.18.56,0,1l.15.29a2.54,2.54,0,0,1-1.08,3.43l-.29.15c-.43.22-.71.57-.61.78h0c.11.21.56.18,1,0l.29-.15a2.54,2.54,0,0,1,3.43,1.08l.15.29c.22.43.57.71.78.61h0c.21-.11.18-.56,0-1Z"/><path id="_10-7" data-name="10" class="cls-2" d="M121,26.78h0a22.65,22.65,0,0,0-3.83-.81,22.64,22.64,0,0,0,.47-3.88h0a22.64,22.64,0,0,0-.81,3.83,22.64,22.64,0,0,0-3.88-.47h0a22.64,22.64,0,0,0,3.83.81,22.64,22.64,0,0,0-.47,3.88h0a22.64,22.64,0,0,0,.81-3.83A22.63,22.63,0,0,0,121,26.78Z"/><path id="_39-7" data-name="39" class="cls-2" d="M139.54,41.14a2.54,2.54,0,0,1,1.08-3.43l.29-.15c.43-.22.71-.57.61-.78h0c-.11-.21-.56-.18-1,0l-.29.15a2.54,2.54,0,0,1-3.43-1.08l-.15-.29c-.22-.43-.57-.71-.78-.61h0c-.2.11-.18.56,0,1l.15.29A2.54,2.54,0,0,1,135,39.7l-.29.15c-.43.22-.71.57-.61.78h0c.11.21.56.18,1,0l.29-.15a2.54,2.54,0,0,1,3.43,1.08l.15.29c.22.43.57.71.78.61h0c.21-.11.18-.56,0-1Z"/><path id="_10-8" data-name="10" class="cls-2" d="M118,48.22h0a22.65,22.65,0,0,0-2.57-2.95,22.64,22.64,0,0,0,2.71-2.82h0A22.64,22.64,0,0,0,115.2,45a22.64,22.64,0,0,0-2.82-2.71h0a22.64,22.64,0,0,0,2.57,2.95,22.64,22.64,0,0,0-2.71,2.82h0a22.64,22.64,0,0,0,2.95-2.57A22.63,22.63,0,0,0,118,48.22Z"/><path id="_10-9" data-name="10" class="cls-3" d="M112.47,32.62h0c-.13-.17-3.17,1.94-6.24,4.18-2.26-3.06-4.54-6-4.71-5.85h0c-.17.13,1.94,3.17,4.18,6.24-3.06,2.26-6,4.54-5.85,4.71h0c.13.17,3.17-1.94,6.24-4.18,2.26,3.06,4.54,6,4.71,5.85h0c.17-.13-1.94-3.17-4.19-6.24C109.67,35.07,112.59,32.79,112.47,32.62Z"/><path id="_39-8" data-name="39" class="cls-3" d="M189.41,38.85a4.33,4.33,0,0,1-4.45-4.2l0-.55c0-.82-.36-1.51-.75-1.51h0c-.4,0-.69.73-.66,1.55l0,.55a4.33,4.33,0,0,1-4.2,4.45l-.55,0c-.82,0-1.51.36-1.51.75v0c0,.4.73.69,1.55.66l.55,0a4.33,4.33,0,0,1,4.45,4.2l0,.55c0,.82.36,1.51.75,1.51h0c.4,0,.69-.73.66-1.55l0-.55a4.33,4.33,0,0,1,4.2-4.45l.55,0c.82,0,1.51-.36,1.51-.75v0c0-.4-.73-.69-1.55-.66Z"/><path id="_10-10" data-name="10" class="cls-2" d="M161.52,42.26h0A22.65,22.65,0,0,0,158.75,45a22.64,22.64,0,0,0-3-2.51h0a22.64,22.64,0,0,0,2.77,2.76,22.64,22.64,0,0,0-2.51,3h0a22.64,22.64,0,0,0,2.76-2.77,22.64,22.64,0,0,0,3,2.51h0A22.64,22.64,0,0,0,159,45.25,22.63,22.63,0,0,0,161.52,42.26Z"/><path id="_39-9" data-name="39" class="cls-3" d="M109.58-.44a3.78,3.78,0,0,1-5.19-1.26l-.25-.41c-.37-.61-.92-1-1.22-.82h0c-.29.18-.2.85.17,1.46l.25.41a3.78,3.78,0,0,1-1.26,5.19l-.41.25c-.61.37-1,.92-.82,1.22h0c.18.29.85.2,1.46-.17l.41-.25a3.78,3.78,0,0,1,5.19,1.26l.25.41c.37.61.92,1,1.22.82h0c.29-.18.2-.85-.17-1.46L109,5.83A3.78,3.78,0,0,1,110.23.63l.41-.25c.61-.37,1-.92.82-1.22h0c-.18-.29-.85-.2-1.46.17Z"/><path id="_10-11" data-name="10" class="cls-2" d="M87.1-2.74h0A22.65,22.65,0,0,0,84.33,0a22.64,22.64,0,0,0-3-2.51h0A22.64,22.64,0,0,0,84.09.28a22.64,22.64,0,0,0-2.51,3h0A22.64,22.64,0,0,0,84.35.52a22.64,22.64,0,0,0,3,2.51h0A22.64,22.64,0,0,0,84.59.26,22.63,22.63,0,0,0,87.1-2.74Z"/><path id="_10-12" data-name="10" class="cls-3" d="M70.81,3.44h0c-.2-.06-1.36,3.46-2.44,7.11-3.65-1.07-7.23-2-7.29-1.82v0c-.06.2,3.46,1.36,7.11,2.44-1.07,3.65-2,7.23-1.82,7.29h0c.2.06,1.36-3.46,2.44-7.11,3.65,1.07,7.23,2,7.29,1.82v0c.06-.2-3.46-1.36-7.11-2.44C70.07,7.08,71,3.5,70.81,3.44Z"/><path id="_39-10" data-name="39" class="cls-3" d="M42.48,11.71a5.35,5.35,0,0,1,4.37-6.18l.67-.11c1-.17,1.79-.7,1.72-1.18v0c-.09-.48-1-.71-2-.54l-.67.11A5.35,5.35,0,0,1,40.37-.58l-.11-.67c-.17-1-.7-1.79-1.18-1.72h0c-.48.09-.71,1-.54,2l.11.67A5.35,5.35,0,0,1,34.25,5.9L33.58,6c-1,.17-1.79.7-1.72,1.18v0c.09.48,1,.71,2,.54l.67-.11A5.35,5.35,0,0,1,40.73,12l.11.67c.17,1,.7,1.79,1.18,1.72h0c.48-.09.71-1,.54-2Z"/><path id="_39-11" data-name="39" class="cls-2" d="M52.06,17.78a2.54,2.54,0,0,1,1.08-3.43l.29-.15c.43-.22.71-.57.61-.78h0c-.11-.21-.56-.18-1,0l-.29.15a2.54,2.54,0,0,1-3.43-1.08l-.15-.29c-.22-.43-.57-.71-.78-.61h0c-.2.11-.18.56,0,1l.15.29a2.54,2.54,0,0,1-1.08,3.43l-.29.15c-.43.22-.71.57-.61.78h0c.11.21.56.18,1,0l.29-.15a2.54,2.54,0,0,1,3.43,1.08l.15.29c.22.43.57.71.78.61h0c.21-.11.18-.56,0-1Z"/><path id="_10-13" data-name="10" class="cls-2" d="M40.94,22.8h0A22.65,22.65,0,0,0,37.11,22a22.64,22.64,0,0,0,.47-3.88h0a22.64,22.64,0,0,0-.81,3.83,22.64,22.64,0,0,0-3.88-.47h0a22.64,22.64,0,0,0,3.83.81,22.64,22.64,0,0,0-.47,3.88h0a22.64,22.64,0,0,0,.81-3.83A22.63,22.63,0,0,0,40.94,22.8Z"/><path id="_39-12" data-name="39" class="cls-2" d="M58.81-11.76A4.7,4.7,0,0,1,53-8.62l-.57-.17c-.85-.26-1.68-.16-1.81.26v0c-.12.41.52,1,1.37,1.22l.57.17a4.7,4.7,0,0,1,3.14,5.86l-.17.57c-.26.85-.16,1.68.26,1.81h0c.41.12,1-.52,1.22-1.37l.17-.57A4.7,4.7,0,0,1,63-4l.57.17c.85.26,1.68.16,1.81-.26v0c.12-.41-.52-1-1.37-1.22l-.57-.17a4.7,4.7,0,0,1-3.14-5.86l.17-.57c.26-.85.16-1.68-.25-1.81h0c-.41-.12-1,.52-1.22,1.37Z"/><path id="_39-13" data-name="39" class="cls-2" d="M59.53,37.16a2.54,2.54,0,0,1,1.08-3.43l.29-.15c.43-.22.71-.57.61-.78h0c-.11-.21-.56-.18-1,0l-.29.15a2.54,2.54,0,0,1-3.43-1.08l-.15-.29c-.22-.43-.57-.71-.78-.61h0c-.2.11-.18.56,0,1l.15.29A2.54,2.54,0,0,1,55,35.72l-.29.15c-.43.22-.71.57-.61.78h0c.11.21.56.18,1,0l.29-.15a2.54,2.54,0,0,1,3.43,1.08l.15.29c.22.43.57.71.78.61h0c.21-.11.18-.56,0-1Z"/><path id="_39-14" data-name="39" class="cls-3" d="M8.13-.3A5.35,5.35,0,0,1,12.5-6.48l.67-.11c1-.17,1.79-.7,1.72-1.18v0c-.09-.48-1-.71-2-.54l-.67.11A5.35,5.35,0,0,1,6-12.59l-.11-.67c-.17-1-.7-1.79-1.18-1.72h0c-.48.09-.71,1-.54,2l.11.67A5.35,5.35,0,0,1-.09-6.11L-.76-6c-1,.17-1.79.7-1.72,1.18v0c.09.48,1,.71,2,.54l.67-.11A5.35,5.35,0,0,1,6.39,0L6.5.67c.17,1,.7,1.79,1.18,1.72h0c.48-.09.71-1,.54-2Z"/><path id="_10-14" data-name="10" class="cls-2" d="M2.69,7.37h0a22.65,22.65,0,0,0-3.83-.81A22.64,22.64,0,0,0-.67,2.67h0A22.64,22.64,0,0,0-1.48,6.5,22.64,22.64,0,0,0-5.36,6h0a22.64,22.64,0,0,0,3.83.81A22.64,22.64,0,0,0-2,10.72h0A22.64,22.64,0,0,0-1.19,6.9,22.63,22.63,0,0,0,2.69,7.37Z"/><path id="_39-15" data-name="39" class="cls-2" d="M21.28,21.73a2.54,2.54,0,0,1,1.08-3.43l.29-.15c.43-.22.71-.57.61-.78h0c-.11-.21-.56-.18-1,0l-.29.15a2.54,2.54,0,0,1-3.43-1.08l-.15-.29c-.22-.43-.57-.71-.78-.61h0c-.2.11-.18.56,0,1l.15.29a2.54,2.54,0,0,1-1.08,3.43l-.29.15c-.43.22-.71.57-.61.78h0c.11.21.56.18,1,0l.29-.15a2.54,2.54,0,0,1,3.43,1.08l.15.29c.22.43.57.71.78.61h0c.21-.11.18-.56,0-1Z"/><path id="_39-16" data-name="39" class="cls-2" d="M9.63,24a6.11,6.11,0,0,1-3.19-8l.31-.71c.46-1.06.45-2.15-.06-2.38h0c-.52-.21-1.32.53-1.77,1.59l-.31.71a6.11,6.11,0,0,1-8,3.19l-.71-.31c-1.06-.46-2.15-.45-2.38.06v0c-.21.52.53,1.32,1.59,1.77l.71.31a6.11,6.11,0,0,1,3.19,8l-.31.71c-.46,1.06-.45,2.15.06,2.38h0c.52.21,1.32-.53,1.77-1.59l.31-.71a6.11,6.11,0,0,1,8-3.19l.71.31c1.06.46,2.15.45,2.38-.06v0c.21-.52-.53-1.32-1.59-1.77Z"/><path id="_39-17" data-name="39" class="cls-2" d="M23.35-2.66A2.19,2.19,0,0,1,20.89-.77l-.28,0c-.41-.05-.78.06-.81.26h0c0,.2.31.4.72.45l.28,0A2.19,2.19,0,0,1,22.69,2.4l0,.28c-.05.41.06.78.26.81h0c.2,0,.4-.31.45-.72l0-.28A2.19,2.19,0,0,1,25.86.6l.28,0c.41.05.78-.06.81-.26h0c0-.2-.31-.4-.72-.45L26-.11a2.19,2.19,0,0,1-1.89-2.45l0-.28c.05-.41-.06-.78-.26-.81h0c-.2,0-.4.31-.45.72Z"/><path id="_10-15" data-name="10" class="cls-2" d="M38,44.24h0a22.65,22.65,0,0,0-2.57-2.95,22.64,22.64,0,0,0,2.71-2.82h0A22.64,22.64,0,0,0,35.18,41a22.64,22.64,0,0,0-2.82-2.71h0a22.64,22.64,0,0,0,2.57,2.95,22.64,22.64,0,0,0-2.71,2.82h0a22.64,22.64,0,0,0,2.95-2.57A22.63,22.63,0,0,0,38,44.24Z"/><path id="_10-16" data-name="10" class="cls-2" d="M32.45,28.64h0c-.13-.17-3.17,1.94-6.24,4.18-2.26-3.06-4.54-6-4.71-5.85h0c-.17.13,1.94,3.17,4.18,6.24-3.06,2.26-6,4.54-5.85,4.71h0c.13.17,3.17-1.94,6.24-4.18,2.26,3.06,4.54,6,4.71,5.85h0c.17-.13-1.94-3.17-4.19-6.24C29.66,31.09,32.57,28.81,32.45,28.64Z"/><path id="_39-18" data-name="39" class="cls-3" d="M89.93,15.27a2.54,2.54,0,0,1-2.68-2.39l0-.32c0-.48-.23-.88-.47-.87h0c-.23,0-.39.44-.36.92l0,.32A2.54,2.54,0,0,1,84,15.6l-.32,0c-.48,0-.88.23-.87.47h0c0,.23.44.39.92.36l.32,0a2.54,2.54,0,0,1,2.68,2.39l0,.32c0,.48.23.88.47.87h0c.23,0,.39-.44.36-.92l0-.32A2.54,2.54,0,0,1,90,16.11l.32,0c.48,0,.88-.23.87-.47h0c0-.23-.44-.39-.92-.36Z"/><path id="_10-17" data-name="10" class="cls-3" d="M76.91,25.11h0a22.65,22.65,0,0,0-1.82,3.46,22.64,22.64,0,0,0-3.6-1.51h0a22.64,22.64,0,0,0,3.46,1.82,22.64,22.64,0,0,0-1.51,3.6h0A22.64,22.64,0,0,0,75.25,29a22.64,22.64,0,0,0,3.6,1.51h0a22.64,22.64,0,0,0-3.46-1.82A22.63,22.63,0,0,0,76.91,25.11Z"/><path id="_39-19" data-name="39" class="cls-2" d="M89.09,46a2.54,2.54,0,0,1,1.08-3.43l.29-.15c.43-.22.71-.57.61-.78h0c-.11-.21-.56-.18-1,0l-.29.15a2.54,2.54,0,0,1-3.43-1.08l-.15-.29c-.22-.43-.57-.71-.78-.61h0c-.2.11-.18.56,0,1l.15.29a2.54,2.54,0,0,1-1.08,3.43l-.29.15c-.43.22-.71.57-.61.78h0c.11.21.56.18,1,0l.29-.15a2.54,2.54,0,0,1,3.43,1.08l.15.29c.22.43.57.71.78.61h0c.21-.11.18-.56,0-1Z"/><path id="_39-20" data-name="39" class="cls-3" d="M10.32,40.12A2.54,2.54,0,0,1,8,37.34l0-.32c0-.48-.09-.91-.33-.93h0c-.23,0-.45.38-.5.85l0,.32a2.54,2.54,0,0,1-2.78,2.28l-.32,0c-.48,0-.91.09-.93.33h0c0,.23.38.45.85.5l.32,0a2.54,2.54,0,0,1,2.28,2.78l0,.32c0,.48.09.91.33.93h0c.23,0,.45-.38.5-.85l0-.32A2.54,2.54,0,0,1,10.23,41l.32,0c.48,0,.91-.09.93-.33h0c0-.23-.38-.45-.85-.5Z"/><path id="_39-21" data-name="39" class="cls-2" d="M42.85,101.93a5.35,5.35,0,0,1-2.8-7l.27-.62c.4-.93.39-1.88-.05-2.08h0c-.45-.19-1.15.46-1.55,1.39l-.27.62a5.35,5.35,0,0,1-7,2.8l-.62-.27c-.93-.4-1.88-.39-2.08.05v0c-.19.45.46,1.15,1.39,1.55l.62.27a5.35,5.35,0,0,1,2.79,7l-.27.62c-.4.93-.39,1.88.05,2.08h0c.45.19,1.15-.46,1.55-1.39l.27-.62a5.35,5.35,0,0,1,7-2.8l.62.27c.93.4,1.88.39,2.08-.05v0c.19-.45-.46-1.15-1.39-1.55Z"/><path id="_39-22" data-name="39" class="cls-3" d="M50.75,95.63a2.54,2.54,0,0,1-2.28-2.78l0-.32c0-.48-.09-.91-.33-.93h0c-.23,0-.45.38-.5.85l0,.32A2.54,2.54,0,0,1,44.85,95l-.32,0c-.48,0-.91.09-.93.33h0c0,.23.38.45.85.5l.32,0A2.54,2.54,0,0,1,47,98.66L47,99c0,.48.09.91.33.93h0c.23,0,.45-.38.5-.85l0-.32a2.54,2.54,0,0,1,2.78-2.28l.32,0c.48,0,.91-.09.93-.33h0c0-.23-.38-.45-.85-.5Z"/><path id="_10-18" data-name="10" class="cls-2" d="M55.39,109.84h0a22.65,22.65,0,0,0-2.76,2.77,22.64,22.64,0,0,0-3-2.51h0a22.64,22.64,0,0,0,2.77,2.76,22.64,22.64,0,0,0-2.51,3h0a22.64,22.64,0,0,0,2.76-2.77,22.64,22.64,0,0,0,3,2.51h0a22.64,22.64,0,0,0-2.77-2.76A22.63,22.63,0,0,0,55.39,109.84Z"/><path id="_39-23" data-name="39" class="cls-3" d="M84.61,88a3.78,3.78,0,0,1-5.19-1.26l-.25-.41c-.37-.61-.92-1-1.22-.82h0c-.29.18-.2.85.17,1.46l.25.41a3.78,3.78,0,0,1-1.26,5.19l-.41.25c-.61.37-1,.92-.82,1.22h0c.18.29.85.2,1.46-.17l.41-.25a3.78,3.78,0,0,1,5.19,1.26l.25.41c.37.61.92,1,1.22.82h0c.29-.18.2-.85-.17-1.46L84,94.28a3.78,3.78,0,0,1,1.26-5.19l.41-.25c.61-.37,1-.92.82-1.22h0c-.18-.29-.85-.2-1.46.17Z"/><path id="_39-24" data-name="39" class="cls-3" d="M80.15,118.38A2.54,2.54,0,0,1,77.47,116l0-.32c0-.48-.23-.88-.47-.87h0c-.23,0-.39.44-.36.92l0,.32a2.54,2.54,0,0,1-2.39,2.68l-.32,0c-.48,0-.88.23-.87.47h0c0,.23.44.39.92.36l.32,0A2.54,2.54,0,0,1,77,121.94l0,.32c0,.48.23.88.47.87h0c.23,0,.39-.44.36-.92l0-.32a2.54,2.54,0,0,1,2.39-2.68l.32,0c.48,0,.88-.23.87-.47h0c0-.23-.44-.39-.92-.36Z"/><path id="_10-19" data-name="10" class="cls-2" d="M185.82,97.26h0A22.65,22.65,0,0,0,183,100a22.64,22.64,0,0,0-3-2.51h0a22.64,22.64,0,0,0,2.77,2.76,22.64,22.64,0,0,0-2.51,3h0a22.64,22.64,0,0,0,2.76-2.77,22.64,22.64,0,0,0,3,2.51h0a22.64,22.64,0,0,0-2.77-2.76A22.63,22.63,0,0,0,185.82,97.26Z"/><path id="_10-20" data-name="10" class="cls-3" d="M169.53,103.44h0c-.2-.06-1.36,3.46-2.44,7.11-3.65-1.07-7.23-2-7.29-1.82v0c-.06.2,3.46,1.36,7.11,2.44-1.07,3.65-2,7.23-1.82,7.29h0c.2.06,1.36-3.46,2.44-7.11,3.65,1.07,7.23,2,7.29,1.82v0c.06-.2-3.46-1.36-7.11-2.44C168.79,107.08,169.74,103.5,169.53,103.44Z"/><path id="_10-21" data-name="10" class="cls-2" d="M137.83,89.3h0a22.65,22.65,0,0,0-2.57-2.95A22.64,22.64,0,0,0,138,83.53h0A22.64,22.64,0,0,0,135,86.09a22.64,22.64,0,0,0-2.82-2.71h0a22.64,22.64,0,0,0,2.57,2.95,22.64,22.64,0,0,0-2.71,2.82h0A22.64,22.64,0,0,0,135,86.59,22.63,22.63,0,0,0,137.83,89.3Z"/><path id="_10-22" data-name="10" class="cls-2" d="M132.3,73.7h0c-.13-.17-3.17,1.94-6.24,4.18-2.26-3.06-4.54-6-4.71-5.85h0c-.17.13,1.94,3.17,4.18,6.24-3.06,2.26-6,4.54-5.85,4.71h0c.13.17,3.17-1.94,6.24-4.18,2.26,3.06,4.54,6,4.71,5.85h0c.17-.13-1.94-3.17-4.19-6.24C129.51,76.15,132.42,73.87,132.3,73.7Z"/><path id="_39-25" data-name="39" class="cls-3" d="M141.2,111.71a5.35,5.35,0,0,1,4.37-6.18l.67-.11c1-.17,1.79-.7,1.72-1.18v0c-.09-.48-1-.71-2-.54l-.67.11a5.35,5.35,0,0,1-6.18-4.37l-.11-.67c-.17-1-.7-1.79-1.18-1.72h0c-.48.09-.71,1-.54,2l.11.67A5.35,5.35,0,0,1,133,105.9l-.67.11c-1,.17-1.79.7-1.72,1.18v0c.09.48,1,.71,2,.54l.67-.11a5.35,5.35,0,0,1,6.18,4.37l.11.67c.17,1,.7,1.79,1.18,1.72h0c.48-.09.71-1,.54-2Z"/><path id="_39-26" data-name="39" class="cls-2" d="M150.78,117.78a2.54,2.54,0,0,1,1.08-3.43l.29-.15c.43-.22.71-.57.61-.78h0c-.11-.21-.56-.18-1,0l-.29.15a2.54,2.54,0,0,1-3.43-1.08l-.15-.29c-.22-.43-.57-.71-.78-.61h0c-.2.11-.18.56,0,1l.15.29a2.54,2.54,0,0,1-1.08,3.43l-.29.15c-.43.22-.71.57-.61.78h0c.11.21.56.18,1,0l.29-.15a2.54,2.54,0,0,1,3.43,1.08l.15.29c.22.43.57.71.78.61h0c.21-.11.18-.56,0-1Z"/><path id="_10-23" data-name="10" class="cls-2" d="M139.66,122.8h0a22.65,22.65,0,0,0-3.83-.81,22.64,22.64,0,0,0,.47-3.88h0a22.64,22.64,0,0,0-.81,3.83,22.64,22.64,0,0,0-3.88-.47h0a22.64,22.64,0,0,0,3.83.81,22.64,22.64,0,0,0-.47,3.88h0a22.64,22.64,0,0,0,.81-3.83A22.63,22.63,0,0,0,139.66,122.8Z"/><path id="_10-24" data-name="10" class="cls-2" d="M74.47,101.56v0c-.06-.2-3.67.61-7.35,1.54-.95-3.68-2-7.24-2.18-7.19h0c-.2.06.61,3.67,1.54,7.35-3.68.95-7.24,2-7.19,2.18v0c.06.2,3.67-.61,7.35-1.54.95,3.68,2,7.24,2.18,7.19h0c.2-.06-.61-3.67-1.54-7.35C71,102.79,74.52,101.76,74.47,101.56Z"/><path id="_39-27" data-name="39" class="cls-2" d="M64.54,67.56a6.11,6.11,0,0,1-3.19-8l.31-.71c.46-1.06.45-2.15-.06-2.38h0c-.52-.21-1.32.53-1.77,1.59l-.31.71a6.11,6.11,0,0,1-8,3.19l-.71-.31c-1.06-.46-2.15-.45-2.38.06v0c-.21.52.53,1.32,1.59,1.77l.71.31a6.11,6.11,0,0,1,3.19,8l-.31.71c-.46,1.06-.45,2.15.06,2.38h0c.52.21,1.32-.53,1.77-1.59l.31-.71a6.11,6.11,0,0,1,8-3.19l.71.31c1.06.46,2.15.45,2.38-.06v0c.21-.52-.53-1.32-1.59-1.77Z"/><path id="_39-28" data-name="39" class="cls-3" d="M78.15,57.41a2.9,2.9,0,0,1-2.6-3.17l0-.37c.05-.55-.11-1-.37-1.07h0c-.27,0-.52.43-.57,1l0,.37a2.9,2.9,0,0,1-3.17,2.6l-.37,0c-.55-.05-1,.11-1.07.37h0c0,.27.43.52,1,.57l.37,0a2.9,2.9,0,0,1,2.6,3.17l0,.37c-.05.55.11,1,.37,1.07h0c.27,0,.52-.43.57-1l0-.37a2.9,2.9,0,0,1,3.17-2.6l.37,0c.55.05,1-.11,1.07-.37h0c0-.27-.43-.52-1-.57Z"/><path id="_10-25" data-name="10" class="cls-2" d="M71.65,77h0a25.86,25.86,0,0,0-3.82,2.3,25.86,25.86,0,0,0-2.63-3.61h0a25.86,25.86,0,0,0,2.3,3.82,25.86,25.86,0,0,0-3.61,2.63h0a25.85,25.85,0,0,0,3.82-2.3,25.85,25.85,0,0,0,2.63,3.61h0A25.85,25.85,0,0,0,68,79.64,25.84,25.84,0,0,0,71.65,77Z"/><path id="_39-29" data-name="39" class="cls-2" d="M157.53,88.24a4.7,4.7,0,0,1-5.86,3.14l-.57-.17c-.85-.26-1.68-.16-1.81.26v0c-.12.41.52,1,1.37,1.22l.57.17a4.7,4.7,0,0,1,3.14,5.86l-.17.57c-.26.85-.16,1.68.26,1.81h0c.41.12,1-.52,1.22-1.37l.17-.57A4.7,4.7,0,0,1,161.71,96l.57.17c.85.26,1.68.16,1.81-.26v0c.12-.41-.52-1-1.37-1.22l-.57-.17A4.7,4.7,0,0,1,159,88.69l.17-.57c.26-.85.16-1.68-.25-1.81h0c-.41-.12-1,.52-1.22,1.37Z"/><path id="_39-30" data-name="39" class="cls-3" d="M149.8,75.3a2.9,2.9,0,0,1-2.86,2.95h-.37c-.55,0-1,.22-1,.49h0c0,.27.49.47,1,.46H147a2.9,2.9,0,0,1,2.95,2.86v.37c0,.55.22,1,.49,1h0c.27,0,.47-.49.46-1V82a2.9,2.9,0,0,1,2.86-2.95h.37c.55,0,1-.22,1-.49h0c0-.27-.49-.47-1-.46h-.37a2.9,2.9,0,0,1-2.95-2.86v-.37c0-.55-.22-1-.49-1h0c-.27,0-.47.49-.46,1Z"/><path id="_10-26" data-name="10" class="cls-2" d="M162.92,77.46h0a25.86,25.86,0,0,0,3.5,2.78A25.86,25.86,0,0,0,163.95,84h0a25.86,25.86,0,0,0,2.78-3.5,25.86,25.86,0,0,0,3.72,2.46h0a25.85,25.85,0,0,0-3.5-2.78,25.85,25.85,0,0,0,2.46-3.72h0a25.85,25.85,0,0,0-2.78,3.5A25.84,25.84,0,0,0,162.92,77.46Z"/><path id="_39-31" data-name="39" class="cls-2" d="M158.25,137.16a2.54,2.54,0,0,1,1.08-3.43l.29-.15c.43-.22.71-.57.61-.78h0c-.11-.21-.56-.18-1,0l-.29.15a2.54,2.54,0,0,1-3.43-1.08l-.15-.29c-.22-.43-.57-.71-.78-.61h0c-.2.11-.18.56,0,1l.15.29a2.54,2.54,0,0,1-1.08,3.43l-.29.15c-.43.22-.71.57-.61.78h0c.11.21.56.18,1,0l.29-.15a2.54,2.54,0,0,1,3.43,1.08l.15.29c.22.43.57.71.78.61h0c.21-.11.18-.56,0-1Z"/><path id="_39-32" data-name="39" class="cls-2" d="M94.85,70.38a4.61,4.61,0,0,1-6.13,2.22l-.53-.25c-.79-.37-1.61-.39-1.8,0h0c-.17.39.37,1,1.16,1.37l.53.25a4.61,4.61,0,0,1,2.22,6.13l-.25.53c-.37.79-.39,1.61,0,1.8h0c.39.17,1-.37,1.37-1.16l.25-.53a4.61,4.61,0,0,1,6.13-2.22l.53.25c.79.37,1.61.39,1.8,0h0c.17-.39-.37-1-1.16-1.37l-.53-.25A4.61,4.61,0,0,1,96.23,71l.25-.53c.37-.79.39-1.61,0-1.8h0c-.39-.17-1,.37-1.37,1.16Z"/><path id="_39-33" data-name="39" class="cls-2" d="M93.31,60.7a2.19,2.19,0,0,1-2.45,1.89l-.28,0c-.41-.05-.78.06-.81.26h0c0,.2.31.4.72.45l.28,0a2.19,2.19,0,0,1,1.89,2.45l0,.28c-.05.41.06.78.26.81h0c.2,0,.4-.31.45-.72l0-.28A2.19,2.19,0,0,1,95.82,64l.28,0c.41.05.78-.06.81-.26h0c0-.2-.31-.4-.72-.45l-.28,0A2.19,2.19,0,0,1,94,60.79l0-.28c.05-.41-.06-.78-.26-.81h0c-.2,0-.4.31-.45.72Z"/><path id="_10-27" data-name="10" class="cls-2" d="M102.87,63.73h0a19.52,19.52,0,0,0,2.31,2.45,19.51,19.51,0,0,0-2.24,2.51h0a19.51,19.51,0,0,0,2.45-2.31,19.51,19.51,0,0,0,2.51,2.24h0a19.51,19.51,0,0,0-2.31-2.45,19.5,19.5,0,0,0,2.24-2.51h0A19.51,19.51,0,0,0,105.38,66,19.5,19.5,0,0,0,102.87,63.73Z"/><path id="_10-28" data-name="10" class="cls-2" d="M37.41,75.17h0a22.65,22.65,0,0,0-2.76,2.77,22.64,22.64,0,0,0-3-2.51h0a22.64,22.64,0,0,0,2.77,2.76,22.64,22.64,0,0,0-2.51,3h0a22.64,22.64,0,0,0,2.76-2.77,22.64,22.64,0,0,0,3,2.51h0a22.64,22.64,0,0,0-2.77-2.76A22.63,22.63,0,0,0,37.41,75.17Z"/><path id="_10-29" data-name="10" class="cls-3" d="M21.12,81.34h0c-.2-.06-1.36,3.46-2.44,7.11-3.65-1.07-7.23-2-7.29-1.82v0c-.06.2,3.46,1.36,7.11,2.44-1.07,3.65-2,7.23-1.82,7.29h0c.2.06,1.36-3.46,2.44-7.11,3.65,1.07,7.23,2,7.29,1.82v0c.06-.2-3.46-1.36-7.11-2.44C20.38,85,21.33,81.4,21.12,81.34Z"/><path id="_10-30" data-name="10" class="cls-3" d="M67.13,128.22h0a22.65,22.65,0,0,0-1.82,3.46,22.64,22.64,0,0,0-3.6-1.51h0A22.64,22.64,0,0,0,65.15,132a22.64,22.64,0,0,0-1.51,3.6h0a22.64,22.64,0,0,0,1.82-3.46,22.64,22.64,0,0,0,3.6,1.51h0a22.64,22.64,0,0,0-3.46-1.82A22.63,22.63,0,0,0,67.13,128.22Z"/><path id="_39-34" data-name="39" class="cls-2" d="M60.59,133.84a2.54,2.54,0,0,1-2.28-2.78l0-.32c0-.48-.09-.91-.33-.93h0c-.23,0-.45.38-.5.85l0,.32a2.54,2.54,0,0,1-2.78,2.28l-.32,0c-.48,0-.91.09-.93.33h0c0,.23.38.45.85.5l.32,0a2.54,2.54,0,0,1,2.28,2.78l0,.32c0,.48.09.91.33.93h0c.23,0,.45-.38.5-.85l0-.32a2.54,2.54,0,0,1,2.78-2.28l.32,0c.48,0,.91-.09.93-.33h0c0-.23-.38-.45-.85-.5Z"/><path id="_39-35" data-name="39" class="cls-3" d="M106.85,99.7a5.35,5.35,0,0,1,4.37-6.18l.67-.11c1-.17,1.79-.7,1.72-1.18v0c-.09-.48-1-.71-2-.54l-.67.11a5.35,5.35,0,0,1-6.18-4.37l-.11-.67c-.17-1-.7-1.79-1.18-1.72h0c-.48.09-.71,1-.54,2l.11.67a5.35,5.35,0,0,1-4.37,6.18L98,94c-1,.17-1.79.7-1.72,1.18v0c.09.48,1,.71,2,.54l.67-.11a5.35,5.35,0,0,1,6.18,4.37l.11.67c.17,1,.7,1.79,1.18,1.72h0c.48-.09.71-1,.54-2Z"/><path id="_10-31" data-name="10" class="cls-2" d="M101.41,107.37h0a22.65,22.65,0,0,0-3.83-.81,22.64,22.64,0,0,0,.47-3.88h0a22.64,22.64,0,0,0-.81,3.83,22.64,22.64,0,0,0-3.88-.47h0a22.64,22.64,0,0,0,3.83.81,22.64,22.64,0,0,0-.47,3.88h0a22.64,22.64,0,0,0,.81-3.83A22.63,22.63,0,0,0,101.41,107.37Z"/><path id="_39-36" data-name="39" class="cls-2" d="M120,121.73a2.54,2.54,0,0,1,1.08-3.43l.29-.15c.43-.22.71-.57.61-.78h0c-.11-.21-.56-.18-1,0l-.29.15a2.54,2.54,0,0,1-3.43-1.08l-.15-.29c-.22-.43-.57-.71-.78-.61h0c-.2.11-.18.56,0,1l.15.29a2.54,2.54,0,0,1-1.08,3.43l-.29.15c-.43.22-.71.57-.61.78h0c.11.21.56.18,1,0l.29-.15a2.54,2.54,0,0,1,3.43,1.08l.15.29c.22.43.57.71.78.61h0c.21-.11.18-.56,0-1Z"/><path id="_39-37" data-name="39" class="cls-2" d="M108.35,124a6.11,6.11,0,0,1-3.19-8l.31-.71c.46-1.06.45-2.15-.06-2.38h0c-.52-.21-1.32.53-1.77,1.59l-.31.71a6.11,6.11,0,0,1-8,3.19l-.71-.31c-1.06-.46-2.15-.45-2.38.06v0c-.21.52.53,1.32,1.59,1.77l.71.31a6.11,6.11,0,0,1,3.19,8l-.31.71c-.46,1.06-.45,2.15.06,2.38h0c.52.21,1.32-.53,1.77-1.59l.31-.71a6.11,6.11,0,0,1,8-3.19l.71.31c1.06.46,2.15.45,2.38-.06v0c.21-.52-.53-1.32-1.59-1.77Z"/><path id="_39-38" data-name="39" class="cls-2" d="M122.07,97.34a2.19,2.19,0,0,1-2.45,1.89l-.28,0c-.41-.05-.78.06-.81.26h0c0,.2.31.4.72.45l.28,0a2.19,2.19,0,0,1,1.89,2.45l0,.28c-.05.41.06.78.26.81h0c.2,0,.4-.31.45-.72l0-.28a2.19,2.19,0,0,1,2.45-1.89l.28,0c.41.05.78-.06.81-.26h0c0-.2-.31-.4-.72-.45l-.28,0a2.19,2.19,0,0,1-1.89-2.45l0-.28c.05-.41-.06-.78-.26-.81h0c-.2,0-.4.31-.45.72Z"/><path id="_10-32" data-name="10" class="cls-2" d="M136.7,144.24h0a22.65,22.65,0,0,0-2.57-2.95,22.64,22.64,0,0,0,2.71-2.82h0A22.64,22.64,0,0,0,133.9,141a22.64,22.64,0,0,0-2.82-2.71h0a22.64,22.64,0,0,0,2.57,2.95,22.64,22.64,0,0,0-2.71,2.82h0a22.64,22.64,0,0,0,2.95-2.57A22.63,22.63,0,0,0,136.7,144.24Z"/><path id="_10-33" data-name="10" class="cls-2" d="M131.17,128.64h0c-.13-.17-3.17,1.94-6.24,4.18-2.26-3.06-4.54-6-4.71-5.85h0c-.17.13,1.94,3.17,4.18,6.24-3.06,2.26-6,4.54-5.85,4.71h0c.13.17,3.17-1.94,6.24-4.18,2.26,3.06,4.54,6,4.71,5.85h0c.17-.13-1.94-3.17-4.19-6.24C128.38,131.09,131.29,128.81,131.17,128.64Z"/><path id="_39-39" data-name="39" class="cls-2" d="M21.94,62.4a6.11,6.11,0,0,1-3.19-8l.31-.71c.46-1.06.45-2.15-.06-2.38h0c-.52-.21-1.32.53-1.77,1.59l-.31.71a6.11,6.11,0,0,1-8,3.19l-.71-.31C7.1,56,6,56,5.78,56.52v0c-.21.52.53,1.32,1.59,1.77l.71.31a6.11,6.11,0,0,1,3.19,8l-.31.71c-.46,1.06-.45,2.15.06,2.38h0c.52.21,1.32-.53,1.77-1.59l.31-.71a6.11,6.11,0,0,1,8-3.19l.71.31c1.06.46,2.15.45,2.38-.06v0c.21-.52-.53-1.32-1.59-1.77Z"/><path id="_10-34" data-name="10" class="cls-2" d="M49.15,121.47h0c-.13-.17-3.17,1.94-6.24,4.18-2.26-3.06-4.54-6-4.71-5.85h0c-.17.13,1.94,3.17,4.18,6.24-3.06,2.26-6,4.54-5.85,4.71h0c.13.17,3.17-1.94,6.24-4.18,2.26,3.06,4.54,6,4.71,5.85h0c.17-.13-1.94-3.17-4.19-6.24C46.35,123.92,49.27,121.64,49.15,121.47Z"/><path id="_10-35" data-name="10" class="cls-2" d="M16.92,105.43h0a19.52,19.52,0,0,0,2.31,2.45A19.51,19.51,0,0,0,17,110.4h0a19.51,19.51,0,0,0,2.45-2.31A19.51,19.51,0,0,0,22,110.34h0a19.51,19.51,0,0,0-2.31-2.45,19.5,19.5,0,0,0,2.24-2.51h0a19.51,19.51,0,0,0-2.45,2.31A19.5,19.5,0,0,0,16.92,105.43Z"/><path id="_39-40" data-name="39" class="cls-3" d="M35.07,62.44a3.78,3.78,0,0,1-5.19-1.26l-.25-.41c-.37-.61-.92-1-1.22-.82h0c-.29.18-.2.85.17,1.46l.25.41A3.78,3.78,0,0,1,27.55,67l-.41.25c-.61.37-1,.92-.82,1.22h0c.18.29.85.2,1.46-.17l.41-.25a3.78,3.78,0,0,1,5.19,1.26l.25.41c.37.61.92,1,1.22.82h0c.29-.18.2-.85-.17-1.46l-.25-.41a3.78,3.78,0,0,1,1.26-5.19l.41-.25c.61-.37,1-.92.82-1.22h0c-.18-.29-.85-.2-1.46.17Z"/><path id="_39-41" data-name="39" class="cls-2" d="M33.36,121.76a2.54,2.54,0,0,1,1.08-3.43l.29-.15c.43-.22.71-.57.61-.78h0c-.11-.21-.56-.18-1,0l-.29.15a2.54,2.54,0,0,1-3.43-1.08l-.15-.29c-.22-.43-.57-.71-.78-.61h0c-.2.11-.18.56,0,1l.15.29a2.54,2.54,0,0,1-1.08,3.43l-.29.15c-.43.22-.71.57-.61.78h0c.11.21.56.18,1,0l.29-.15a2.54,2.54,0,0,1,3.43,1.08l.15.29c.22.43.57.71.78.61h0c.21-.11.18-.56,0-1Z"/><path id="_10-36" data-name="10" class="cls-2" d="M22.23,126.78h0a22.65,22.65,0,0,0-3.83-.81,22.64,22.64,0,0,0,.47-3.88h0a22.64,22.64,0,0,0-.81,3.83,22.64,22.64,0,0,0-3.88-.47h0a22.64,22.64,0,0,0,3.83.81,22.64,22.64,0,0,0-.47,3.88h0a22.64,22.64,0,0,0,.81-3.83A22.63,22.63,0,0,0,22.23,126.78Z"/><path id="_39-42" data-name="39" class="cls-2" d="M40.83,141.14a2.54,2.54,0,0,1,1.08-3.43l.29-.15c.43-.22.71-.57.61-.78h0c-.11-.21-.56-.18-1,0l-.29.15a2.54,2.54,0,0,1-3.43-1.08l-.15-.29c-.22-.43-.57-.71-.78-.61h0c-.2.11-.18.56,0,1l.15.29a2.54,2.54,0,0,1-1.08,3.43l-.29.15c-.43.22-.71.57-.61.78h0c.11.21.56.18,1,0l.29-.15a2.54,2.54,0,0,1,3.43,1.08l.15.29c.22.43.57.71.78.61h0c.21-.11.18-.56,0-1Z"/><path id="_10-37" data-name="10" class="cls-2" d="M19.28,148.22h0a22.65,22.65,0,0,0-2.57-2.95,22.64,22.64,0,0,0,2.71-2.82h0A22.64,22.64,0,0,0,16.48,145a22.64,22.64,0,0,0-2.82-2.71h0a22.64,22.64,0,0,0,2.57,2.95,22.64,22.64,0,0,0-2.71,2.82h0a22.64,22.64,0,0,0,2.95-2.57A22.63,22.63,0,0,0,19.28,148.22Z"/><path id="_10-38" data-name="10" class="cls-3" d="M13.75,132.62h0c-.13-.17-3.17,1.94-6.24,4.18-2.26-3.06-4.54-6-4.71-5.85h0c-.17.13,1.94,3.17,4.18,6.24-3.06,2.26-6,4.54-5.85,4.71h0c.13.17,3.17-1.94,6.24-4.18,2.26,3.06,4.54,6,4.71,5.85h0c.17-.13-1.94-3.17-4.19-6.24C11,135.07,13.87,132.79,13.75,132.62Z"/><path id="_39-43" data-name="39" class="cls-3" d="M118.57,65.9a5.35,5.35,0,0,1,6.74-3.44l.65.21c1,.31,1.91.22,2.07-.25v0c.14-.47-.57-1.1-1.53-1.42l-.65-.21A5.35,5.35,0,0,1,122.42,54l.21-.65c.31-1,.22-1.91-.25-2.07h0c-.47-.14-1.1.57-1.42,1.53l-.21.65A5.35,5.35,0,0,1,114,56.93l-.65-.21c-1-.31-1.91-.22-2.07.25v0c-.14.47.57,1.1,1.53,1.42l.65.21a5.35,5.35,0,0,1,3.44,6.74l-.21.65c-.31,1-.22,1.91.25,2.07h0c.47.14,1.1-.57,1.42-1.53Z"/><path id="_39-44" data-name="39" class="cls-3" d="M179.11,64.84a2.54,2.54,0,0,1,1.08-3.43l.29-.15c.43-.22.71-.57.61-.78h0c-.11-.21-.56-.18-1,0l-.29.15a2.54,2.54,0,0,1-3.43-1.08l-.15-.29c-.22-.43-.57-.71-.78-.61h0c-.2.11-.18.56,0,1l.15.29a2.54,2.54,0,0,1-1.08,3.43l-.29.15c-.43.22-.71.57-.61.78h0c.11.21.56.18,1,0l.29-.15a2.54,2.54,0,0,1,3.43,1.08l.15.29c.22.43.57.71.78.61h0c.21-.11.18-.56,0-1Z"/><path id="_10-39" data-name="10" class="cls-3" d="M157.57,71.91h0A22.65,22.65,0,0,0,155,69a22.64,22.64,0,0,0,2.71-2.82h0a22.64,22.64,0,0,0-2.95,2.57A22.64,22.64,0,0,0,151.95,66h0a22.64,22.64,0,0,0,2.57,2.95,22.64,22.64,0,0,0-2.71,2.82h0a22.64,22.64,0,0,0,2.95-2.57A22.63,22.63,0,0,0,157.57,71.91Z"/><path id="_10-40" data-name="10" class="cls-3" d="M152,56.31h0c-.13-.17-3.17,1.94-6.24,4.18-2.26-3.06-4.54-6-4.71-5.85h0c-.17.13,1.94,3.17,4.18,6.24-3.06,2.26-6,4.54-5.85,4.71h0c.13.17,3.17-1.94,6.24-4.18,2.26,3.06,4.54,6,4.71,5.85h0c.17-.13-1.94-3.17-4.19-6.24C149.24,58.77,152.16,56.49,152,56.31Z"/><path id="_39-45" data-name="39" class="cls-2" d="M186.91,68.44a4.7,4.7,0,0,1-5.86,3.14l-.57-.17c-.85-.26-1.68-.16-1.81.26v0c-.12.41.52,1,1.37,1.22l.57.17a4.7,4.7,0,0,1,3.14,5.86l-.17.57c-.26.85-.16,1.68.26,1.81h0c.41.12,1-.52,1.22-1.37l.17-.57a4.7,4.7,0,0,1,5.86-3.14l.57.17c.85.26,1.68.16,1.81-.26v0c.12-.41-.52-1-1.37-1.22l-.57-.17a4.7,4.7,0,0,1-3.14-5.86l.17-.57c.26-.85.16-1.68-.25-1.81h0c-.41-.12-1,.52-1.22,1.37Z"/><path id="_39-46" data-name="39" class="cls-3" d="M188.65,115.27a2.54,2.54,0,0,1-2.68-2.39l0-.32c0-.48-.23-.88-.47-.87h0c-.23,0-.39.44-.36.92l0,.32a2.54,2.54,0,0,1-2.39,2.68l-.32,0c-.48,0-.88.23-.87.47h0c0,.23.44.39.92.36l.32,0a2.54,2.54,0,0,1,2.68,2.39l0,.32c0,.48.23.88.47.87h0c.23,0,.39-.44.36-.92l0-.32a2.54,2.54,0,0,1,2.39-2.68l.32,0c.48,0,.88-.23.87-.47h0c0-.23-.44-.39-.92-.36Z"/><path id="_10-41" data-name="10" class="cls-3" d="M175.63,125.11h0a22.65,22.65,0,0,0-1.82,3.46,22.64,22.64,0,0,0-3.6-1.51h0a22.64,22.64,0,0,0,3.46,1.82,22.64,22.64,0,0,0-1.51,3.6h0A22.64,22.64,0,0,0,174,129a22.64,22.64,0,0,0,3.6,1.51h0a22.64,22.64,0,0,0-3.46-1.82A22.63,22.63,0,0,0,175.63,125.11Z"/><path id="_39-47" data-name="39" class="cls-2" d="M187.81,146a2.54,2.54,0,0,1,1.08-3.43l.29-.15c.43-.22.71-.57.61-.78h0c-.11-.21-.56-.18-1,0l-.29.15a2.54,2.54,0,0,1-3.43-1.08l-.15-.29c-.22-.43-.57-.71-.78-.61h0c-.2.11-.18.56,0,1l.15.29a2.54,2.54,0,0,1-1.08,3.43l-.29.15c-.43.22-.71.57-.61.78h0c.11.21.56.18,1,0l.29-.15a2.54,2.54,0,0,1,3.43,1.08l.15.29c.22.43.57.71.78.61h0c.21-.11.18-.56,0-1Z"/><path id="_39-48" data-name="39" class="cls-3" d="M90.69,138.85a4.33,4.33,0,0,1-4.45-4.2l0-.55c0-.82-.36-1.51-.75-1.51h0c-.4,0-.69.73-.66,1.55l0,.55a4.33,4.33,0,0,1-4.2,4.45l-.55,0c-.82,0-1.51.36-1.51.75v0c0,.4.73.69,1.55.66l.55,0a4.33,4.33,0,0,1,4.45,4.2l0,.55c0,.82.36,1.51.75,1.51h0c.4,0,.69-.73.66-1.55l0-.55a4.33,4.33,0,0,1,4.2-4.45l.55,0c.82,0,1.51-.36,1.51-.75v0c0-.4-.73-.69-1.55-.66Z"/><path id="_39-49" data-name="39" class="cls-3" d="M109,140.12a2.54,2.54,0,0,1-2.28-2.78l0-.32c0-.48-.09-.91-.33-.93h0c-.23,0-.45.38-.5.85l0,.32a2.54,2.54,0,0,1-2.78,2.28l-.32,0c-.48,0-.91.09-.93.33h0c0,.23.38.45.85.5l.32,0a2.54,2.54,0,0,1,2.28,2.78l0,.32c0,.48.09.91.33.93h0c.23,0,.45-.38.5-.85l0-.32A2.54,2.54,0,0,1,109,141l.32,0c.48,0,.91-.09.93-.33h0c0-.23-.38-.45-.85-.5Z"/><path id="_10-42" data-name="10" class="cls-2" d="M62.8,142.26h0A22.65,22.65,0,0,0,60,145a22.64,22.64,0,0,0-3-2.51h0a22.64,22.64,0,0,0,2.77,2.76,22.64,22.64,0,0,0-2.51,3h0A22.64,22.64,0,0,0,60,145.51,22.64,22.64,0,0,0,63,148h0a22.64,22.64,0,0,0-2.77-2.76A22.63,22.63,0,0,0,62.8,142.26Z"/><path id="_39-50" data-name="39" class="cls-3" d="M10.86,99.56A3.78,3.78,0,0,1,5.67,98.3l-.25-.41c-.37-.61-.92-1-1.22-.82h0c-.29.18-.2.85.17,1.46L4.6,99a3.78,3.78,0,0,1-1.26,5.19l-.41.25c-.61.37-1,.92-.82,1.22h0c.18.29.85.2,1.46-.17l.41-.25a3.78,3.78,0,0,1,5.19,1.26l.25.41c.37.61.92,1,1.22.82h0c.29-.18.2-.85-.17-1.46l-.25-.41a3.78,3.78,0,0,1,1.26-5.19l.41-.25c.61-.37,1-.92.82-1.22h0c-.18-.29-.85-.2-1.46.17Z"/><path id="_39-51" data-name="39" class="cls-2" d="M141.57,201.93a5.35,5.35,0,0,1-2.8-7l.27-.62c.4-.93.39-1.88-.05-2.08h0c-.45-.19-1.15.46-1.55,1.39l-.27.62a5.35,5.35,0,0,1-7,2.8l-.62-.27c-.93-.4-1.88-.39-2.08.05v0c-.19.45.46,1.15,1.39,1.55l.62.27a5.35,5.35,0,0,1,2.79,7l-.27.62c-.4.93-.39,1.88.05,2.08h0c.45.19,1.15-.46,1.55-1.39l.27-.62a5.35,5.35,0,0,1,7-2.8l.62.27c.93.4,1.88.39,2.08-.05v0c.19-.45-.46-1.15-1.39-1.55Z"/><path id="_39-52" data-name="39" class="cls-3" d="M149.47,195.63a2.54,2.54,0,0,1-2.28-2.78l0-.32c0-.48-.09-.91-.33-.93h0c-.23,0-.45.38-.5.85l0,.32a2.54,2.54,0,0,1-2.78,2.28l-.32,0c-.48,0-.91.09-.93.33h0c0,.23.38.45.85.5l.32,0a2.54,2.54,0,0,1,2.28,2.78l0,.32c0,.48.09.91.33.93h0c.23,0,.45-.38.5-.85l0-.32a2.54,2.54,0,0,1,2.78-2.28l.32,0c.48,0,.91-.09.93-.33h0c0-.23-.38-.45-.85-.5Z"/><path id="_39-53" data-name="39" class="cls-3" d="M183.33,188a3.78,3.78,0,0,1-5.19-1.26l-.25-.41c-.37-.61-.92-1-1.22-.82h0c-.29.18-.2.85.17,1.46l.25.41a3.78,3.78,0,0,1-1.26,5.19l-.41.25c-.61.37-1,.92-.82,1.22h0c.18.29.85.2,1.46-.17l.41-.25a3.78,3.78,0,0,1,5.19,1.26l.25.41c.37.61.92,1,1.22.82h0c.29-.18.2-.85-.17-1.46l-.25-.41a3.78,3.78,0,0,1,1.26-5.19l.41-.25c.61-.37,1-.92.82-1.22h0c-.18-.29-.85-.2-1.46.17Z"/><path id="_10-43" data-name="10" class="cls-2" d="M173.19,201.56v0c-.06-.2-3.67.61-7.35,1.54-.95-3.68-2-7.24-2.18-7.19h0c-.2.06.61,3.67,1.54,7.35-3.68.95-7.24,2-7.19,2.18v0c.06.2,3.67-.61,7.35-1.54.95,3.68,2,7.24,2.18,7.19h0c.2-.06-.61-3.67-1.54-7.35C169.69,202.79,173.24,201.76,173.19,201.56Z"/><path id="_39-54" data-name="39" class="cls-2" d="M163.26,167.56a6.11,6.11,0,0,1-3.19-8l.31-.71c.46-1.06.45-2.15-.06-2.38h0c-.52-.21-1.32.53-1.77,1.59l-.31.71a6.11,6.11,0,0,1-8,3.19l-.71-.31c-1.06-.46-2.15-.45-2.38.06v0c-.21.52.53,1.32,1.59,1.77l.71.31a6.11,6.11,0,0,1,3.19,8l-.31.71c-.46,1.06-.45,2.15.06,2.38h0c.52.21,1.32-.53,1.77-1.59l.31-.71a6.11,6.11,0,0,1,8-3.19l.71.31c1.06.46,2.15.45,2.38-.06v0c.21-.52-.53-1.32-1.59-1.77Z"/><path id="_39-55" data-name="39" class="cls-3" d="M176.87,157.41a2.9,2.9,0,0,1-2.6-3.17l0-.37c.05-.55-.11-1-.37-1.07h0c-.27,0-.52.43-.57,1l0,.37a2.9,2.9,0,0,1-3.17,2.6l-.37,0c-.55-.05-1,.11-1.07.37h0c0,.27.43.52,1,.57l.37,0a2.9,2.9,0,0,1,2.6,3.17l0,.37c-.05.55.11,1,.37,1.07h0c.27,0,.52-.43.57-1l0-.37a2.9,2.9,0,0,1,3.17-2.6l.37,0c.55.05,1-.11,1.07-.37h0c0-.27-.43-.52-1-.57Z"/><path id="_10-44" data-name="10" class="cls-2" d="M170.37,177h0a25.86,25.86,0,0,0-3.82,2.3,25.86,25.86,0,0,0-2.63-3.61h0a25.86,25.86,0,0,0,2.3,3.82,25.86,25.86,0,0,0-3.61,2.63h0a25.85,25.85,0,0,0,3.82-2.3,25.85,25.85,0,0,0,2.63,3.61h0a25.85,25.85,0,0,0-2.3-3.82A25.84,25.84,0,0,0,170.37,177Z"/><path id="_39-56" data-name="39" class="cls-2" d="M193.57,170.38a4.61,4.61,0,0,1-6.13,2.22l-.53-.25c-.79-.37-1.61-.39-1.8,0h0c-.17.39.37,1,1.16,1.37l.53.25a4.61,4.61,0,0,1,2.22,6.13l-.25.53c-.37.79-.39,1.61,0,1.8h0c.39.17,1-.37,1.37-1.16l.25-.53a4.61,4.61,0,0,1,6.13-2.22l.53.25c.79.37,1.61.39,1.8,0h0c.17-.39-.37-1-1.16-1.37l-.53-.25A4.61,4.61,0,0,1,195,171l.25-.53c.37-.79.39-1.61,0-1.8h0c-.39-.17-1,.37-1.37,1.16Z"/><path id="_39-57" data-name="39" class="cls-2" d="M192,160.7a2.19,2.19,0,0,1-2.45,1.89l-.28,0c-.41-.05-.78.06-.81.26h0c0,.2.31.4.72.45l.28,0a2.19,2.19,0,0,1,1.89,2.45l0,.28c-.05.41.06.78.26.81h0c.2,0,.4-.31.45-.72l0-.28a2.19,2.19,0,0,1,2.45-1.89l.28,0c.41.05.78-.06.81-.26h0c0-.2-.31-.4-.72-.45l-.28,0a2.19,2.19,0,0,1-1.89-2.45l0-.28c.05-.41-.06-.78-.26-.81h0c-.2,0-.4.31-.45.72Z"/><path id="_10-45" data-name="10" class="cls-2" d="M136.13,175.17h0a22.65,22.65,0,0,0-2.76,2.77,22.64,22.64,0,0,0-3-2.51h0a22.64,22.64,0,0,0,2.77,2.76,22.64,22.64,0,0,0-2.51,3h0a22.64,22.64,0,0,0,2.76-2.77,22.64,22.64,0,0,0,3,2.51h0a22.64,22.64,0,0,0-2.77-2.76A22.63,22.63,0,0,0,136.13,175.17Z"/><path id="_10-46" data-name="10" class="cls-3" d="M119.84,181.34h0c-.2-.06-1.36,3.46-2.44,7.11-3.65-1.07-7.23-2-7.29-1.82v0c-.06.2,3.46,1.36,7.11,2.44-1.07,3.65-2,7.23-1.82,7.29h0c.2.06,1.36-3.46,2.44-7.11,3.65,1.07,7.23,2,7.29,1.82v0c.06-.2-3.46-1.36-7.11-2.44C119.1,185,120,181.4,119.84,181.34Z"/><path id="_39-58" data-name="39" class="cls-3" d="M205.57,199.7a5.35,5.35,0,0,1,4.37-6.18l.67-.11c1-.17,1.79-.7,1.72-1.18v0c-.09-.48-1-.71-2-.54l-.67.11a5.35,5.35,0,0,1-6.18-4.37l-.11-.67c-.17-1-.7-1.79-1.18-1.72h0c-.48.09-.71,1-.54,2l.11.67a5.35,5.35,0,0,1-4.37,6.18l-.67.11c-1,.17-1.79.7-1.72,1.18v0c.09.48,1,.71,2,.54l.67-.11a5.35,5.35,0,0,1,6.18,4.37l.11.67c.17,1,.7,1.79,1.18,1.72h0c.48-.09.71-1,.54-2Z"/><path id="_39-59" data-name="39" class="cls-2" d="M120.66,162.4a6.11,6.11,0,0,1-3.19-8l.31-.71c.46-1.06.45-2.15-.06-2.38h0c-.52-.21-1.32.53-1.77,1.59l-.31.71a6.11,6.11,0,0,1-8,3.19l-.71-.31c-1.06-.46-2.15-.45-2.38.06v0c-.21.52.53,1.32,1.59,1.77l.71.31a6.11,6.11,0,0,1,3.19,8l-.31.71c-.46,1.06-.45,2.15.06,2.38h0c.52.21,1.32-.53,1.77-1.59l.31-.71a6.11,6.11,0,0,1,8-3.19l.71.31c1.06.46,2.15.45,2.38-.06v0c.21-.52-.53-1.32-1.59-1.77Z"/><path id="_39-60" data-name="39" class="cls-3" d="M133.79,162.44a3.78,3.78,0,0,1-5.19-1.26l-.25-.41c-.37-.61-.92-1-1.22-.82h0c-.29.18-.2.85.17,1.46l.25.41a3.78,3.78,0,0,1-1.26,5.19l-.41.25c-.61.37-1,.92-.82,1.22h0c.18.29.85.2,1.46-.17l.41-.25a3.78,3.78,0,0,1,5.19,1.26l.25.41c.37.61.92,1,1.22.82h0c.29-.18.2-.85-.17-1.46l-.25-.41a3.78,3.78,0,0,1,1.26-5.19l.41-.25c.61-.37,1-.92.82-1.22h0c-.18-.29-.85-.2-1.46.17Z"/><path id="_39-61" data-name="39" class="cls-3" d="M109.58,199.56a3.78,3.78,0,0,1-5.19-1.26l-.25-.41c-.37-.61-.92-1-1.22-.82h0c-.29.18-.2.85.17,1.46l.25.41a3.78,3.78,0,0,1-1.26,5.19l-.41.25c-.61.37-1,.92-.82,1.22h0c.18.29.85.2,1.46-.17l.41-.25a3.78,3.78,0,0,1,5.19,1.26l.25.41c.37.61.92,1,1.22.82h0c.29-.18.2-.85-.17-1.46l-.25-.41a3.78,3.78,0,0,1,1.26-5.19l.41-.25c.61-.37,1-.92.82-1.22h0c-.18-.29-.85-.2-1.46.17Z"/><path id="_10-47" data-name="10" class="cls-2" d="M87.1,197.26h0A22.65,22.65,0,0,0,84.33,200a22.64,22.64,0,0,0-3-2.51h0a22.64,22.64,0,0,0,2.77,2.76,22.64,22.64,0,0,0-2.51,3h0a22.64,22.64,0,0,0,2.76-2.77,22.64,22.64,0,0,0,3,2.51h0a22.64,22.64,0,0,0-2.77-2.76A22.63,22.63,0,0,0,87.1,197.26Z"/><path id="_10-48" data-name="10" class="cls-2" d="M39.11,189.3h0a22.65,22.65,0,0,0-2.57-2.95,22.64,22.64,0,0,0,2.71-2.82h0a22.64,22.64,0,0,0-2.95,2.57,22.64,22.64,0,0,0-2.82-2.71h0a22.64,22.64,0,0,0,2.57,2.95,22.64,22.64,0,0,0-2.71,2.82h0a22.64,22.64,0,0,0,2.95-2.57A22.63,22.63,0,0,0,39.11,189.3Z"/><path id="_10-49" data-name="10" class="cls-2" d="M33.58,173.7h0c-.13-.17-3.17,1.94-6.24,4.18-2.26-3.06-4.54-6-4.71-5.85h0c-.17.13,1.94,3.17,4.18,6.24-3.06,2.26-6,4.54-5.85,4.71h0c.13.17,3.17-1.94,6.24-4.18,2.26,3.06,4.54,6,4.71,5.85h0c.17-.13-1.94-3.17-4.19-6.24C30.79,176.15,33.7,173.87,33.58,173.7Z"/><path id="_39-62" data-name="39" class="cls-3" d="M42.48,211.71a5.35,5.35,0,0,1,4.37-6.18l.67-.11c1-.17,1.79-.7,1.72-1.18v0c-.09-.48-1-.71-2-.54l-.67.11a5.35,5.35,0,0,1-6.18-4.37l-.11-.67c-.17-1-.7-1.79-1.18-1.72h0c-.48.09-.71,1-.54,2l.11.67a5.35,5.35,0,0,1-4.37,6.18l-.67.11c-1,.17-1.79.7-1.72,1.18v0c.09.48,1,.71,2,.54l.67-.11A5.35,5.35,0,0,1,40.73,212l.11.67c.17,1,.7,1.79,1.18,1.72h0c.48-.09.71-1,.54-2Z"/><path id="_39-63" data-name="39" class="cls-2" d="M58.81,188.24A4.7,4.7,0,0,1,53,191.38l-.57-.17c-.85-.26-1.68-.16-1.81.26v0c-.12.41.52,1,1.37,1.22l.57.17a4.7,4.7,0,0,1,3.14,5.86l-.17.57c-.26.85-.16,1.68.26,1.81h0c.41.12,1-.52,1.22-1.37l.17-.57A4.7,4.7,0,0,1,63,196l.57.17c.85.26,1.68.16,1.81-.26v0c.12-.41-.52-1-1.37-1.22l-.57-.17a4.7,4.7,0,0,1-3.14-5.86l.17-.57c.26-.85.16-1.68-.25-1.81h0c-.41-.12-1,.52-1.22,1.37Z"/><path id="_39-64" data-name="39" class="cls-3" d="M51.08,175.3a2.9,2.9,0,0,1-2.86,2.95h-.37c-.55,0-1,.22-1,.49h0c0,.27.49.47,1,.46h.37a2.9,2.9,0,0,1,2.95,2.86v.37c0,.55.22,1,.49,1h0c.27,0,.47-.49.46-1V182A2.9,2.9,0,0,1,55,179.1h.37c.55,0,1-.22,1-.49h0c0-.27-.49-.47-1-.46H55A2.9,2.9,0,0,1,52,175.29v-.37c0-.55-.22-1-.49-1h0c-.27,0-.47.49-.46,1Z"/><path id="_10-50" data-name="10" class="cls-2" d="M64.2,177.46h0a25.86,25.86,0,0,0,3.5,2.78A25.86,25.86,0,0,0,65.23,184h0a25.86,25.86,0,0,0,2.78-3.5,25.86,25.86,0,0,0,3.72,2.46h0a25.85,25.85,0,0,0-3.5-2.78,25.85,25.85,0,0,0,2.46-3.72h0a25.85,25.85,0,0,0-2.78,3.5A25.84,25.84,0,0,0,64.2,177.46Z"/><path id="_39-65" data-name="39" class="cls-2" d="M-3.87,170.38A4.61,4.61,0,0,1-10,172.6l-.53-.25c-.79-.37-1.61-.39-1.8,0h0c-.17.39.37,1,1.16,1.37l.53.25a4.61,4.61,0,0,1,2.22,6.13l-.25.53c-.37.79-.39,1.61,0,1.8h0c.39.17,1-.37,1.37-1.16l.25-.53a4.61,4.61,0,0,1,6.13-2.22l.53.25c.79.37,1.61.39,1.8,0h0c.17-.39-.37-1-1.16-1.37l-.53-.25A4.61,4.61,0,0,1-2.49,171l.25-.53c.37-.79.39-1.61,0-1.8h0c-.39-.17-1,.37-1.37,1.16Z"/><path id="_10-51" data-name="10" class="cls-2" d="M4.15,163.73h0a19.52,19.52,0,0,0,2.31,2.45,19.51,19.51,0,0,0-2.24,2.51h0a19.51,19.51,0,0,0,2.45-2.31,19.51,19.51,0,0,0,2.51,2.24h0a19.51,19.51,0,0,0-2.31-2.45,19.5,19.5,0,0,0,2.24-2.51h0A19.51,19.51,0,0,0,6.66,166,19.5,19.5,0,0,0,4.15,163.73Z"/><path id="_39-66" data-name="39" class="cls-3" d="M8.13,199.7a5.35,5.35,0,0,1,4.37-6.18l.67-.11c1-.17,1.79-.7,1.72-1.18v0c-.09-.48-1-.71-2-.54l-.67.11A5.35,5.35,0,0,1,6,187.41l-.11-.67c-.17-1-.7-1.79-1.18-1.72h0c-.48.09-.71,1-.54,2l.11.67a5.35,5.35,0,0,1-4.37,6.18l-.67.11c-1,.17-1.79.7-1.72,1.18v0c.09.48,1,.71,2,.54l.67-.11A5.35,5.35,0,0,1,6.39,200l.11.67c.17,1,.7,1.79,1.18,1.72h0c.48-.09.71-1,.54-2Z"/><path id="_39-67" data-name="39" class="cls-2" d="M23.35,197.34a2.19,2.19,0,0,1-2.45,1.89l-.28,0c-.41-.05-.78.06-.81.26h0c0,.2.31.4.72.45l.28,0a2.19,2.19,0,0,1,1.89,2.45l0,.28c-.05.41.06.78.26.81h0c.2,0,.4-.31.45-.72l0-.28a2.19,2.19,0,0,1,2.45-1.89l.28,0c.41.05.78-.06.81-.26h0c0-.2-.31-.4-.72-.45l-.28,0a2.19,2.19,0,0,1-1.89-2.45l0-.28c.05-.41-.06-.78-.26-.81h0c-.2,0-.4.31-.45.72Z"/><path id="_39-68" data-name="39" class="cls-3" d="M19.85,165.9a5.35,5.35,0,0,1,6.74-3.44l.65.21c1,.31,1.91.22,2.07-.25v0c.14-.47-.57-1.1-1.53-1.42l-.65-.21A5.35,5.35,0,0,1,23.7,154l.21-.65c.31-1,.22-1.91-.25-2.07h0c-.47-.14-1.1.57-1.42,1.53l-.21.65a5.35,5.35,0,0,1-6.74,3.44l-.65-.21c-1-.31-1.91-.22-2.07.25v0c-.14.47.57,1.1,1.53,1.42l.65.21a5.35,5.35,0,0,1,3.44,6.74L18,166c-.31,1-.22,1.91.25,2.07h0c.47.14,1.1-.57,1.42-1.53Z"/><path id="_39-69" data-name="39" class="cls-3" d="M80.39,164.84a2.54,2.54,0,0,1,1.08-3.43l.29-.15c.43-.22.71-.57.61-.78h0c-.11-.21-.56-.18-1,0l-.29.15a2.54,2.54,0,0,1-3.43-1.08l-.15-.29c-.22-.43-.57-.71-.78-.61h0c-.2.11-.18.56,0,1l.15.29a2.54,2.54,0,0,1-1.08,3.43l-.29.15c-.43.22-.71.57-.61.78h0c.11.21.56.18,1,0l.29-.15a2.54,2.54,0,0,1,3.43,1.08l.15.29c.22.43.57.71.78.61h0c.21-.11.18-.56,0-1Z"/><path id="_10-52" data-name="10" class="cls-3" d="M58.85,171.91h0A22.65,22.65,0,0,0,56.28,169,22.64,22.64,0,0,0,59,166.15h0A22.64,22.64,0,0,0,56,168.71,22.64,22.64,0,0,0,53.23,166h0a22.64,22.64,0,0,0,2.57,2.95,22.64,22.64,0,0,0-2.71,2.82h0A22.64,22.64,0,0,0,56,169.2,22.63,22.63,0,0,0,58.85,171.91Z"/><path id="_10-53" data-name="10" class="cls-3" d="M53.31,156.31h0c-.13-.17-3.17,1.94-6.24,4.18-2.26-3.06-4.54-6-4.71-5.85h0c-.17.13,1.94,3.17,4.18,6.24-3.06,2.26-6,4.54-5.85,4.71h0c.13.17,3.17-1.94,6.24-4.18,2.26,3.06,4.54,6,4.71,5.85h0c.17-.13-1.94-3.17-4.19-6.24C50.52,158.77,53.44,156.49,53.31,156.31Z"/><path id="_39-70" data-name="39" class="cls-2" d="M88.19,168.44a4.7,4.7,0,0,1-5.86,3.14l-.57-.17c-.85-.26-1.68-.16-1.81.26v0c-.12.41.52,1,1.37,1.22l.57.17A4.7,4.7,0,0,1,85,178.92l-.17.57c-.26.85-.16,1.68.26,1.81h0c.41.12,1-.52,1.22-1.37l.17-.57a4.7,4.7,0,0,1,5.86-3.14l.57.17c.85.26,1.68.16,1.81-.26v0c.12-.41-.52-1-1.37-1.22l-.57-.17a4.7,4.7,0,0,1-3.14-5.86l.17-.57c.26-.85.16-1.68-.25-1.81h0c-.41-.12-1,.52-1.22,1.37Z"/></pattern></defs><title>Artboard 5</title><path class="cls-4" d="M1212.33,378.65a19.11,19.11,0,1,1-19.11-19.11A19.11,19.11,0,0,1,1212.33,378.65Z"/><path class="cls-5" d="M1212.33,378.65a19.11,19.11,0,1,1-19.11-19.11A19.11,19.11,0,0,1,1212.33,378.65Z"/><circle class="cls-6" cx="1193.24" cy="378.25" r="14.59"/><path class="cls-7" d="M1151,344.4c-1,0-1,6.6,0,6.6h32c1,0-.17-6.54-.17-6.54C1182.8,343.49,1151,344.4,1151,344.4Z"/><path class="cls-7" d="M1182.9,358.23a24,24,0,0,0-7.15,4.77H1151c-1,0-1-6.6,0-6.6,0,0,31.79-.69,31.79.28A6.45,6.45,0,0,0,1182.9,358.23Z"/><path class="cls-7" d="M1173.4,366.86a28.52,28.52,0,0,0-3.11,7.14H1153c-1,0-1-6.6,0-6.6C1153,367.4,1164.21,366.79,1173.4,366.86Z"/><path class="cls-7" d="M1169.92,378.5A18.65,18.65,0,0,0,1171,385h-19c-1,0-1-6.6,0-6.6,0,0,9.44-.37,18.14-.33C1170.13,378.29,1169.92,378.28,1169.92,378.5Z"/><path class="cls-7" d="M1179,396h-26c-1,0-1-6.6,0-6.6,0,0,10.61-.61,19.67-.55A20.27,20.27,0,0,0,1179,396Z"/><path class="cls-7" d="M1007,376.4c-1,0-1,6.6,0,6.6h32c1,0-.17-6.54-.17-6.54C1038.8,375.49,1007,376.4,1007,376.4Z"/><path class="cls-8" d="M523.51,239.48c0-2.56-2-5-4.44-5H507.32a5.15,5.15,0,0,0-4.81,5v11h21Z"/><polyline class="cls-8" points="523.51 396 523.51 286.5 502.51 286.5 502.51 396"/><path class="cls-9" d="M593.88,266.61,580.5,255.75c-4.9-5-8-4.26-8-4.26L557.89,251H447.16c-3.8,0-8.14,1.77-8.14,4.91V285.5c0,3.14,4.56,7.4,8.35,7.4l125-.82c2.19,0,5.11-2.91,5.11-2.91s11.6-10.49,16.32-14.47.06-8.1.06-8.1"/><path class="cls-10" d="M457.78,325.25l8.68,11.85c3.18,5,5.22,4.83,5.22,4.83l9.45.06h71.82c2.46,0,3.08-2.91,3.08-6V306.36c0-3.14-.61-5.36-3.08-5.36H481.12l-9.34.8c-1.42,0-3.35,2.4-3.35,2.4s-7.54,9.25-10.6,13.23a6.49,6.49,0,0,0-.06,7.83"/><path class="cls-11" d="M237.53,393a77.54,77.54,0,1,1,77.54-77.54A77.63,77.63,0,0,1,237.53,393Z"/><circle class="cls-12" cx="237.53" cy="315.48" r="72.91"/><rect class="cls-13" x="262.51" y="339.5" width="2" height="9"/><path class="cls-14" d="M173,323h12v16h23V258H150v81h23Z"/><path class="cls-6" d="M173.59,323.9h11v16h24v-81h-59v81h24Zm27-47h-10v-10h10Zm0,17h-10v-10h10Zm0,17h-10v-10h10Zm-16-34h-10v-10h10Zm0,17h-10v-10h10Zm0,17h-10v-10h10Zm-17,0h-10v-10h10Zm0-17h-10v-10h10Zm0-17h-10v-10h10Z"/><path class="cls-14" d="M261.64,317.73l-8.27-4.14a14,14,0,0,1-3.51-3.11l-.3-4.61s5.57-7,5.57-15.93c0-10.63-6.86-20.44-15.41-20.77-9.18-.36-16.62,9.55-15.57,20.77.83,8.9,7.25,16.06,7.25,16.06l-1.2,4.48a14,14,0,0,1-3.51,3.11l-7.89,4.14c-9.48,3.18-18.77,7.66-18.77,16.81v18.33c0,.69-.08,1.29.44,1.56l77.39-1.5c.8,0,2.17-1,1.17-1.89V334.86C279,325.72,271.12,320.91,261.64,317.73Z"/><path class="cls-15" d="M261.61,317.17,253.43,313c-1.62-1.1-3.42-2.54-3.42-3.1v-4.07c1-1.64,2.41-3.64,3.58-6a24.49,24.49,0,0,0,2.06-6.35,27.56,27.56,0,0,0,.46-4.1c.17-2.64.44-7.67-1.64-12.21C252.27,272.39,247,266,239.4,266h-.21c-7.32,0-12.89,5.82-15.2,11-1.94,4.39-1.55,9-1.28,12.11a28.71,28.71,0,0,0,3,10.79c1.34,2.57,3.32,4.87,4.32,6.57v3.42c0,.56-2,2-3.58,3.1l-8.27,4.12c-9.48,3.17-19.15,7.64-19.15,16.75v18.27a1.28,1.28,0,0,0,.38,1,1.32,1.32,0,0,0,1.38.77h77.74c.64,0,1.46-.21,1.68-.78.35-.28.82-.53.82-1V333.92C281,324.81,271.09,320.33,261.61,317.17Zm-33.5-18.7A24.38,24.38,0,0,1,225.5,289c-.27-3-.59-7.13,1.05-10.86,1.94-4.39,6.57-9.19,12.63-9.19h.17c6.27,0,10.67,5.4,12.54,9.48,1.78,3.9,1.53,8,1.36,10.5l1.41.23-1.41,0a23,23,0,0,1-2.4,9.08c-3.26,6.47-7.31,9.74-11.42,9.74h0C236.58,308,232.34,306.59,228.11,298.47ZM233,310v-.91a21.36,21.36,0,0,0,3,1.18,13,13,0,0,0,3.56.39,25.67,25.67,0,0,0,3.8-.5,16.3,16.3,0,0,0,3.59-1.52V310c0,1.56,1.9,3.41,3.9,4.83-.86,1.64-5,3.6-11.12,3.6s-10.11-2-10.94-3.61C230.85,313.44,233,311.61,233,310ZM219.2,319.8c.06,0,.07,0,.13-.07l6.9-3.47c1.63,3,6.9,5,13.5,5s11.87-2.05,13.5-5l6.93,3.47c.06,0,.3.05.36.07,8.56,2.85,17.48,6.76,17.48,14.12V351H267v-8h-3v8H216v-8h-2v8H202V333.92C202,326.56,210.65,322.65,219.2,319.8Z"/><line class="cls-16" x1="418.01" y1="396.5" x2="607.01" y2="396.5"/><path class="cls-7" d="M1009,387.4c-1,0-1,6.6,0,6.6h32c1,0-.17-6.54-.17-6.54C1040.8,386.49,1009,387.4,1009,387.4Z"/><path class="cls-7" d="M1055,354.4c-1,0-1,6.6,0,6.6h32c1,0-.17-6.54-.17-6.54C1086.8,353.49,1055,354.4,1055,354.4Z"/><path class="cls-7" d="M1057,365.4c-1,0-1,6.6,0,6.6h32c1,0-.17-6.54-.17-6.54C1088.8,364.49,1057,365.4,1057,365.4Z"/><path class="cls-7" d="M1056,376.4c-1,0-1,6.6,0,6.6h32c1,0-.17-6.54-.17-6.54C1087.8,375.49,1056,376.4,1056,376.4Z"/><path class="cls-7" d="M1057,387.4c-1,0-1,6.6,0,6.6h32c1,0-.17-6.54-.17-6.54C1088.8,386.49,1057,387.4,1057,387.4Z"/><path class="cls-7" d="M1103,355.4c-1,0-1,6.6,0,6.6h32c1,0-.17-6.54-.17-6.54C1134.8,354.49,1103,355.4,1103,355.4Z"/><path class="cls-7" d="M1105,366.4c-1,0-1,6.6,0,6.6h32c1,0-.17-6.54-.17-6.54C1136.8,365.49,1105,366.4,1105,366.4Z"/><path class="cls-7" d="M1104,377.4c-1,0-1,6.6,0,6.6h32c1,0-.17-6.54-.17-6.54C1135.8,376.49,1104,377.4,1104,377.4Z"/><path class="cls-7" d="M1105,388.4c-1,0-1,6.6,0,6.6h32c1,0-.17-6.54-.17-6.54C1136.8,387.49,1105,388.4,1105,388.4Z"/><path class="cls-7" d="M1102,311.4c-1,0-1,6.6,0,6.6h32c1,0-.17-6.54-.17-6.54C1133.8,310.49,1102,311.4,1102,311.4Z"/><path class="cls-7" d="M1104,322.4c-1,0-1,6.6,0,6.6h32c1,0-.17-6.54-.17-6.54C1135.8,321.49,1104,322.4,1104,322.4Z"/><path class="cls-7" d="M1103,333.4c-1,0-1,6.6,0,6.6h32c1,0-.17-6.54-.17-6.54C1134.8,332.49,1103,333.4,1103,333.4Z"/><path class="cls-7" d="M1104,344.4c-1,0-1,6.6,0,6.6h32c1,0-.17-6.54-.17-6.54C1135.8,343.49,1104,344.4,1104,344.4Z"/><path class="cls-7" d="M1152,332.4c-1,0-1,6.6,0,6.6h32c1,0-.17-6.54-.17-6.54C1183.8,331.49,1152,332.4,1152,332.4Z"/><path class="cls-7" d="M1150,288.4c-1,0-1,6.6,0,6.6h32c1,0-.17-6.54-.17-6.54C1181.8,287.49,1150,288.4,1150,288.4Z"/><path class="cls-7" d="M1152,299.4c-1,0-1,6.6,0,6.6h32c1,0-.17-6.54-.17-6.54C1183.8,298.49,1152,299.4,1152,299.4Z"/><path class="cls-7" d="M1151,310.4c-1,0-1,6.6,0,6.6h32c1,0-.17-6.54-.17-6.54C1182.8,309.49,1151,310.4,1151,310.4Z"/><path class="cls-7" d="M1152,321.4c-1,0-1,6.6,0,6.6h32c1,0-.17-6.54-.17-6.54C1183.8,320.49,1152,321.4,1152,321.4Z"/><text class="cls-17" transform="translate(455.67 278.22)">TRADITIONAL</text><text class="cls-18" transform="translate(486.51 328.3)">R<tspan class="cls-19" x="11.3" y="0">O</tspan><tspan x="24.62" y="0">TH</tspan></text><polygon class="cls-8" points="978.22 370.68 1172.01 253.37 1167.39 246.42 1189.84 246.56 1181.26 267.31 1176.43 260.03 982.34 377.53 978.22 370.68"/><path class="cls-15" d="M1192.73,388.83v-1.77l-.49,0a8.13,8.13,0,0,1-5.22-2.09l1-1.4a7.77,7.77,0,0,0,4.09,1.92l.61.09,0-5.91-.39-.1c-2.6-.64-4.94-1.45-5-4.33,0-2.34,1.91-4.09,4.8-4.36l.48,0,0-3h1.56l0,3,.18.05a7.58,7.58,0,0,1,4.26,1.77l-1.09,1.35a6.39,6.39,0,0,0-2.94-1.48l-.39-.13,0,5.4.1.11c2.66.7,4.9,1.57,4.93,4.5,0,2.61-1.59,4.35-4.69,4.64l-.27,0v1.76Zm1.53-3.27.32-.1c2.13-.36,2.74-1.68,2.73-2.8,0-1.55-1.22-2.19-2.62-2.61l-.48-.21ZM1192,372.36c-1.7.2-2.78,1.23-2.77,2.63,0,1.61,1.91,2.14,2.72,2.36l.68.19,0-5.25Z"/><path class="cls-8" d="M781.34,367.45a10.28,10.28,0,0,1-7.37-3.09c-3.56-3.6-4.23-9.17-4.14-16.41,0-8.53,1.19-13.28,4.27-16.38a10.14,10.14,0,0,1,7.24-3c6.1,0,9.38,4.92,10.42,9.52a62.67,62.67,0,0,1,0,20.16C790.11,365,785.3,367.45,781.34,367.45Z"/><path class="cls-8" d="M781.34,337c-2,0-3.08,3.48-3,11-.1,7.57.84,11,3,11,2,0,2.74-3.6,2.74-11C784.08,341.1,783.43,337,781.34,337Z"/><path class="cls-8" d="M747.51,359.5V349.06l4.1-8.51c.77-1.61,1.22-3.53,1.86-5.11l2-5.95h15.09l-.75,9.81-.1,1.4c-.11,1.24-.23,2.85-.23,3.9V359.5Z"/><path class="cls-8" d="M759,344.3l-3.48,6.8v.1h5.57v-6.6c0-1.76.2-3.64.34-5.33h-.2C760.46,341.1,759.81,342.51,759,344.3Z"/><path class="cls-8" d="M758.57,393.5c-9.23,0-17.3-3.2-22.74-9.29-11.37-12.69-19.67-30.58-22.77-49.21a97.7,97.7,0,0,1-1.28-11.84,17.37,17.37,0,0,1,6.67-14.54,18.77,18.77,0,0,1,11.45-4.12H850.21a17.55,17.55,0,0,1,3.7.6,18.25,18.25,0,0,1,8.92,4.72,17.2,17.2,0,0,1,5.44,13.54A98.31,98.31,0,0,1,867,335.08c-3.21,18.55-11.43,36.28-22.56,48.91-5.41,6.14-13.75,9.51-22.88,9.51Z"/><path class="cls-8" d="M857,316.09a9.68,9.68,0,0,0-4.81-2.47,9.17,9.17,0,0,0-2-.2H729.89a10.08,10.08,0,0,0-6.24,2.12,8.67,8.67,0,0,0-3.42,7.29,90.48,90.48,0,0,0,1.18,10.86c2.82,17,10.28,33.37,20.73,45,4.1,4.59,10.26,6.61,16.42,6.61h63c6.22,0,12.42-2.14,16.52-6.79,10.22-11.6,17.65-28.06,20.56-44.87A90.35,90.35,0,0,0,859.82,323,8.63,8.63,0,0,0,857,316.09Z"/><path class="cls-14" d="M770.22,325.65a1.27,1.27,0,0,1,0,.24h0c1.63,24.34,17.31,40.08,36.74,40.5s35.74-14.76,38.35-39c0-.11.05-1.93.07-2a90.5,90.5,0,0,0-2.3-22.47c-5.11-23.6-18.27-40.46-34-40.78s-29.57,16-35.63,39.39a91.46,91.46,0,0,0-3.22,22.34S770.22,325.65,770.22,325.65Z"/><path class="cls-6" d="M770.26,323.88s0,1.76,0,1.76a1.27,1.27,0,0,1,0,.24h0q.07,1,.17,2"/><path class="cls-20" d="M771,331.9c3.61,20.89,18.24,34.1,36,34.49,19.43.35,35.74-14.76,38.35-39,0-.11.05-1.93.07-2a90.5,90.5,0,0,0-2.3-22.47c-5.11-23.6-18.27-40.46-34-40.78s-29.57,16-35.63,39.39a91.61,91.61,0,0,0-3.15,20.31"/><line class="cls-16" x1="812.73" y1="271.77" x2="841.45" y2="271.77"/><text class="cls-17" transform="translate(663.66 338.67)"><tspan class="cls-21">Y</tspan><tspan x="10.75" y="0">OU</tspan></text><text class="cls-18" transform="translate(843.71 277.84)">EMP<tspan class="cls-22" x="36.36" y="0">L</tspan><tspan class="cls-21" x="45.13" y="0">O</tspan><tspan x="58.17" y="0">YER</tspan></text><path class="cls-9" d="M809.7,315.89a91.46,91.46,0,0,0-2.85-22.39c-5.68-23.49-19.22-40-35-40s-29.17,16.7-34.66,40.22a90.5,90.5,0,0,0-2.67,22.43c0,.09,0,1.91,0,2,2.22,24.23,18.28,39.61,37.71,39.58s35.37-15.59,37.4-39.9h0a1.27,1.27,0,0,1,0-.24S809.7,315.91,809.7,315.89Z"/><path class="cls-15" d="M771.27,336.63l0-5.11-1.4-.1c-6.26-.44-11.31-2.47-15.06-6l2.87-4a22.45,22.45,0,0,0,11.8,5.54l1.76.26-.14-17.06-1.14-.29c-7.52-1.84-14.26-4.19-14.32-12.49-.05-6.75,5.5-11.81,13.86-12.59l1.4-.13-.07-8.74,4.5,0,.07,8.76.52.15a21.9,21.9,0,0,1,12.29,5.1L785,293.69a18.44,18.44,0,0,0-8.5-4.27l-1.12-.37.12,15.6.29.31c7.69,2,14.16,4.52,14.23,13,.06,7.54-4.6,12.55-13.53,13.4l-.78.13,0,5.09Zm4.43-9.45.94-.29c6.16-1,7.9-4.84,7.87-8.07,0-4.47-3.52-6.32-7.56-7.54l-1.38-.61Zm-6.5-38.09c-4.9.57-8,3.54-8,7.58,0,4.66,5.5,6.17,7.85,6.82l2,.55-.12-15.15Z"/><line class="cls-16" x1="702.3" y1="333.65" x2="746.15" y2="333.65"/><rect class="cls-23" x="453.51" y="60.84" width="63.5" height="63.5"/><rect class="cls-12" x="214.55" y="60.84" width="63.5" height="63.5"/><rect class="cls-24" x="136.01" y="60.84" width="63.5" height="63.5"/><rect class="cls-25" x="294.76" y="60.84" width="63.5" height="63.5"/><rect class="cls-15" x="376.64" y="60.84" width="63.5" height="63.5"/><path class="cls-14" d="M277,348.38v.76c0,1.43.3.86,1.76.86H280v21h-1.24c-1.46,0-1.76,2-1.76,3.47v1.3c0,1.43.3,1.23,1.76,1.23H331.5c1.46,0,2.51.2,2.51-1.23v-1.3c0-1.43-1-3.47-2.51-3.47H331V350h.49c1.46,0,2.51.58,2.51-.86v-.76c2-.15,2.58-1.26,2.61-2.62,0-1.6-1-3.67-3.51-5.05l-24.53-15.19a7.15,7.15,0,0,0-3.52-.81,7.3,7.3,0,0,0-3.46.78L278,340.4c-1.85,1.07-4,3.28-4,5.17C274,347,275,348.22,277,348.38Z"/><path class="cls-14" d="M334.63,380h-59c-1.46,0-1.63,2.65-1.63,4.08v1.3c0,1.43.17,1.62,1.63,1.62h59c1.46,0,2.38-.19,2.38-1.62v-1.3C337,382.65,336.09,380,334.63,380Z"/><path class="cls-26" d="M276,347.65v.76a2.63,2.63,0,0,0,2.67,2.57h.62l.19,20.13h-.62a2.63,2.63,0,0,0-2.63,2.62V375a2.63,2.63,0,0,0,2.67,2.57l52.73-.49a2.62,2.62,0,0,0,2.62-2.62v-1.3a2.63,2.63,0,0,0-2.67-2.58h-.71l-.19-20.13h.71a2.63,2.63,0,0,0,2.62-2.62v-.76a2.76,2.76,0,0,0,2.52-2.64c0-1.6-1.11-3.66-3.59-5l-24.69-15a7.19,7.19,0,0,0-3.54-.78,7.32,7.32,0,0,0-3.46.81l-23.47,15.13c-1.85,1.08-4.4,3.32-4.39,5.21A2.84,2.84,0,0,0,276,347.65Zm10.16,3.27,8.18-.08.19,20.13-8.18.08Zm22.93-.21.19,20.13-7.89.07-.19-20.13Zm14.93,20-7.89.07L316,350.64l7.89-.07Zm-39-28.78,17.35-11.16a5.51,5.51,0,0,1,4.94,0l18.17,10.79c3.85,2.74,2.24,2.46.66,2.48l-41.76.38C282.83,344.4,281.52,344.2,285,341.92Z"/><path class="cls-26" d="M334.86,379.83l-59,.54a2.63,2.63,0,0,0-2.63,2.62v1.3a2.63,2.63,0,0,0,2.67,2.57l59-.54a2.63,2.63,0,0,0,2.63-2.62v-1.3A2.63,2.63,0,0,0,334.86,379.83Z"/></svg>