<svg id="Layer_1" data-name="Layer 1" xmlns="http://www.w3.org/2000/svg" viewBox="0 0 724.77 663.94"><defs><style>.cls-1,.cls-3,.cls-4,.cls-5,.cls-6{fill:none;}.cls-1{stroke:#e1dede;}.cls-1,.cls-10,.cls-11,.cls-3,.cls-4,.cls-5,.cls-6,.cls-9{stroke-miterlimit:10;}.cls-2{font-size:12px;font-family:MyriadPro-Regular, Myriad Pro;}.cls-12,.cls-15,.cls-2{fill:#5f6062;}.cls-3{stroke:#5f6062;}.cls-4{stroke:#003d67;}.cls-4,.cls-5,.cls-6{stroke-width:2px;}.cls-5{stroke:#e8a300;}.cls-6{stroke:#41a629;}.cls-7,.cls-9{fill:#41a629;}.cls-8{fill:#fff;}.cls-10,.cls-11,.cls-9{stroke:#000;}.cls-10{fill:#e8a300;}.cls-11{fill:#003d67;}.cls-12{font-size:16px;}.cls-12,.cls-15{font-family:ProximaNova-Semibold, Proxima Nova;font-weight:700;}.cls-13{letter-spacing:-0.13em;}.cls-14{letter-spacing:-0.11em;}.cls-15{font-size:25.18px;}</style></defs><title>Artboard 10</title><polyline class="cls-1" points="153.31 108.32 153.21 541.82 610.93 541.82"/><line class="cls-1" x1="204.48" y1="107.56" x2="204.48" y2="541.52"/><line class="cls-1" x1="95.72" y1="311.19" x2="610.71" y2="311.34"/><line class="cls-1" x1="95.71" y1="388.81" x2="610.7" y2="388.95"/><line class="cls-1" x1="95.72" y1="467.92" x2="610.71" y2="468.07"/><line class="cls-1" x1="258.49" y1="108.18" x2="258.49" y2="542.13"/><line class="cls-1" x1="310.48" y1="108.18" x2="310.48" y2="542.13"/><line class="cls-1" x1="360.34" y1="108.18" x2="360.34" y2="542.13"/><line class="cls-1" x1="410.2" y1="108.72" x2="410.2" y2="542.67"/><line class="cls-1" x1="464.21" y1="107.79" x2="464.21" y2="541.75"/><line class="cls-1" x1="516.2" y1="107.79" x2="516.2" y2="541.75"/><line class="cls-1" x1="566.06" y1="107.79" x2="566.06" y2="541.75"/><line class="cls-1" x1="95.7" y1="161.52" x2="610.69" y2="161.66"/><line class="cls-1" x1="95.71" y1="236.63" x2="610.71" y2="236.77"/><text class="cls-2" transform="translate(105.7 483.76)">$500K</text><text class="cls-2" transform="translate(105.7 405.81)">$600K</text><text class="cls-2" transform="translate(105.7 326.03)">$700K</text><text class="cls-2" transform="translate(105.7 251.38)">$800K</text><text class="cls-2" transform="translate(105.7 175.58)">$900K</text><line class="cls-3" x1="95.7" y1="161.52" x2="152.74" y2="161.53"/><line class="cls-3" x1="95.77" y1="236.65" x2="152.81" y2="236.66"/><line class="cls-3" x1="95.77" y1="311.26" x2="152.81" y2="311.27"/><line class="cls-3" x1="95.76" y1="388.88" x2="152.79" y2="388.89"/><line class="cls-3" x1="95.81" y1="467.92" x2="152.84" y2="467.93"/><line class="cls-3" x1="258.49" y1="542.13" x2="258.49" y2="548.21"/><line class="cls-3" x1="360.34" y1="548.75" x2="360.34" y2="542.67"/><line class="cls-3" x1="464.21" y1="542.67" x2="464.21" y2="548.75"/><line class="cls-3" x1="566.06" y1="542.67" x2="566.06" y2="548.75"/><text class="cls-2" transform="translate(252.33 561.5)">10</text><text class="cls-2" transform="translate(354.18 561.5)">20</text><text class="cls-2" transform="translate(559.9 561.5)">40</text><text class="cls-2" transform="translate(458.05 561.5)">30</text><text class="cls-2" transform="translate(115.11 544.92)">$0</text><path class="cls-4" d="M153.21,542.32a423.17,423.17,0,0,0,207.13-57.47"/><path class="cls-5" d="M153.21,542.32c25.56.44,118.07-1.07,202.84-69.28,78.34-63,101.75-144.18,108.16-170.28"/><path class="cls-6" d="M153.21,542.32c46.76-5.9,143.87-24.89,236.34-98.46,147.26-117.15,171.9-284.49,176.51-322.24"/><circle class="cls-7" cx="153.21" cy="542.36" r="3.54"/><path class="cls-8" d="M566.06,126.16a4.54,4.54,0,1,1,4.54-4.54A4.51,4.51,0,0,1,566.06,126.16Z"/><circle class="cls-9" cx="566.06" cy="121.62" r="3.54"/><path class="cls-8" d="M464.21,307.3a4.54,4.54,0,1,1,4.54-4.54A4.51,4.51,0,0,1,464.21,307.3Z"/><circle class="cls-10" cx="464.21" cy="302.76" r="3.54"/><path class="cls-8" d="M360.34,489.39a4.54,4.54,0,1,1,4.54-4.54A4.51,4.51,0,0,1,360.34,489.39Z"/><circle class="cls-11" cx="360.34" cy="484.85" r="3.54"/><text class="cls-12" transform="translate(355.12 598.95) rotate(0.01)"><tspan class="cls-13">Y</tspan><tspan x="8.19" y="0">ears</tspan></text><text class="cls-12" transform="translate(67.63 401.4) rotate(-89.99)"><tspan class="cls-14">T</tspan><tspan x="7.55" y="0">otal Savings</tspan></text><text class="cls-15" transform="translate(207.87 76.82)">Compound Savings Growth</text></svg>