<svg id="Layer_1" data-name="Layer 1" xmlns="http://www.w3.org/2000/svg" xmlns:xlink="http://www.w3.org/1999/xlink" viewBox="0 0 938 467"><defs><style>.cls-1,.cls-10,.cls-11,.cls-12,.cls-15,.cls-21,.cls-23,.cls-9{fill:none;}.cls-17,.cls-18,.cls-2,.cls-20,.cls-4,.cls-5,.cls-6,.cls-7,.cls-8{fill:#fff;}.cls-3{clip-path:url(#clip-path);}.cls-10,.cls-18,.cls-23,.cls-4,.cls-5,.cls-6,.cls-9{stroke:#02c0d7;}.cls-10,.cls-4,.cls-7,.cls-8,.cls-9{stroke-linecap:round;}.cls-10,.cls-11,.cls-12,.cls-15,.cls-18,.cls-20,.cls-21,.cls-23,.cls-4,.cls-5,.cls-6,.cls-7,.cls-8,.cls-9{stroke-miterlimit:10;}.cls-5{stroke-width:1.66px;}.cls-6{stroke-width:1.36px;}.cls-11,.cls-7{stroke:#f16550;}.cls-15,.cls-20,.cls-21,.cls-8{stroke:#4cb975;}.cls-10{stroke-dasharray:5.15 5.15;}.cls-12{stroke:#ffc04f;}.cls-13{fill:#f16550;}.cls-13,.cls-14,.cls-16,.cls-17,.cls-20,.cls-21,.cls-22{opacity:0.25;}.cls-14{fill:#ffc04f;}.cls-16{fill:#4cb975;}.cls-19{font-size:33.47px;font-family:Roboto-Light, Roboto;}.cls-19,.cls-22{fill:#02c0d7;}</style><clipPath id="clip-path"><rect class="cls-1" x="268" y="-2718" width="115" height="115"/></clipPath></defs><title>Sense_icons</title><rect class="cls-2" x="105" y="45" width="724" height="380" rx="1.25" ry="1.25"/><path class="cls-4" d="M517.3,137.14A46.18,46.18,0,1,1,471.12,91,45.82,45.82,0,0,1,517.3,137.14Z"/><path class="cls-4" d="M517.3,137.14A46.18,46.18,0,1,1,471.12,91,45.82,45.82,0,0,1,517.3,137.14Z"/><path class="cls-4" d="M512.26,158.13a46.19,46.19,0,0,1-82.28,0Z"/><path class="cls-5" d="M282.52,129.8l-.28-4.19a1.39,1.39,0,0,0-1.48-1.3l-6.58.44a16.8,16.8,0,0,0-2.5-5.33l4.47-5.11a1.39,1.39,0,0,0-.13-2l-3.16-2.76a1.39,1.39,0,0,0-2,.13l-4.32,4.93a16.87,16.87,0,0,0-6.4-2.29l-.43-6.48a1.39,1.39,0,0,0-1.48-1.3l-4.19.28a1.39,1.39,0,0,0-1.3,1.48l.43,6.48a16.84,16.84,0,0,0-6.26,3.31l-5.11-4.48a1.39,1.39,0,0,0-2,.13l-2.76,3.16a1.39,1.39,0,0,0,.13,2l5.38,4.71a16.82,16.82,0,0,0-1.61,5.16l-7,.47a1.39,1.39,0,0,0-1.3,1.48l.28,4.19a1.39,1.39,0,0,0,1.48,1.3l7-.47a16.85,16.85,0,0,0,2.44,5.13l-4.85,5.54a1.39,1.39,0,0,0,.13,2l3.16,2.76a1.39,1.39,0,0,0,2-.13l4.69-5.36a16.84,16.84,0,0,0,6.08,2.23l.42,6.32a1.39,1.39,0,0,0,1.48,1.3l4.19-.28a1.39,1.39,0,0,0,1.3-1.48l-.41-6.19a16.87,16.87,0,0,0,6.14-3l5.18,4.53a1.39,1.39,0,0,0,2-.13l2.76-3.16a1.39,1.39,0,0,0-.13-2l-5.27-4.62a16.85,16.85,0,0,0,1.84-5.47l6.68-.44A1.39,1.39,0,0,0,282.52,129.8Zm-22.4,8a9,9,0,1,1,6.56-7.5A9,9,0,0,1,260.12,137.81Z"/><path class="cls-6" d="M317.38,146.62,318,144a.91.91,0,0,0-.69-1.08l-4.19-.93a10.93,10.93,0,0,0-.59-3.79l3.73-2.38a.91.91,0,0,0,.28-1.25l-1.47-2.3a.91.91,0,0,0-1.25-.28l-3.6,2.3a11,11,0,0,0-3.58-2.6l.91-4.13a.91.91,0,0,0-.69-1.08l-2.67-.59a.91.91,0,0,0-1.08.69l-.91,4.13a11,11,0,0,0-4.51.92l-2.38-3.73a.91.91,0,0,0-1.25-.28l-2.3,1.47a.91.91,0,0,0-.28,1.25l2.5,3.92a10.94,10.94,0,0,0-1.95,2.93l-4.47-1a.91.91,0,0,0-1.08.69l-.59,2.67a.91.91,0,0,0,.69,1.08l4.48,1a11,11,0,0,0,.59,3.65l-4,2.58a.91.91,0,0,0-.28,1.25l1.47,2.3a.91.91,0,0,0,1.25.28l3.9-2.49a11,11,0,0,0,3.39,2.5l-.89,4a.91.91,0,0,0,.69,1.08l2.67.59a.91.91,0,0,0,1.08-.69l.87-3.94a11,11,0,0,0,4.38-.77l2.41,3.77a.91.91,0,0,0,1.25.28l2.3-1.47a.91.91,0,0,0,.28-1.25l-2.45-3.84a11,11,0,0,0,2.15-3.08l4.25.94A.91.91,0,0,0,317.38,146.62Zm-15.43,0a5,5,0,1,1,4.63-3A5,5,0,0,1,301.95,146.65Z"/><line class="cls-7" x1="187.83" y1="150.29" x2="199.09" y2="161.55"/><line class="cls-7" x1="199.09" y1="150.29" x2="187.83" y2="161.55"/><circle class="cls-8" cx="352.94" cy="107.51" r="6"/><path class="cls-9" d="M207.35,169.05s.67.64,1.92,1.6"/><path class="cls-10" d="M213.5,173.57c9,5.48,26.68,12.27,45.55-2.68"/><path class="cls-9" d="M261,169.24q.92-.8,1.85-1.68"/><path class="cls-9" d="M286.9,97.41s.67-.64,1.92-1.6"/><path class="cls-10" d="M293.05,92.9c9-5.48,26.68-12.27,45.55,2.68"/><path class="cls-9" d="M340.58,97.23q.92.8,1.85,1.68"/><path class="cls-11" d="M510.13,137.14a41,41,0,0,1-.47,6.07H469.94l37.78-19.61A38.88,38.88,0,0,1,510.13,137.14Z"/><path class="cls-12" d="M507.72,123.6l-37.5,19.46a.19.19,0,0,1-.28-.17V98.22l0-.07c.37,0,.77,0,1.14,0A39,39,0,0,1,507.72,123.6Z"/><path class="cls-13" d="M510.13,137.14a41,41,0,0,1-.47,6.07H469.94l37.78-19.61A38.88,38.88,0,0,1,510.13,137.14Z"/><path class="cls-14" d="M507.72,123.6l-37.5,19.46a.19.19,0,0,1-.28-.17V98.22l0-.07c.37,0,.77,0,1.14,0A39,39,0,0,1,507.72,123.6Z"/><path class="cls-15" d="M470,98.14l0,.07v45H432.59a41,41,0,0,1-.47-6.07A39,39,0,0,1,470,98.14Z"/><path class="cls-16" d="M470,98.14l0,.07v45H432.59a41,41,0,0,1-.47-6.07A39,39,0,0,1,470,98.14Z"/><path class="cls-4" d="M451.61,115.56l13.19,25.6,0,0a6,6,0,0,0,8.28,1.56c2.48-1.92,2.84-6.27.05-8.92l-21.05-18.68A.32.32,0,0,0,451.61,115.56Z"/><rect class="cls-17" x="603.54" y="108.95" width="128.29" height="65.07" rx="1.52" ry="1.52"/><rect class="cls-16" x="603.54" y="108.95" width="128.29" height="65.07" rx="1.52" ry="1.52"/><circle class="cls-18" cx="666.75" cy="142.41" r="22.31"/><text class="cls-19" transform="translate(657.4 153.13)">$</text><path class="cls-18" d="M603.54,128s15.77,1.37,20.9-19.08H605.49a2,2,0,0,0-2,2Z"/><path class="cls-18" d="M622.62,174s1.37-15.77-19.08-20.9v18.94a2,2,0,0,0,2,2Z"/><rect class="cls-9" x="603.54" y="108.95" width="128.29" height="65.07" rx="1.52" ry="1.52"/><path class="cls-18" d="M731.83,128s-15.77,1.37-20.9-19.08h18.94a2,2,0,0,1,2,2Z"/><path class="cls-18" d="M712.75,174s-1.37-15.77,19.08-20.9v18.94a2,2,0,0,1-2,2Z"/><rect class="cls-17" x="596.1" y="101.51" width="128.29" height="65.07" rx="1.52" ry="1.52"/><rect class="cls-16" x="596.1" y="101.51" width="128.29" height="65.07" rx="1.52" ry="1.52"/><circle class="cls-18" cx="659.32" cy="134.98" r="22.31"/><text class="cls-19" transform="translate(649.96 145.69)">$</text><path class="cls-18" d="M596.1,120.59S611.87,122,617,101.51H598.06a2,2,0,0,0-2,2Z"/><path class="cls-18" d="M615.18,166.58s1.37-15.77-19.08-20.9v18.94a2,2,0,0,0,2,2Z"/><rect class="cls-9" x="596.1" y="101.51" width="128.29" height="65.07" rx="1.52" ry="1.52"/><path class="cls-18" d="M724.39,120.59s-15.77,1.37-20.9-19.08h18.94a2,2,0,0,1,2,2Z"/><path class="cls-18" d="M705.31,166.58s-1.37-15.77,19.08-20.9v18.94a2,2,0,0,1-2,2Z"/><rect class="cls-18" x="676.45" y="280.36" width="49.21" height="2"/><polyline class="cls-18" points="677.32 373.95 677.32 282.36 724.83 282.36 724.83 373.95"/><path class="cls-18" d="M489.75,368.68H537.2V310.35a3,3,0,0,0-3.15-2.71H425a3,3,0,0,0-3.15,2.71v58.33h47.58"/><path class="cls-18" d="M543.94,368.68H489.75c-.08.51-.8.91-1.67.91h-17c-.88,0-1.6-.4-1.67-.91H414.72c-1.6,0-2.89.77-2.89,1.72v1.89c0,.95,1.29,1.72,2.89,1.72H543.94c1.6,0,2.89-.77,2.89-1.72v-1.89C546.83,369.44,545.54,368.68,543.94,368.68Z"/><line class="cls-20" x1="466.69" y1="308.52" x2="466.69" y2="292.08"/><circle class="cls-20" cx="466.54" cy="287.53" r="5.14"/><circle class="cls-17" cx="466.54" cy="287.53" r="2.94"/><circle class="cls-20" cx="384.49" cy="349.61" r="3.52"/><circle class="cls-17" cx="384.49" cy="349.61" r="1.76"/><circle class="cls-20" cx="466.69" cy="312.04" r="3.52"/><circle class="cls-17" cx="466.69" cy="312.04" r="1.76"/><circle class="cls-20" cx="441.44" cy="333.18" r="8.22"/><circle class="cls-17" cx="441.44" cy="333.18" r="4.7"/><circle class="cls-20" cx="404.75" cy="323.49" r="9.69"/><circle class="cls-17" cx="404.75" cy="323.49" r="6.16"/><line class="cls-20" x1="385.67" y1="346.09" x2="396.24" y2="327.89"/><line class="cls-20" x1="414.44" y1="326.13" x2="433.23" y2="331.27"/><line class="cls-20" x1="449.12" y1="330.24" x2="464.49" y2="314.79"/><line class="cls-21" x1="466.69" y1="308.52" x2="466.69" y2="292.08"/><circle class="cls-21" cx="466.54" cy="287.53" r="5.14"/><circle class="cls-16" cx="466.54" cy="287.53" r="2.94"/><path class="cls-17" d="M200,309h61.85a1.91,1.91,0,0,1,1.91,1.91v15.68a30.88,30.88,0,0,1-30.88,30.88H229a30.88,30.88,0,0,1-30.88-30.88V310.89A1.91,1.91,0,0,1,200,309Z" transform="translate(564.17 102.27) rotate(90)"/><path class="cls-22" d="M200,309h61.85a1.91,1.91,0,0,1,1.91,1.91v15.68a30.88,30.88,0,0,1-30.88,30.88H229a30.88,30.88,0,0,1-30.88-30.88V310.89A1.91,1.91,0,0,1,200,309Z" transform="translate(564.17 102.27) rotate(90)"/><path class="cls-9" d="M200,309h61.85a1.91,1.91,0,0,1,1.91,1.91v15.68a30.88,30.88,0,0,1-30.88,30.88H229a30.88,30.88,0,0,1-30.88-30.88V310.89A1.91,1.91,0,0,1,200,309Z" transform="translate(564.17 102.27) rotate(90)"/><path class="cls-4" d="M272.77,302.15h0a6.45,6.45,0,0,1,6.45,6.45v28.73a0,0,0,0,1,0,0h-12.9a0,0,0,0,1,0,0V308.59A6.45,6.45,0,0,1,272.77,302.15Z" transform="translate(592.51 46.96) rotate(90)"/><path class="cls-4" d="M272.77,330.29h0a6.45,6.45,0,0,1,6.45,6.45v28.73a0,0,0,0,1,0,0h-12.9a0,0,0,0,1,0,0V336.74A6.45,6.45,0,0,1,272.77,330.29Z" transform="translate(620.65 75.1) rotate(90)"/><path class="cls-4" d="M172.9,305.66h9.77a0,0,0,0,1,0,0v53a4.89,4.89,0,0,1-4.89,4.89h0a4.89,4.89,0,0,1-4.89-4.89v-53A0,0,0,0,1,172.9,305.66Z" transform="translate(512.38 156.8) rotate(90)"/><rect class="cls-4" x="221.18" y="329.7" width="75.05" height="7.04" rx="3.52" ry="3.52" transform="translate(591.92 74.52) rotate(90)"/><path class="cls-17" d="M313.77,320.29l-3.24,16.22a.27.27,0,0,0,.34.31l7-2a.27.27,0,0,1,.34.31l-2.94,14.69a.27.27,0,0,0,.5.18l12.31-22.57a.27.27,0,0,0-.32-.39l-9,3a.27.27,0,0,1-.34-.34l3.08-9.25a.27.27,0,0,0-.26-.36H314A.27.27,0,0,0,313.77,320.29Z"/><path class="cls-16" d="M313.77,320.29l-3.24,16.22a.27.27,0,0,0,.34.31l7-2a.27.27,0,0,1,.34.31l-2.94,14.69a.27.27,0,0,0,.5.18l12.31-22.57a.27.27,0,0,0-.32-.39l-9,3a.27.27,0,0,1-.34-.34l3.08-9.25a.27.27,0,0,0-.26-.36H314A.27.27,0,0,0,313.77,320.29Z"/><path class="cls-15" d="M313.77,320.29l-3.24,16.22a.27.27,0,0,0,.34.31l7-2a.27.27,0,0,1,.34.31l-2.94,14.69a.27.27,0,0,0,.5.18l12.31-22.57a.27.27,0,0,0-.32-.39l-9,3a.27.27,0,0,1-.34-.34l3.08-9.25a.27.27,0,0,0-.26-.36H314A.27.27,0,0,0,313.77,320.29Z"/><rect class="cls-18" x="427.11" y="311.95" width="103.57" height="52.65"/><path class="cls-9" d="M478.16,354.95a14.44,14.44,0,0,1-4.93-28.27"/><path class="cls-9" d="M482.53,354.61a14.44,14.44,0,0,0-4-28.49"/><polyline class="cls-9" points="483.19 350.21 480.92 354.8 485.5 357.07"/><polyline class="cls-9" points="471.57 331.9 473.63 327.06 468.78 325"/><rect class="cls-23" x="668.67" y="320.45" width="8.65" height="53.18"/><polyline class="cls-23" points="695 373.8 695 354.97 724.83 354.97 724.83 373.8"/><polyline class="cls-18" points="677.32 373.63 677.32 314.18 653.63 314.18 653.63 373.63 742.77 373.46 742.77 321.52 724.83 321.52 724.83 373.46"/><polyline class="cls-23" points="713.55 373.53 713.55 364.54 706.68 364.54 706.68 373.53"/><polyline class="cls-23" points="736.55 373.53 736.55 364.54 729.68 364.54 729.68 373.53"/><polyline class="cls-23" points="724.83 354.97 695 354.97 695 373.66"/><polyline class="cls-23" points="677.32 320.45 668.67 320.45 668.67 373.46"/><line class="cls-23" x1="653.63" y1="320.53" x2="668.67" y2="320.45"/><line class="cls-23" x1="653.87" y1="324.34" x2="668.67" y2="324.34"/><line class="cls-23" x1="653.63" y1="328.16" x2="668.43" y2="328.16"/><line class="cls-23" x1="653.87" y1="331.89" x2="668.55" y2="331.89"/><line class="cls-23" x1="653.63" y1="335.7" x2="668.31" y2="335.7"/><line class="cls-23" x1="653.87" y1="339.52" x2="668.67" y2="339.52"/><line class="cls-23" x1="653.63" y1="343.33" x2="668.43" y2="343.33"/><line class="cls-23" x1="653.87" y1="347.07" x2="668.55" y2="347.07"/><line class="cls-23" x1="653.63" y1="350.88" x2="668.31" y2="350.88"/><line class="cls-23" x1="653.87" y1="354.7" x2="668.67" y2="354.7"/><line class="cls-23" x1="653.63" y1="358.51" x2="668.43" y2="358.51"/><line class="cls-23" x1="653.87" y1="362.24" x2="668.55" y2="362.24"/><line class="cls-23" x1="653.63" y1="366.06" x2="668.31" y2="366.06"/><rect class="cls-22" x="681.26" y="286.84" width="10.64" height="10.64"/><rect class="cls-22" x="695.7" y="286.84" width="10.64" height="10.64"/><rect class="cls-22" x="710.14" y="286.84" width="10.64" height="10.64"/><rect class="cls-22" x="681.26" y="300.52" width="10.64" height="10.64"/><rect class="cls-22" x="695.7" y="300.52" width="10.64" height="10.64"/><rect class="cls-22" x="710.14" y="300.52" width="10.64" height="10.64"/><rect class="cls-22" x="681.26" y="314.21" width="10.64" height="10.64"/><rect class="cls-22" x="695.7" y="314.21" width="10.64" height="10.64"/><rect class="cls-22" x="710.14" y="314.21" width="10.64" height="10.64"/><rect class="cls-22" x="681.26" y="327.89" width="10.64" height="10.64"/><rect class="cls-22" x="695.7" y="327.89" width="10.64" height="10.64"/><rect class="cls-22" x="710.14" y="327.89" width="10.64" height="10.64"/><rect class="cls-22" x="681.26" y="341.57" width="10.64" height="10.64"/><rect class="cls-22" x="681.26" y="356.01" width="10.64" height="10.64"/><rect class="cls-22" x="695.7" y="341.57" width="10.64" height="10.64"/><rect class="cls-22" x="710.14" y="341.57" width="10.64" height="10.64"/><rect class="cls-23" x="681.26" y="286.84" width="10.64" height="10.64"/><rect class="cls-23" x="695.7" y="286.84" width="10.64" height="10.64"/><rect class="cls-23" x="710.14" y="286.84" width="10.64" height="10.64"/><rect class="cls-23" x="681.26" y="300.52" width="10.64" height="10.64"/><rect class="cls-23" x="695.7" y="300.52" width="10.64" height="10.64"/><rect class="cls-23" x="710.14" y="300.52" width="10.64" height="10.64"/><rect class="cls-23" x="681.26" y="314.21" width="10.64" height="10.64"/><rect class="cls-23" x="695.7" y="314.21" width="10.64" height="10.64"/><rect class="cls-23" x="710.14" y="314.21" width="10.64" height="10.64"/><rect class="cls-23" x="681.26" y="327.89" width="10.64" height="10.64"/><rect class="cls-23" x="695.7" y="327.89" width="10.64" height="10.64"/><rect class="cls-23" x="710.14" y="327.89" width="10.64" height="10.64"/><rect class="cls-23" x="681.26" y="341.57" width="10.64" height="10.64"/><rect class="cls-23" x="681.26" y="356.01" width="10.64" height="10.64"/><rect class="cls-23" x="695.7" y="341.57" width="10.64" height="10.64"/><rect class="cls-23" x="710.14" y="341.57" width="10.64" height="10.64"/><rect class="cls-22" x="728.14" y="327.89" width="10.64" height="10.64"/><rect class="cls-22" x="728.14" y="341.57" width="10.64" height="10.64"/><rect class="cls-23" x="728.14" y="327.89" width="10.64" height="10.64"/><rect class="cls-23" x="728.14" y="341.57" width="10.64" height="10.64"/><circle class="cls-21" cx="384.49" cy="349.61" r="3.52"/><circle class="cls-16" cx="384.49" cy="349.61" r="1.76"/><circle class="cls-21" cx="466.69" cy="312.04" r="3.52"/><circle class="cls-16" cx="466.69" cy="312.04" r="1.76"/><circle class="cls-21" cx="441.44" cy="333.18" r="8.22"/><circle class="cls-16" cx="441.44" cy="333.18" r="4.7"/><circle class="cls-21" cx="404.75" cy="323.49" r="9.69"/><circle class="cls-16" cx="404.75" cy="323.49" r="6.16"/><line class="cls-21" x1="385.67" y1="346.09" x2="396.24" y2="327.89"/><line class="cls-21" x1="414.44" y1="326.13" x2="433.23" y2="331.27"/><line class="cls-21" x1="449.12" y1="330.24" x2="464.49" y2="314.79"/></svg>