<svg id="Layer_1" data-name="Layer 1" xmlns="http://www.w3.org/2000/svg" xmlns:xlink="http://www.w3.org/1999/xlink" viewBox="0 0 947 182"><defs><style>.cls-1,.cls-10,.cls-11,.cls-12,.cls-13,.cls-16,.cls-19,.cls-4{fill:none;}.cls-2,.cls-3,.cls-6,.cls-7,.cls-8,.cls-9{fill:#fff;}.cls-10,.cls-11,.cls-19,.cls-2,.cls-3,.cls-6,.cls-7{stroke:#02c0d7;}.cls-10,.cls-11,.cls-12,.cls-13,.cls-16,.cls-19,.cls-2,.cls-3,.cls-4,.cls-6,.cls-7,.cls-8,.cls-9{stroke-miterlimit:10;}.cls-10,.cls-11,.cls-3,.cls-8,.cls-9{stroke-linecap:round;}.cls-16,.cls-4,.cls-9{stroke:#4cb975;}.cls-14,.cls-15,.cls-18,.cls-4,.cls-5{opacity:0.25;}.cls-5{fill:#4cb975;}.cls-6{stroke-width:1.66px;}.cls-7{stroke-width:1.36px;}.cls-12,.cls-8{stroke:#f16550;}.cls-11{stroke-dasharray:5.15 5.15;}.cls-13{stroke:#ffc04f;}.cls-14{fill:#f16550;}.cls-15{fill:#ffc04f;}.cls-17{font-size:22.3px;font-family:Roboto-Light, Roboto;}.cls-17,.cls-18{fill:#02c0d7;}.cls-20{clip-path:url(#clip-path);}</style><clipPath id="clip-path"><rect class="cls-1" x="268" y="-2492" width="115" height="115"/></clipPath></defs><title>Senseware Brand Assets</title><rect class="cls-2" x="847.35" y="63.65" width="32.78" height="1.33"/><polyline class="cls-2" points="847.94 126 847.94 64.98 879.58 64.98 879.58 126"/><path class="cls-2" d="M723,122.49h31.61V83.62a2,2,0,0,0-2.1-1.81H679.81a2,2,0,0,0-2.1,1.81v38.86h31.7"/><path class="cls-2" d="M759.07,122.49H723c-.05.34-.53.6-1.11.6H710.52c-.58,0-1.06-.27-1.11-.6H673c-1.06,0-1.93.51-1.93,1.14v1.26c0,.63.86,1.14,1.93,1.14h86.09c1.06,0,1.93-.51,1.93-1.14v-1.26C761,123,760.14,122.49,759.07,122.49Z"/><path class="cls-3" d="M287,96.23a30.77,30.77,0,1,1-30.77-30.77A30.53,30.53,0,0,1,287,96.23Z"/><path class="cls-3" d="M287,96.23a30.77,30.77,0,1,1-30.77-30.77A30.53,30.53,0,0,1,287,96.23Z"/><path class="cls-3" d="M283.64,110.22a30.77,30.77,0,0,1-54.82,0Z"/><line class="cls-4" x1="707.61" y1="82.41" x2="707.61" y2="71.45"/><circle class="cls-4" cx="707.51" cy="68.42" r="3.42"/><circle class="cls-5" cx="707.51" cy="68.42" r="1.96"/><path class="cls-6" d="M130.59,91.35l-.19-2.79a.93.93,0,0,0-1-.86L125,88a11.2,11.2,0,0,0-1.67-3.55l3-3.41a.93.93,0,0,0-.09-1.31l-2.11-1.84a.93.93,0,0,0-1.31.09L120,81.25a11.24,11.24,0,0,0-4.26-1.52l-.29-4.32a.93.93,0,0,0-1-.86l-2.79.19a.93.93,0,0,0-.86,1l.29,4.32a11.22,11.22,0,0,0-4.17,2.2l-3.41-3a.93.93,0,0,0-1.31.09l-1.84,2.11a.93.93,0,0,0,.09,1.31L104,85.89a11.2,11.2,0,0,0-1.07,3.44l-4.68.31a.93.93,0,0,0-.86,1l.19,2.79a.93.93,0,0,0,1,.86l4.68-.31a11.23,11.23,0,0,0,1.63,3.42l-3.23,3.69a.93.93,0,0,0,.09,1.31l2.11,1.84a.93.93,0,0,0,1.31-.09l3.12-3.57a11.22,11.22,0,0,0,4,1.49l.28,4.21a.93.93,0,0,0,1,.86l2.79-.19a.93.93,0,0,0,.86-1l-.27-4.12a11.24,11.24,0,0,0,4.09-2l3.45,3a.93.93,0,0,0,1.31-.09l1.84-2.11a.93.93,0,0,0-.09-1.31L124,96.28a11.23,11.23,0,0,0,1.23-3.64l4.45-.3A.93.93,0,0,0,130.59,91.35Zm-14.92,5.33a6,6,0,1,1,4.37-5A6,6,0,0,1,115.66,96.68Z"/><path class="cls-7" d="M153.81,102.56l.39-1.78a.6.6,0,0,0-.46-.72l-2.79-.62a7.28,7.28,0,0,0-.39-2.52L153,95.33a.6.6,0,0,0,.18-.83l-1-1.53a.6.6,0,0,0-.83-.18L149,94.31a7.31,7.31,0,0,0-2.38-1.73l.61-2.75a.6.6,0,0,0-.46-.72L145,88.72a.6.6,0,0,0-.72.46l-.61,2.75a7.3,7.3,0,0,0-3,.62l-1.59-2.48a.6.6,0,0,0-.83-.18l-1.53,1a.6.6,0,0,0-.18.83l1.67,2.61a7.29,7.29,0,0,0-1.3,2l-3-.66a.6.6,0,0,0-.72.46l-.39,1.78a.6.6,0,0,0,.46.72l3,.66a7.31,7.31,0,0,0,.39,2.43l-2.69,1.72a.6.6,0,0,0-.18.83l1,1.53a.6.6,0,0,0,.83.18l2.6-1.66a7.3,7.3,0,0,0,2.26,1.67l-.59,2.68a.6.6,0,0,0,.46.72l1.78.39a.6.6,0,0,0,.72-.46l.58-2.63a7.32,7.32,0,0,0,2.92-.51l1.6,2.51a.6.6,0,0,0,.83.18l1.53-1a.6.6,0,0,0,.18-.83l-1.63-2.56a7.3,7.3,0,0,0,1.43-2.05l2.83.63A.6.6,0,0,0,153.81,102.56Zm-10.28,0a3.3,3.3,0,1,1,3.09-2A3.3,3.3,0,0,1,143.53,102.57Z"/><line class="cls-8" x1="67.5" y1="105" x2="75" y2="112.5"/><line class="cls-8" x1="75" y1="105" x2="67.5" y2="112.5"/><circle class="cls-9" cx="177.5" cy="76.5" r="4"/><path class="cls-10" d="M80.5,117.5a21.78,21.78,0,0,0,1.94,1.57"/><path class="cls-11" d="M86.83,121.75c6.15,3.11,16.11,5.6,26.76-2"/><path class="cls-10" d="M115.63,118.16q.93-.78,1.87-1.66"/><path class="cls-10" d="M133.5,69.77a21.8,21.8,0,0,1,1.94-1.57"/><path class="cls-11" d="M139.83,65.52c6.15-3.11,16.11-5.6,26.76,2"/><path class="cls-10" d="M168.63,69.1q.93.78,1.87,1.66"/><path class="cls-12" d="M282.22,96.24a27.32,27.32,0,0,1-.31,4H255.45l25.17-13.06A25.9,25.9,0,0,1,282.22,96.24Z"/><path class="cls-13" d="M280.62,87.22l-25,13a.13.13,0,0,1-.19-.11V70.31l0,0c.25,0,.51,0,.76,0A26,26,0,0,1,280.62,87.22Z"/><path class="cls-14" d="M282.22,96.24a27.32,27.32,0,0,1-.31,4H255.45l25.17-13.06A25.9,25.9,0,0,1,282.22,96.24Z"/><path class="cls-15" d="M280.62,87.22l-25,13a.13.13,0,0,1-.19-.11V70.31l0,0c.25,0,.51,0,.76,0A26,26,0,0,1,280.62,87.22Z"/><path class="cls-16" d="M255.48,70.26l0,0v30H230.56a27.32,27.32,0,0,1-.31-4A26,26,0,0,1,255.48,70.26Z"/><path class="cls-5" d="M255.48,70.26l0,0v30H230.56a27.32,27.32,0,0,1-.31-4A26,26,0,0,1,255.48,70.26Z"/><path class="cls-3" d="M243.23,81.86,252,98.91l0,0a3.76,3.76,0,1,0,5.55-4.9l-14-12.44A.21.21,0,0,0,243.23,81.86Z"/><rect class="cls-5" x="344.45" y="77.45" width="85.47" height="43.35" rx="1.01" ry="1.01"/><circle class="cls-2" cx="386.57" cy="99.75" r="14.86"/><text class="cls-17" transform="translate(380.33 106.89)">$</text><path class="cls-2" d="M344.45,90.17s10.51.91,13.92-12.71H345.76a1.3,1.3,0,0,0-1.3,1.3Z"/><path class="cls-2" d="M357.17,120.81s.91-10.51-12.71-13.92v12.62a1.3,1.3,0,0,0,1.3,1.3Z"/><rect class="cls-10" x="344.45" y="77.45" width="85.47" height="43.35" rx="1.01" ry="1.01"/><path class="cls-2" d="M429.92,90.17s-10.51.91-13.92-12.71h12.62a1.3,1.3,0,0,1,1.3,1.3Z"/><path class="cls-2" d="M417.21,120.81s-.91-10.51,12.71-13.92v12.62a1.3,1.3,0,0,1-1.3,1.3Z"/><rect class="cls-5" x="339.5" y="72.5" width="85.47" height="43.35" rx="1.01" ry="1.01"/><circle class="cls-2" cx="381.61" cy="94.8" r="14.86"/><text class="cls-17" transform="translate(375.38 101.93)">$</text><path class="cls-2" d="M339.5,85.21s10.51.91,13.92-12.71H340.8a1.3,1.3,0,0,0-1.3,1.3Z"/><path class="cls-2" d="M352.21,115.85s.91-10.51-12.71-13.92v12.62a1.3,1.3,0,0,0,1.3,1.3Z"/><rect class="cls-10" x="339.5" y="72.5" width="85.47" height="43.35" rx="1.01" ry="1.01"/><path class="cls-2" d="M425,85.21S414.46,86.13,411,72.5h12.62a1.3,1.3,0,0,1,1.3,1.3Z"/><path class="cls-2" d="M412.26,115.85s-.91-10.51,12.71-13.92v12.62a1.3,1.3,0,0,1-1.3,1.3Z"/><path class="cls-18" d="M529.95,82.72h41.21A1.27,1.27,0,0,1,572.43,84V94.44A20.57,20.57,0,0,1,551.85,115h-2.6a20.57,20.57,0,0,1-20.57-20.57V84a1.27,1.27,0,0,1,1.27-1.27Z" transform="translate(649.42 -451.69) rotate(90)"/><path class="cls-10" d="M529.95,82.72h41.21A1.27,1.27,0,0,1,572.43,84V94.44A20.57,20.57,0,0,1,551.85,115h-2.6a20.57,20.57,0,0,1-20.57-20.57V84a1.27,1.27,0,0,1,1.27-1.27Z" transform="translate(649.42 -451.69) rotate(90)"/><path class="cls-3" d="M578.42,78.16h0a4.3,4.3,0,0,1,4.3,4.3V101.6a0,0,0,0,1,0,0h-8.59a0,0,0,0,1,0,0V82.46A4.3,4.3,0,0,1,578.42,78.16Z" transform="translate(668.3 -488.54) rotate(90)"/><path class="cls-3" d="M578.42,96.91h0a4.3,4.3,0,0,1,4.3,4.3v19.14a0,0,0,0,1,0,0h-8.59a0,0,0,0,1,0,0V101.21A4.3,4.3,0,0,1,578.42,96.91Z" transform="translate(687.05 -469.79) rotate(90)"/><path class="cls-3" d="M511.88,80.51h6.51a0,0,0,0,1,0,0v35.29a3.26,3.26,0,0,1-3.26,3.26h0a3.26,3.26,0,0,1-3.26-3.26V80.51a0,0,0,0,1,0,0Z" transform="translate(614.91 -415.36) rotate(90)"/><rect class="cls-3" x="544.04" y="96.52" width="50" height="4.69" rx="2.34" ry="2.34" transform="translate(667.91 -470.18) rotate(90)"/><path class="cls-5" d="M605.73,90.25l-2.16,10.81a.18.18,0,0,0,.23.21l4.68-1.34a.18.18,0,0,1,.23.21l-2,9.78a.18.18,0,0,0,.34.12l8.2-15a.18.18,0,0,0-.22-.26l-6,2a.18.18,0,0,1-.23-.23l2.05-6.16a.18.18,0,0,0-.17-.24H605.9A.18.18,0,0,0,605.73,90.25Z"/><path class="cls-16" d="M605.73,90.25l-2.16,10.81a.18.18,0,0,0,.23.21l4.68-1.34a.18.18,0,0,1,.23.21l-2,9.78a.18.18,0,0,0,.34.12l8.2-15a.18.18,0,0,0-.22-.26l-6,2a.18.18,0,0,1-.23-.23l2.05-6.16a.18.18,0,0,0-.17-.24H605.9A.18.18,0,0,0,605.73,90.25Z"/><rect class="cls-2" x="681.24" y="84.69" width="69" height="35.08"/><path class="cls-10" d="M715.25,113.34A9.62,9.62,0,0,1,712,94.51"/><path class="cls-10" d="M718.16,113.12a9.62,9.62,0,0,0-2.64-19"/><polyline class="cls-10" points="718.6 110.19 717.09 113.24 720.14 114.75"/><polyline class="cls-10" points="710.86 97.98 712.23 94.76 709 93.39"/><rect class="cls-19" x="842.17" y="90.35" width="5.76" height="35.43"/><polyline class="cls-19" points="859.71 125.9 859.71 113.36 879.58 113.36 879.58 125.9"/><polyline class="cls-2" points="847.94 125.79 847.94 86.18 832.15 86.18 832.15 125.79 891.54 125.67 891.54 91.07 879.58 91.07 879.58 125.67"/><polyline class="cls-19" points="887.85 125.72 887.85 119.73 883.27 119.73 883.27 125.72"/><polyline class="cls-19" points="872.07 125.72 872.07 119.73 867.5 119.73 867.5 125.72"/><polyline class="cls-2" points="879.69 91.09 892 91.09 892 89.61 879.69 89.61"/><polyline class="cls-19" points="879.58 113.36 859.71 113.36 859.71 125.8"/><polyline class="cls-19" points="847.94 90.35 842.17 90.35 842.17 125.67"/><line class="cls-19" x1="832.15" y1="90.41" x2="842.17" y2="90.35"/><line class="cls-19" x1="832.31" y1="92.95" x2="842.17" y2="92.95"/><line class="cls-19" x1="832.15" y1="95.49" x2="842.01" y2="95.49"/><line class="cls-19" x1="832.31" y1="97.98" x2="842.09" y2="97.98"/><line class="cls-19" x1="832.15" y1="100.52" x2="841.93" y2="100.52"/><line class="cls-19" x1="832.31" y1="103.06" x2="842.17" y2="103.06"/><line class="cls-19" x1="832.15" y1="105.6" x2="842.01" y2="105.6"/><line class="cls-19" x1="832.31" y1="108.09" x2="842.09" y2="108.09"/><line class="cls-19" x1="832.15" y1="110.63" x2="841.93" y2="110.63"/><line class="cls-19" x1="832.31" y1="113.17" x2="842.17" y2="113.17"/><line class="cls-19" x1="832.15" y1="115.71" x2="842.01" y2="115.71"/><line class="cls-19" x1="832.31" y1="118.2" x2="842.09" y2="118.2"/><line class="cls-19" x1="832.15" y1="120.74" x2="841.93" y2="120.74"/><rect class="cls-18" x="850.56" y="67.97" width="7.09" height="7.09"/><rect class="cls-18" x="860.18" y="67.97" width="7.09" height="7.09"/><rect class="cls-18" x="869.8" y="67.97" width="7.09" height="7.09"/><rect class="cls-18" x="850.56" y="77.08" width="7.09" height="7.09"/><rect class="cls-18" x="860.18" y="77.08" width="7.09" height="7.09"/><rect class="cls-18" x="869.8" y="77.08" width="7.09" height="7.09"/><rect class="cls-18" x="881.96" y="97.34" width="7.09" height="7.09"/><rect class="cls-18" x="881.96" y="106.45" width="7.09" height="7.09"/><rect class="cls-18" x="850.56" y="86.2" width="7.09" height="7.09"/><rect class="cls-18" x="860.18" y="86.2" width="7.09" height="7.09"/><rect class="cls-18" x="869.8" y="86.2" width="7.09" height="7.09"/><rect class="cls-18" x="850.56" y="95.31" width="7.09" height="7.09"/><rect class="cls-18" x="860.18" y="95.31" width="7.09" height="7.09"/><rect class="cls-18" x="869.8" y="95.31" width="7.09" height="7.09"/><rect class="cls-18" x="850.56" y="104.43" width="7.09" height="7.09"/><rect class="cls-18" x="850.56" y="114.05" width="7.09" height="7.09"/><rect class="cls-18" x="860.18" y="104.43" width="7.09" height="7.09"/><rect class="cls-18" x="869.8" y="104.43" width="7.09" height="7.09"/><rect class="cls-19" x="850.56" y="67.97" width="7.09" height="7.09"/><rect class="cls-19" x="860.18" y="67.97" width="7.09" height="7.09"/><rect class="cls-19" x="869.8" y="67.97" width="7.09" height="7.09"/><rect class="cls-19" x="850.56" y="77.08" width="7.09" height="7.09"/><rect class="cls-19" x="860.18" y="77.08" width="7.09" height="7.09"/><rect class="cls-19" x="869.8" y="77.08" width="7.09" height="7.09"/><rect class="cls-19" x="881.96" y="97.34" width="7.09" height="7.09"/><rect class="cls-19" x="881.96" y="106.45" width="7.09" height="7.09"/><rect class="cls-19" x="850.56" y="86.2" width="7.09" height="7.09"/><rect class="cls-19" x="860.18" y="86.2" width="7.09" height="7.09"/><rect class="cls-19" x="869.8" y="86.2" width="7.09" height="7.09"/><rect class="cls-19" x="850.56" y="95.31" width="7.09" height="7.09"/><rect class="cls-19" x="860.18" y="95.31" width="7.09" height="7.09"/><rect class="cls-19" x="869.8" y="95.31" width="7.09" height="7.09"/><rect class="cls-19" x="850.56" y="104.43" width="7.09" height="7.09"/><rect class="cls-19" x="850.56" y="114.05" width="7.09" height="7.09"/><rect class="cls-19" x="860.18" y="104.43" width="7.09" height="7.09"/><rect class="cls-19" x="869.8" y="104.43" width="7.09" height="7.09"/><circle class="cls-4" cx="652.85" cy="109.79" r="2.35"/><circle class="cls-5" cx="652.85" cy="109.79" r="1.17"/><circle class="cls-4" cx="707.61" cy="84.75" r="2.35"/><circle class="cls-5" cx="707.61" cy="84.75" r="1.17"/><circle class="cls-4" cx="690.79" cy="98.83" r="5.48"/><circle class="cls-5" cx="690.79" cy="98.83" r="3.13"/><circle class="cls-4" cx="666.34" cy="92.38" r="6.45"/><circle class="cls-5" cx="666.34" cy="92.38" r="4.11"/><line class="cls-4" x1="653.63" y1="107.44" x2="660.67" y2="95.31"/><line class="cls-4" x1="672.8" y1="94.14" x2="685.31" y2="97.57"/><line class="cls-4" x1="695.9" y1="96.88" x2="706.14" y2="86.58"/></svg>